<?xml version="1.0" encoding="utf-8" standalone="no"?>
<!DOCTYPE svg PUBLIC "-//W3C//DTD SVG 1.1//EN"
  "http://www.w3.org/Graphics/SVG/1.1/DTD/svg11.dtd">
<svg xmlns:xlink="http://www.w3.org/1999/xlink" width="568.37875pt" height="350.952656pt" viewBox="0 0 568.37875 350.952656" xmlns="http://www.w3.org/2000/svg" version="1.1">
 <metadata>
  <rdf:RDF xmlns:dc="http://purl.org/dc/elements/1.1/" xmlns:cc="http://creativecommons.org/ns#" xmlns:rdf="http://www.w3.org/1999/02/22-rdf-syntax-ns#">
   <cc:Work>
    <dc:type rdf:resource="http://purl.org/dc/dcmitype/StillImage"/>
    <dc:date>2026-04-15T16:57:57.933877</dc:date>
    <dc:format>image/svg+xml</dc:format>
    <dc:creator>
     <cc:Agent>
      <dc:title>Matplotlib v3.8.0, https://matplotlib.org/</dc:title>
     </cc:Agent>
    </dc:creator>
   </cc:Work>
  </rdf:RDF>
 </metadata>
 <defs>
  <style type="text/css">*{stroke-linejoin: round; stroke-linecap: butt}</style>
 </defs>
 <g id="figure_1">
  <g id="patch_1">
   <path d="M 0 350.952656 
L 568.37875 350.952656 
L 568.37875 0 
L 0 0 
z
" style="fill: #ffffff"/>
  </g>
  <g id="axes_1">
   <g id="patch_2">
    <path d="M 48.60625 308.854219 
L 561.17875 308.854219 
L 561.17875 10.774219 
L 48.60625 10.774219 
z
" style="fill: #ffffff"/>
   </g>
   <g id="matplotlib.axis_1">
    <g id="xtick_1">
     <g id="line2d_1">
      <path d="M 85.218571 308.854219 
L 85.218571 10.774219 
" clip-path="url(#p0f21dd793f)" style="fill: none; stroke-dasharray: 2.96,1.28; stroke-dashoffset: 0; stroke: #cccccc; stroke-opacity: 0.7; stroke-width: 0.8"/>
     </g>
     <g id="line2d_2">
      <defs>
       <path id="mcb5c185210" d="M 0 0 
L 0 6 
" style="stroke: #262626; stroke-width: 0.8"/>
      </defs>
      <g>
       <use xlink:href="#mcb5c185210" x="85.218571" y="308.854219" style="fill: #262626; stroke: #262626; stroke-width: 0.8"/>
      </g>
     </g>
     <g id="text_1">
      <!-- 10 -->
      <g style="fill: #262626" transform="translate(80.218571 325.502656) scale(0.1 -0.1)">
       <defs>
        <path id="SimSun-31" d="M 1825 4450 
L 1825 650 
Q 1825 450 1950 350 
Q 2075 250 2300 250 
L 2550 250 
L 2550 100 
L 725 100 
L 725 250 
L 950 250 
Q 1200 250 1312 350 
Q 1425 450 1425 650 
L 1425 3675 
Q 1425 3775 1362 3837 
Q 1300 3900 1175 3900 
L 725 3900 
L 725 4050 
L 950 4050 
Q 1250 4050 1437 4150 
Q 1625 4250 1725 4450 
L 1825 4450 
z
" transform="scale(0.015625)"/>
        <path id="SimSun-30" d="M 1600 4225 
Q 1250 4225 1012 3687 
Q 775 3150 775 2250 
Q 775 1300 1012 775 
Q 1250 250 1600 250 
Q 1975 250 2187 775 
Q 2400 1300 2400 2250 
Q 2400 3150 2200 3687 
Q 2000 4225 1600 4225 
z
M 1600 50 
Q 1050 50 675 625 
Q 300 1200 300 2250 
Q 300 3225 662 3825 
Q 1025 4425 1600 4425 
Q 2150 4425 2512 3850 
Q 2875 3275 2875 2250 
Q 2875 1225 2512 637 
Q 2150 50 1600 50 
z
" transform="scale(0.015625)"/>
       </defs>
       <use xlink:href="#SimSun-31"/>
       <use xlink:href="#SimSun-30" x="50"/>
      </g>
     </g>
    </g>
    <g id="xtick_2">
     <g id="line2d_3">
      <path d="M 158.443214 308.854219 
L 158.443214 10.774219 
" clip-path="url(#p0f21dd793f)" style="fill: none; stroke-dasharray: 2.96,1.28; stroke-dashoffset: 0; stroke: #cccccc; stroke-opacity: 0.7; stroke-width: 0.8"/>
     </g>
     <g id="line2d_4">
      <g>
       <use xlink:href="#mcb5c185210" x="158.443214" y="308.854219" style="fill: #262626; stroke: #262626; stroke-width: 0.8"/>
      </g>
     </g>
     <g id="text_2">
      <!-- 20 -->
      <g style="fill: #262626" transform="translate(153.443214 325.502656) scale(0.1 -0.1)">
       <defs>
        <path id="SimSun-32" d="M 2325 3325 
Q 2325 3775 2125 4012 
Q 1925 4250 1525 4250 
Q 1225 4250 1012 4087 
Q 800 3925 800 3675 
Q 800 3525 900 3425 
Q 975 3325 975 3225 
Q 975 3100 912 3037 
Q 850 2975 725 2975 
Q 575 2975 487 3062 
Q 400 3150 400 3350 
Q 400 3875 775 4150 
Q 1150 4425 1575 4425 
Q 2175 4425 2462 4125 
Q 2750 3825 2750 3375 
Q 2750 3075 2612 2775 
Q 2475 2475 2175 2200 
Q 1450 1500 1062 1062 
Q 675 625 600 475 
L 2075 475 
Q 2300 475 2450 650 
Q 2600 825 2650 1175 
L 2800 1175 
L 2650 100 
L 325 100 
L 325 425 
Q 450 650 737 1000 
Q 1025 1350 1500 1825 
Q 1925 2250 2125 2625 
Q 2325 3000 2325 3325 
z
" transform="scale(0.015625)"/>
       </defs>
       <use xlink:href="#SimSun-32"/>
       <use xlink:href="#SimSun-30" x="50"/>
      </g>
     </g>
    </g>
    <g id="xtick_3">
     <g id="line2d_5">
      <path d="M 231.667857 308.854219 
L 231.667857 10.774219 
" clip-path="url(#p0f21dd793f)" style="fill: none; stroke-dasharray: 2.96,1.28; stroke-dashoffset: 0; stroke: #cccccc; stroke-opacity: 0.7; stroke-width: 0.8"/>
     </g>
     <g id="line2d_6">
      <g>
       <use xlink:href="#mcb5c185210" x="231.667857" y="308.854219" style="fill: #262626; stroke: #262626; stroke-width: 0.8"/>
      </g>
     </g>
     <g id="text_3">
      <!-- 30 -->
      <g style="fill: #262626" transform="translate(226.667857 325.502656) scale(0.1 -0.1)">
       <defs>
        <path id="SimSun-33" d="M 2800 1250 
Q 2800 775 2450 412 
Q 2100 50 1475 50 
Q 1025 50 700 300 
Q 375 550 375 875 
Q 375 1025 475 1137 
Q 575 1250 675 1250 
Q 825 1250 887 1137 
Q 950 1025 950 950 
Q 950 825 900 750 
Q 850 650 850 575 
Q 850 425 1037 325 
Q 1225 225 1450 225 
Q 1900 225 2125 487 
Q 2350 750 2350 1300 
Q 2350 1750 2112 2025 
Q 1875 2300 1225 2300 
L 1225 2475 
Q 1725 2475 1962 2712 
Q 2200 2950 2200 3375 
Q 2200 3725 2012 3987 
Q 1825 4250 1425 4250 
Q 1250 4250 1050 4162 
Q 850 4075 850 3875 
Q 850 3675 900 3625 
Q 950 3575 950 3500 
Q 950 3375 900 3300 
Q 850 3225 725 3225 
Q 625 3225 537 3300 
Q 450 3375 450 3575 
Q 450 3950 775 4187 
Q 1100 4425 1525 4425 
Q 2025 4425 2325 4112 
Q 2625 3800 2625 3450 
Q 2625 3075 2437 2812 
Q 2250 2550 1850 2425 
Q 2400 2225 2600 1900 
Q 2800 1575 2800 1250 
z
" transform="scale(0.015625)"/>
       </defs>
       <use xlink:href="#SimSun-33"/>
       <use xlink:href="#SimSun-30" x="50"/>
      </g>
     </g>
    </g>
    <g id="xtick_4">
     <g id="line2d_7">
      <path d="M 304.8925 308.854219 
L 304.8925 10.774219 
" clip-path="url(#p0f21dd793f)" style="fill: none; stroke-dasharray: 2.96,1.28; stroke-dashoffset: 0; stroke: #cccccc; stroke-opacity: 0.7; stroke-width: 0.8"/>
     </g>
     <g id="line2d_8">
      <g>
       <use xlink:href="#mcb5c185210" x="304.8925" y="308.854219" style="fill: #262626; stroke: #262626; stroke-width: 0.8"/>
      </g>
     </g>
     <g id="text_4">
      <!-- 40 -->
      <g style="fill: #262626" transform="translate(299.8925 325.502656) scale(0.1 -0.1)">
       <defs>
        <path id="SimSun-34" d="M 2300 575 
Q 2300 400 2400 325 
Q 2500 250 2675 250 
L 2900 250 
L 2900 100 
L 1250 100 
L 1250 250 
L 1525 250 
Q 1725 250 1812 325 
Q 1900 400 1900 575 
L 1900 1400 
L 225 1400 
L 225 1525 
L 2050 4425 
L 2300 4425 
L 2300 1550 
L 2975 1550 
L 2975 1400 
L 2300 1400 
L 2300 575 
z
M 1875 3800 
L 450 1550 
L 1900 1550 
L 1900 3800 
L 1875 3800 
z
" transform="scale(0.015625)"/>
       </defs>
       <use xlink:href="#SimSun-34"/>
       <use xlink:href="#SimSun-30" x="50"/>
      </g>
     </g>
    </g>
    <g id="xtick_5">
     <g id="line2d_9">
      <path d="M 378.117143 308.854219 
L 378.117143 10.774219 
" clip-path="url(#p0f21dd793f)" style="fill: none; stroke-dasharray: 2.96,1.28; stroke-dashoffset: 0; stroke: #cccccc; stroke-opacity: 0.7; stroke-width: 0.8"/>
     </g>
     <g id="line2d_10">
      <g>
       <use xlink:href="#mcb5c185210" x="378.117143" y="308.854219" style="fill: #262626; stroke: #262626; stroke-width: 0.8"/>
      </g>
     </g>
     <g id="text_5">
      <!-- 50 -->
      <g style="fill: #262626" transform="translate(373.117143 325.502656) scale(0.1 -0.1)">
       <defs>
        <path id="SimSun-35" d="M 1725 2850 
Q 2200 2850 2500 2487 
Q 2800 2125 2800 1525 
Q 2800 850 2487 450 
Q 2175 50 1525 50 
Q 1075 50 725 312 
Q 375 575 375 950 
Q 375 1100 462 1212 
Q 550 1325 700 1325 
Q 850 1325 900 1225 
Q 950 1125 950 1050 
Q 950 900 875 825 
Q 800 725 800 625 
Q 800 425 1037 325 
Q 1275 225 1550 225 
Q 1950 225 2162 550 
Q 2375 875 2375 1475 
Q 2375 1975 2187 2287 
Q 2000 2600 1625 2600 
Q 1350 2600 1150 2500 
Q 950 2400 775 2075 
L 550 2100 
L 675 4375 
L 2725 4375 
L 2650 4000 
L 850 4000 
L 750 2350 
Q 1000 2700 1237 2775 
Q 1475 2850 1725 2850 
z
" transform="scale(0.015625)"/>
       </defs>
       <use xlink:href="#SimSun-35"/>
       <use xlink:href="#SimSun-30" x="50"/>
      </g>
     </g>
    </g>
    <g id="xtick_6">
     <g id="line2d_11">
      <path d="M 451.341786 308.854219 
L 451.341786 10.774219 
" clip-path="url(#p0f21dd793f)" style="fill: none; stroke-dasharray: 2.96,1.28; stroke-dashoffset: 0; stroke: #cccccc; stroke-opacity: 0.7; stroke-width: 0.8"/>
     </g>
     <g id="line2d_12">
      <g>
       <use xlink:href="#mcb5c185210" x="451.341786" y="308.854219" style="fill: #262626; stroke: #262626; stroke-width: 0.8"/>
      </g>
     </g>
     <g id="text_6">
      <!-- 60 -->
      <g style="fill: #262626" transform="translate(446.341786 325.502656) scale(0.1 -0.1)">
       <defs>
        <path id="SimSun-36" d="M 775 1800 
Q 775 1050 1037 637 
Q 1300 225 1675 225 
Q 2050 225 2250 500 
Q 2450 775 2450 1525 
Q 2450 2025 2237 2300 
Q 2025 2575 1725 2575 
Q 1450 2575 1212 2412 
Q 975 2250 775 1800 
z
M 1750 2825 
Q 2350 2825 2612 2425 
Q 2875 2025 2875 1525 
Q 2875 775 2512 412 
Q 2150 50 1675 50 
Q 1000 50 650 562 
Q 300 1075 300 2050 
Q 300 3200 725 3812 
Q 1150 4425 1875 4425 
Q 2225 4425 2437 4225 
Q 2650 4025 2650 3875 
Q 2650 3725 2587 3650 
Q 2525 3575 2375 3575 
Q 2250 3575 2187 3637 
Q 2125 3700 2125 3825 
Q 2125 3875 2150 3925 
Q 2150 3975 2150 4025 
Q 2150 4125 2075 4187 
Q 2000 4250 1800 4250 
Q 1375 4250 1075 3862 
Q 775 3475 775 2175 
Q 925 2500 1187 2662 
Q 1450 2825 1750 2825 
z
" transform="scale(0.015625)"/>
       </defs>
       <use xlink:href="#SimSun-36"/>
       <use xlink:href="#SimSun-30" x="50"/>
      </g>
     </g>
    </g>
    <g id="xtick_7">
     <g id="line2d_13">
      <path d="M 524.566429 308.854219 
L 524.566429 10.774219 
" clip-path="url(#p0f21dd793f)" style="fill: none; stroke-dasharray: 2.96,1.28; stroke-dashoffset: 0; stroke: #cccccc; stroke-opacity: 0.7; stroke-width: 0.8"/>
     </g>
     <g id="line2d_14">
      <g>
       <use xlink:href="#mcb5c185210" x="524.566429" y="308.854219" style="fill: #262626; stroke: #262626; stroke-width: 0.8"/>
      </g>
     </g>
     <g id="text_7">
      <!-- 70 -->
      <g style="fill: #262626" transform="translate(519.566429 325.502656) scale(0.1 -0.1)">
       <defs>
        <path id="SimSun-37" d="M 2825 4200 
Q 2300 3350 1987 2537 
Q 1675 1725 1675 1125 
Q 1675 1025 1700 850 
Q 1700 650 1700 400 
Q 1700 200 1637 125 
Q 1575 50 1425 50 
Q 1300 50 1212 137 
Q 1125 225 1125 450 
Q 1125 925 1337 1625 
Q 1550 2325 2475 4000 
L 1225 4000 
Q 950 4000 787 3825 
Q 625 3650 550 3300 
L 400 3325 
L 575 4375 
L 2825 4375 
L 2825 4200 
z
" transform="scale(0.015625)"/>
       </defs>
       <use xlink:href="#SimSun-37"/>
       <use xlink:href="#SimSun-30" x="50"/>
      </g>
     </g>
    </g>
    <g id="text_8">
     <!-- 特征丢弃率（%） -->
     <g style="fill: #262626" transform="translate(252.3925 341.947969) scale(0.14 -0.14)">
      <defs>
       <path id="SimSun-7279" d="M 2600 4225 
L 3800 4225 
Q 3800 4875 3775 5275 
L 4325 5050 
L 4150 4900 
L 4150 4225 
L 4850 4225 
L 5200 4525 
L 5625 4075 
L 4150 4075 
L 4150 3025 
L 5300 3025 
L 5675 3375 
L 6125 2875 
L 3100 2875 
Q 2775 2875 2500 2800 
L 2275 3025 
L 3800 3025 
L 3800 4075 
L 3425 4075 
Q 3100 4075 2825 4000 
L 2600 4225 
z
M 3475 50 
Q 4050 0 4275 0 
Q 4400 0 4487 25 
Q 4575 50 4575 225 
L 4575 1800 
L 3200 1800 
Q 2875 1800 2600 1725 
L 2375 1950 
L 4575 1950 
Q 4575 2550 4550 2825 
L 5125 2550 
L 4925 2375 
L 4925 1950 
L 5400 1950 
L 5725 2275 
L 6175 1800 
L 4925 1800 
L 4925 150 
Q 4950 -425 4325 -600 
Q 4300 -225 3475 -50 
L 3475 50 
z
M 2875 1550 
Q 3325 1250 3475 1062 
Q 3625 875 3625 750 
Q 3625 625 3512 475 
Q 3400 325 3350 325 
Q 3275 325 3200 625 
Q 3100 1050 2800 1500 
L 2875 1550 
z
M 1475 -650 
Q 1500 -175 1500 1625 
Q 1150 1425 775 1200 
L 625 975 
L 300 1450 
Q 550 1500 1500 1900 
L 1500 3275 
L 800 3275 
Q 600 2725 325 2275 
L 250 2325 
Q 450 2950 550 3537 
Q 650 4125 650 4450 
L 1200 4250 
Q 1050 4150 975 3900 
Q 900 3650 825 3425 
L 1500 3425 
Q 1500 4850 1475 5225 
L 2050 4950 
L 1850 4775 
L 1850 3425 
L 2150 3425 
L 2450 3725 
L 2875 3275 
L 1850 3275 
L 1850 2075 
L 2750 2450 
L 2800 2375 
L 1850 1825 
Q 1850 -75 1875 -500 
L 1475 -650 
z
" transform="scale(0.015625)"/>
       <path id="SimSun-5f81" d="M 1600 5200 
L 2075 4825 
L 1825 4700 
Q 900 3550 400 3225 
L 350 3300 
Q 775 3750 1100 4262 
Q 1425 4775 1600 5200 
z
M 1600 2600 
L 1600 -475 
L 1225 -650 
Q 1250 -125 1250 400 
L 1250 2200 
Q 850 1750 375 1400 
L 325 1475 
Q 775 1925 1250 2625 
Q 1725 3325 1975 3950 
L 2425 3550 
L 2200 3450 
Q 1875 3025 1600 2600 
z
M 2750 2200 
Q 2750 2650 2725 3125 
L 3300 2825 
L 3075 2625 
L 3075 25 
L 4000 25 
L 4000 4450 
L 3200 4450 
Q 2875 4450 2600 4375 
L 2375 4600 
L 5175 4600 
L 5500 4925 
L 5975 4450 
L 4325 4450 
L 4325 2500 
L 5125 2500 
L 5425 2800 
L 5875 2350 
L 4325 2350 
L 4325 25 
L 5250 25 
L 5600 375 
L 6100 -125 
L 2600 -125 
Q 2275 -125 2000 -200 
L 1775 25 
L 2750 25 
L 2750 2200 
z
" transform="scale(0.015625)"/>
       <path id="SimSun-4e22" d="M 4225 1000 
Q 5075 500 5312 237 
Q 5550 -25 5550 -200 
Q 5550 -300 5462 -437 
Q 5375 -575 5325 -575 
Q 5275 -575 5200 -450 
Q 5075 -200 4975 -25 
Q 1700 -275 1350 -525 
L 1075 25 
Q 1375 75 1950 662 
Q 2525 1250 2975 1975 
L 1150 1975 
Q 825 1975 550 1900 
L 325 2125 
L 3050 2125 
L 3050 3325 
L 1925 3325 
Q 1600 3325 1325 3250 
L 1100 3475 
L 3050 3475 
L 3050 4475 
Q 2200 4425 1150 4375 
L 1150 4500 
Q 2250 4575 3325 4762 
Q 4400 4950 4775 5175 
L 5175 4725 
Q 4875 4725 3425 4525 
L 3425 3475 
L 4650 3475 
L 4975 3800 
L 5450 3325 
L 3425 3325 
L 3425 2125 
L 5200 2125 
L 5550 2475 
L 6050 1975 
L 3050 1975 
L 3500 1600 
L 3225 1525 
Q 2150 400 1525 0 
L 4900 125 
Q 4675 450 4150 925 
L 4225 1000 
z
" transform="scale(0.015625)"/>
       <path id="SimSun-5f03" d="M 2225 1500 
Q 2250 2175 2200 2625 
L 2825 2350 
L 2600 2225 
L 2575 1500 
L 3950 1500 
Q 3950 2275 3925 2675 
L 4525 2400 
L 4300 2250 
L 4300 1500 
L 5175 1500 
L 5550 1875 
L 6075 1350 
L 4300 1350 
Q 4300 25 4325 -425 
L 3925 -625 
Q 3950 25 3950 1350 
L 2550 1350 
Q 2350 -125 450 -650 
L 425 -575 
Q 2000 75 2200 1350 
L 1175 1350 
Q 850 1350 575 1275 
L 350 1500 
L 2225 1500 
z
M 2600 5200 
L 2650 5275 
Q 3075 5100 3250 4975 
Q 3425 4850 3412 4687 
Q 3400 4525 3312 4425 
Q 3225 4325 3175 4325 
Q 3100 4325 3025 4525 
Q 2925 4825 2600 5200 
z
M 500 4300 
L 4950 4300 
L 5325 4675 
L 5850 4150 
L 2875 4150 
L 3250 3875 
Q 3025 3875 2637 3600 
Q 2250 3325 1725 2925 
Q 3225 2975 4625 3025 
Q 4250 3475 3975 3700 
L 4050 3775 
Q 4500 3550 4862 3300 
Q 5225 3050 5262 2837 
Q 5300 2625 5200 2487 
Q 5100 2350 5050 2350 
Q 4975 2350 4925 2475 
Q 4825 2700 4700 2900 
Q 2875 2775 2262 2675 
Q 1650 2575 1475 2450 
L 1150 2975 
Q 1525 2975 1987 3387 
Q 2450 3800 2700 4150 
L 1325 4150 
Q 1000 4150 725 4075 
L 500 4300 
z
" transform="scale(0.015625)"/>
       <path id="SimSun-7387" d="M 875 3725 
L 925 3800 
Q 1375 3650 1550 3525 
Q 1725 3400 1725 3250 
Q 1725 3175 1662 3025 
Q 1600 2875 1550 2875 
Q 1500 2875 1425 3050 
Q 1275 3325 875 3725 
z
M 550 1850 
Q 875 1925 2000 2575 
L 2050 2500 
Q 1675 2225 1337 1937 
Q 1000 1650 875 1425 
L 550 1850 
z
M 5200 3450 
Q 4800 3150 4275 2800 
L 4225 2875 
Q 4775 3400 5050 3925 
L 5450 3525 
L 5200 3450 
z
M 4325 2500 
L 4350 2575 
Q 5225 2350 5375 2212 
Q 5525 2075 5525 1900 
Q 5525 1775 5487 1662 
Q 5450 1550 5400 1550 
Q 5325 1550 5200 1800 
Q 4975 2150 4325 2500 
z
M 3150 3900 
Q 2500 3300 2300 3150 
Q 2800 3150 3400 3175 
Q 3700 3500 3850 3825 
L 4250 3450 
Q 4050 3400 3450 2825 
Q 2850 2250 2475 1950 
Q 3150 1975 3850 2000 
Q 3750 2175 3550 2450 
L 3600 2500 
Q 4050 2250 4200 2100 
Q 4350 1950 4350 1850 
Q 4350 1775 4250 1625 
Q 4150 1475 4100 1475 
Q 4075 1475 4050 1550 
Q 4000 1700 3900 1900 
Q 3650 1875 3075 1800 
L 3500 1550 
L 3325 1425 
L 3325 975 
L 5325 975 
L 5650 1300 
L 6100 825 
L 3325 825 
Q 3325 -275 3350 -525 
L 2975 -650 
Q 3000 0 3000 825 
L 1125 825 
Q 800 825 525 750 
L 300 975 
L 3000 975 
L 3000 1775 
Q 2450 1700 2200 1525 
L 1950 1950 
Q 2275 1950 2675 2350 
Q 3075 2750 3325 3050 
Q 2400 2950 2150 2775 
L 1950 3175 
Q 2150 3150 2475 3575 
Q 2800 4000 2900 4225 
L 1450 4225 
Q 1125 4225 850 4150 
L 625 4375 
L 3100 4375 
Q 3050 4800 2675 5200 
L 2725 5250 
Q 3225 5050 3337 4912 
Q 3450 4775 3450 4700 
Q 3450 4550 3250 4375 
L 5025 4375 
L 5350 4675 
L 5775 4225 
L 3050 4225 
L 3375 3950 
L 3150 3900 
z
" transform="scale(0.015625)"/>
       <path id="SimSun-ff08" d="M 5087 200 
Q 5475 -100 5425 -150 
Q 5375 -200 4950 87 
Q 4525 375 4137 850 
Q 3750 1325 3687 2100 
Q 3625 2875 4000 3487 
Q 4375 4100 4887 4462 
Q 5400 4825 5412 4762 
Q 5425 4700 5075 4425 
Q 4725 4125 4387 3600 
Q 4050 3075 4050 2250 
Q 4050 1425 4375 962 
Q 4700 500 5087 200 
z
" transform="scale(0.015625)"/>
       <path id="SimSun-25" d="M 750 4250 
Q 600 4250 500 4050 
Q 400 3850 400 3300 
Q 400 2675 512 2487 
Q 625 2300 750 2300 
Q 925 2300 1012 2525 
Q 1100 2750 1100 3300 
Q 1100 3750 1037 4000 
Q 975 4250 750 4250 
z
M 1425 3275 
Q 1425 2825 1275 2487 
Q 1125 2150 750 2150 
Q 450 2150 262 2450 
Q 75 2750 75 3275 
Q 75 3825 275 4125 
Q 475 4425 750 4425 
Q 1050 4425 1237 4112 
Q 1425 3800 1425 3275 
z
M 2725 1200 
Q 2725 1625 2650 1900 
Q 2575 2175 2375 2175 
Q 2225 2175 2125 1937 
Q 2025 1700 2025 1200 
Q 2025 575 2137 400 
Q 2250 225 2375 225 
Q 2550 225 2637 437 
Q 2725 650 2725 1200 
z
M 3050 1175 
Q 3050 675 2875 362 
Q 2700 50 2375 50 
Q 2100 50 1900 362 
Q 1700 675 1700 1175 
Q 1700 1725 1900 2037 
Q 2100 2350 2375 2350 
Q 2675 2350 2862 2025 
Q 3050 1700 3050 1175 
z
M 2525 4350 
L 725 50 
L 575 125 
L 2350 4425 
L 2525 4350 
z
" transform="scale(0.015625)"/>
       <path id="SimSun-ff09" d="M 2337 875 
Q 1925 350 1437 62 
Q 950 -225 937 -162 
Q 925 -100 1300 175 
Q 1650 425 2037 1012 
Q 2425 1600 2375 2375 
Q 2325 3150 1987 3662 
Q 1650 4175 1300 4475 
Q 925 4775 937 4837 
Q 950 4900 1412 4587 
Q 1875 4275 2325 3662 
Q 2775 3050 2762 2225 
Q 2750 1400 2337 875 
z
" transform="scale(0.015625)"/>
      </defs>
      <use xlink:href="#SimSun-7279"/>
      <use xlink:href="#SimSun-5f81" x="100"/>
      <use xlink:href="#SimSun-4e22" x="200"/>
      <use xlink:href="#SimSun-5f03" x="300"/>
      <use xlink:href="#SimSun-7387" x="400"/>
      <use xlink:href="#SimSun-ff08" x="500"/>
      <use xlink:href="#SimSun-25" x="600"/>
      <use xlink:href="#SimSun-ff09" x="650"/>
     </g>
    </g>
   </g>
   <g id="matplotlib.axis_2">
    <g id="ytick_1">
     <g id="line2d_15">
      <path d="M 48.60625 308.854219 
L 561.17875 308.854219 
" clip-path="url(#p0f21dd793f)" style="fill: none; stroke-dasharray: 2.96,1.28; stroke-dashoffset: 0; stroke: #cccccc; stroke-opacity: 0.7; stroke-width: 0.8"/>
     </g>
     <g id="line2d_16">
      <defs>
       <path id="m350a16c799" d="M 0 0 
L -6 0 
" style="stroke: #262626; stroke-width: 0.8"/>
      </defs>
      <g>
       <use xlink:href="#m350a16c799" x="48.60625" y="308.854219" style="fill: #262626; stroke: #262626; stroke-width: 0.8"/>
      </g>
     </g>
     <g id="text_9">
      <!-- 0.0 -->
      <g style="fill: #262626" transform="translate(24.10625 312.428437) scale(0.1 -0.1)">
       <defs>
        <path id="SimSun-2e" d="M 800 25 
Q 650 25 537 125 
Q 425 225 425 400 
Q 425 575 537 675 
Q 650 775 800 775 
Q 950 775 1062 662 
Q 1175 550 1175 400 
Q 1175 225 1062 125 
Q 950 25 800 25 
z
" transform="scale(0.015625)"/>
       </defs>
       <use xlink:href="#SimSun-30"/>
       <use xlink:href="#SimSun-2e" x="50"/>
       <use xlink:href="#SimSun-30" x="100"/>
      </g>
     </g>
    </g>
    <g id="ytick_2">
     <g id="line2d_17">
      <path d="M 48.60625 249.238219 
L 561.17875 249.238219 
" clip-path="url(#p0f21dd793f)" style="fill: none; stroke-dasharray: 2.96,1.28; stroke-dashoffset: 0; stroke: #cccccc; stroke-opacity: 0.7; stroke-width: 0.8"/>
     </g>
     <g id="line2d_18">
      <g>
       <use xlink:href="#m350a16c799" x="48.60625" y="249.238219" style="fill: #262626; stroke: #262626; stroke-width: 0.8"/>
      </g>
     </g>
     <g id="text_10">
      <!-- 0.2 -->
      <g style="fill: #262626" transform="translate(24.10625 252.812437) scale(0.1 -0.1)">
       <use xlink:href="#SimSun-30"/>
       <use xlink:href="#SimSun-2e" x="50"/>
       <use xlink:href="#SimSun-32" x="100"/>
      </g>
     </g>
    </g>
    <g id="ytick_3">
     <g id="line2d_19">
      <path d="M 48.60625 189.622219 
L 561.17875 189.622219 
" clip-path="url(#p0f21dd793f)" style="fill: none; stroke-dasharray: 2.96,1.28; stroke-dashoffset: 0; stroke: #cccccc; stroke-opacity: 0.7; stroke-width: 0.8"/>
     </g>
     <g id="line2d_20">
      <g>
       <use xlink:href="#m350a16c799" x="48.60625" y="189.622219" style="fill: #262626; stroke: #262626; stroke-width: 0.8"/>
      </g>
     </g>
     <g id="text_11">
      <!-- 0.4 -->
      <g style="fill: #262626" transform="translate(24.10625 193.196437) scale(0.1 -0.1)">
       <use xlink:href="#SimSun-30"/>
       <use xlink:href="#SimSun-2e" x="50"/>
       <use xlink:href="#SimSun-34" x="100"/>
      </g>
     </g>
    </g>
    <g id="ytick_4">
     <g id="line2d_21">
      <path d="M 48.60625 130.006219 
L 561.17875 130.006219 
" clip-path="url(#p0f21dd793f)" style="fill: none; stroke-dasharray: 2.96,1.28; stroke-dashoffset: 0; stroke: #cccccc; stroke-opacity: 0.7; stroke-width: 0.8"/>
     </g>
     <g id="line2d_22">
      <g>
       <use xlink:href="#m350a16c799" x="48.60625" y="130.006219" style="fill: #262626; stroke: #262626; stroke-width: 0.8"/>
      </g>
     </g>
     <g id="text_12">
      <!-- 0.6 -->
      <g style="fill: #262626" transform="translate(24.10625 133.580437) scale(0.1 -0.1)">
       <use xlink:href="#SimSun-30"/>
       <use xlink:href="#SimSun-2e" x="50"/>
       <use xlink:href="#SimSun-36" x="100"/>
      </g>
     </g>
    </g>
    <g id="ytick_5">
     <g id="line2d_23">
      <path d="M 48.60625 70.390219 
L 561.17875 70.390219 
" clip-path="url(#p0f21dd793f)" style="fill: none; stroke-dasharray: 2.96,1.28; stroke-dashoffset: 0; stroke: #cccccc; stroke-opacity: 0.7; stroke-width: 0.8"/>
     </g>
     <g id="line2d_24">
      <g>
       <use xlink:href="#m350a16c799" x="48.60625" y="70.390219" style="fill: #262626; stroke: #262626; stroke-width: 0.8"/>
      </g>
     </g>
     <g id="text_13">
      <!-- 0.8 -->
      <g style="fill: #262626" transform="translate(24.10625 73.964437) scale(0.1 -0.1)">
       <defs>
        <path id="SimSun-38" d="M 625 1125 
Q 625 725 887 475 
Q 1150 225 1550 225 
Q 2025 225 2237 475 
Q 2450 725 2450 1100 
Q 2450 1425 2150 1725 
Q 1850 2025 1250 2275 
Q 950 2075 787 1775 
Q 625 1475 625 1125 
z
M 2825 1175 
Q 2825 700 2475 375 
Q 2125 50 1550 50 
Q 1025 50 650 375 
Q 275 700 275 1125 
Q 275 1550 487 1850 
Q 700 2150 1100 2375 
Q 750 2550 562 2812 
Q 375 3075 375 3400 
Q 375 3825 700 4125 
Q 1025 4425 1600 4425 
Q 2125 4425 2450 4125 
Q 2775 3825 2775 3400 
Q 2775 3100 2587 2837 
Q 2400 2575 2000 2375 
Q 2425 2125 2625 1825 
Q 2825 1525 2825 1175 
z
M 2425 3375 
Q 2425 3725 2225 3987 
Q 2025 4250 1600 4250 
Q 1125 4250 925 4000 
Q 725 3750 725 3475 
Q 725 3200 1012 2937 
Q 1300 2675 1825 2475 
Q 2125 2625 2275 2850 
Q 2425 3075 2425 3375 
z
" transform="scale(0.015625)"/>
       </defs>
       <use xlink:href="#SimSun-30"/>
       <use xlink:href="#SimSun-2e" x="50"/>
       <use xlink:href="#SimSun-38" x="100"/>
      </g>
     </g>
    </g>
    <g id="ytick_6">
     <g id="line2d_25">
      <path d="M 48.60625 10.774219 
L 561.17875 10.774219 
" clip-path="url(#p0f21dd793f)" style="fill: none; stroke-dasharray: 2.96,1.28; stroke-dashoffset: 0; stroke: #cccccc; stroke-opacity: 0.7; stroke-width: 0.8"/>
     </g>
     <g id="line2d_26">
      <g>
       <use xlink:href="#m350a16c799" x="48.60625" y="10.774219" style="fill: #262626; stroke: #262626; stroke-width: 0.8"/>
      </g>
     </g>
     <g id="text_14">
      <!-- 1.0 -->
      <g style="fill: #262626" transform="translate(24.10625 14.348437) scale(0.1 -0.1)">
       <use xlink:href="#SimSun-31"/>
       <use xlink:href="#SimSun-2e" x="50"/>
       <use xlink:href="#SimSun-30" x="100"/>
      </g>
     </g>
    </g>
    <g id="text_15">
     <!-- 不一致性得分 -->
     <g style="fill: #262626" transform="translate(18.301563 201.814219) rotate(-90) scale(0.14 -0.14)">
      <defs>
       <path id="SimSun-4e0d" d="M 3375 3175 
L 3375 775 
Q 3375 25 3400 -375 
L 2975 -550 
Q 3000 400 3000 1100 
L 3000 3300 
Q 2000 1775 400 850 
L 350 950 
Q 1175 1550 1937 2462 
Q 2700 3375 3175 4600 
L 1225 4600 
Q 900 4600 625 4525 
L 400 4750 
L 5150 4750 
L 5525 5125 
L 6050 4600 
L 3675 4600 
Q 3450 4175 3175 3600 
L 3600 3350 
L 3375 3175 
z
M 3900 3100 
L 3975 3175 
Q 5575 2125 5737 1875 
Q 5900 1625 5900 1475 
Q 5900 1375 5825 1237 
Q 5750 1100 5700 1100 
Q 5600 1100 5400 1500 
Q 5100 2025 3900 3100 
z
" transform="scale(0.015625)"/>
       <path id="SimSun-4e00" d="M 350 2650 
L 5000 2650 
L 5500 3050 
L 6050 2500 
L 1250 2500 
Q 850 2500 575 2425 
L 350 2650 
z
" transform="scale(0.015625)"/>
       <path id="SimSun-81f4" d="M 1600 1675 
L 1600 2775 
Q 1350 2725 1125 2662 
Q 900 2600 750 2500 
L 475 2975 
Q 750 3025 1075 3500 
Q 1400 3975 1600 4450 
L 1150 4450 
Q 825 4450 550 4375 
L 325 4600 
L 2650 4600 
L 2975 4925 
L 3400 4450 
L 1700 4450 
L 2100 4200 
Q 1825 4075 1500 3675 
Q 1175 3250 825 2925 
Q 1600 2950 2600 3050 
Q 2475 3375 2175 3775 
L 2250 3825 
Q 2675 3525 2875 3312 
Q 3075 3100 3075 2900 
Q 3075 2700 2962 2600 
Q 2850 2500 2825 2500 
Q 2775 2500 2775 2550 
Q 2750 2650 2650 2950 
Q 2300 2900 1675 2800 
L 2150 2550 
L 1925 2400 
L 1925 1675 
L 2450 1675 
L 2775 2000 
L 3200 1525 
L 1925 1525 
L 1925 350 
Q 2375 425 3200 600 
L 3225 500 
Q 1925 150 1525 25 
Q 1125 -100 887 -187 
Q 650 -275 525 -400 
L 250 75 
Q 1000 175 1600 300 
L 1600 1525 
L 1200 1525 
Q 875 1525 600 1450 
L 375 1675 
L 1600 1675 
z
M 3825 3675 
Q 3875 2900 4050 2275 
Q 4225 1650 4450 1250 
Q 4650 1750 4762 2375 
Q 4875 3000 4900 3675 
L 3825 3675 
z
M 5275 3675 
Q 5200 2900 5075 2250 
Q 4950 1600 4650 900 
Q 5025 450 5425 225 
Q 5825 0 6150 -25 
L 6150 -125 
Q 5800 -175 5650 -450 
Q 5275 -225 5012 25 
Q 4750 275 4450 650 
Q 4050 225 3550 -87 
Q 3050 -400 2325 -625 
L 2300 -550 
Q 2900 -275 3450 137 
Q 4000 550 4250 950 
Q 4000 1600 3862 2200 
Q 3725 2800 3725 3400 
Q 3475 2700 3075 2125 
L 3000 2175 
Q 3325 2850 3562 3750 
Q 3800 4650 3850 5225 
L 4400 4900 
L 4175 4750 
Q 4050 4375 3875 3825 
L 5300 3825 
L 5625 4150 
L 6075 3675 
L 5275 3675 
z
" transform="scale(0.015625)"/>
       <path id="SimSun-6027" d="M 3975 3450 
Q 3975 4800 3950 5200 
L 4575 4925 
L 4325 4750 
L 4325 3450 
L 5050 3450 
L 5400 3800 
L 5900 3300 
L 4325 3300 
L 4325 1925 
L 4975 1925 
L 5300 2250 
L 5775 1775 
L 4325 1775 
L 4325 25 
L 5300 25 
L 5650 375 
L 6150 -125 
L 2875 -125 
Q 2550 -125 2275 -200 
L 2050 25 
L 3975 25 
L 3975 1775 
L 3450 1775 
Q 3125 1775 2850 1700 
L 2625 1925 
L 3975 1925 
L 3975 3300 
L 2950 3300 
Q 2625 2500 2225 2000 
L 2150 2050 
Q 2450 2650 2650 3387 
Q 2850 4125 2900 4600 
L 3475 4325 
L 3250 4175 
L 3000 3450 
L 3975 3450 
z
M 875 3625 
Q 950 2875 900 2687 
Q 850 2500 737 2437 
Q 625 2375 550 2375 
Q 500 2375 412 2412 
Q 325 2450 325 2475 
Q 325 2575 500 2775 
Q 725 3050 775 3625 
L 875 3625 
z
M 1575 3950 
Q 1975 3800 2150 3675 
Q 2325 3550 2300 3350 
Q 2275 3150 2175 3075 
Q 2075 3000 1975 3275 
Q 1850 3550 1575 3825 
L 1575 500 
Q 1575 75 1600 -425 
L 1200 -600 
Q 1225 125 1225 700 
L 1225 4225 
Q 1225 4650 1200 5250 
L 1800 4975 
L 1575 4800 
L 1575 3950 
z
" transform="scale(0.015625)"/>
       <path id="SimSun-5f97" d="M 3725 25 
Q 4475 -125 4575 -75 
Q 4675 -25 4675 150 
L 4675 1400 
L 2825 1400 
Q 2500 1400 2225 1325 
L 2000 1550 
L 4675 1550 
L 4675 2225 
L 3125 2225 
Q 2800 2225 2525 2150 
L 2300 2375 
L 5200 2375 
L 5475 2650 
L 5900 2225 
L 5025 2225 
L 5025 1550 
L 5400 1550 
L 5700 1850 
L 6150 1400 
L 5025 1400 
L 5025 25 
Q 5025 -425 4500 -625 
Q 4475 -375 3725 -75 
L 3725 25 
z
M 2850 1300 
Q 3425 950 3550 762 
Q 3675 575 3625 400 
Q 3575 225 3450 187 
Q 3325 150 3250 475 
Q 3150 800 2800 1225 
L 2850 1300 
z
M 1300 -650 
Q 1325 -25 1325 500 
L 1325 2275 
Q 900 1850 325 1475 
L 275 1575 
Q 675 1925 1112 2450 
Q 1550 2975 1775 3350 
Q 2000 3725 2100 3975 
L 2575 3600 
Q 2350 3425 2200 3250 
Q 2050 3075 1675 2625 
L 1675 -450 
L 1300 -650 
z
M 1875 5225 
L 2325 4850 
Q 2075 4700 1850 4475 
Q 1600 4250 1200 3900 
Q 800 3550 400 3325 
L 350 3400 
Q 925 3900 1287 4350 
Q 1650 4800 1875 5225 
z
M 2775 2600 
Q 2800 3175 2800 3825 
Q 2800 4475 2775 4975 
L 3125 4800 
L 4950 4800 
L 5175 5025 
L 5525 4675 
L 5325 4525 
Q 5325 3275 5350 2800 
L 4975 2625 
L 4975 2900 
L 3125 2900 
L 3125 2750 
L 2775 2600 
z
M 3125 4650 
L 3125 3950 
L 4975 3950 
L 4975 4650 
L 3125 4650 
z
M 3125 3800 
L 3125 3050 
L 4975 3050 
L 4975 3800 
L 3125 3800 
z
" transform="scale(0.015625)"/>
       <path id="SimSun-5206" d="M 2350 5050 
L 2850 4675 
L 2625 4550 
Q 2200 3750 1687 3125 
Q 1175 2500 375 2025 
L 325 2100 
Q 975 2625 1475 3337 
Q 1975 4050 2350 5050 
z
M 4100 4975 
L 3900 4850 
Q 4175 3850 4800 3300 
Q 5425 2750 6125 2625 
L 6125 2550 
Q 5750 2500 5600 2225 
Q 4775 2675 4287 3425 
Q 3800 4175 3625 5175 
L 4100 4975 
z
M 1375 2625 
L 4225 2625 
L 4475 2875 
L 4825 2525 
L 4625 2375 
Q 4575 400 4375 -12 
Q 4175 -425 3675 -600 
Q 3600 -200 2975 -25 
L 2975 75 
Q 3600 -25 3787 -12 
Q 3975 0 4075 275 
Q 4175 550 4275 2475 
L 2975 2475 
Q 2825 1400 2375 662 
Q 1925 -75 650 -625 
L 600 -525 
Q 1725 50 2112 837 
Q 2500 1625 2575 2475 
L 1800 2475 
L 1575 2425 
L 1375 2625 
z
" transform="scale(0.015625)"/>
      </defs>
      <use xlink:href="#SimSun-4e0d"/>
      <use xlink:href="#SimSun-4e00" x="100"/>
      <use xlink:href="#SimSun-81f4" x="200"/>
      <use xlink:href="#SimSun-6027" x="300"/>
      <use xlink:href="#SimSun-5f97" x="400"/>
      <use xlink:href="#SimSun-5206" x="500"/>
     </g>
    </g>
   </g>
   <g id="line2d_27">
    <path d="M 85.218571 256.302715 
L 231.667857 155.521867 
L 378.117143 79.302811 
L 524.566429 44.069755 
" clip-path="url(#p0f21dd793f)" style="fill: none; stroke-dasharray: 7.4,3.2; stroke-dashoffset: 0; stroke: #ff6b6b; stroke-width: 2"/>
    <defs>
     <path id="m921c40a015" d="M 0 4 
C 1.060812 4 2.078319 3.578535 2.828427 2.828427 
C 3.578535 2.078319 4 1.060812 4 0 
C 4 -1.060812 3.578535 -2.078319 2.828427 -2.828427 
C 2.078319 -3.578535 1.060812 -4 0 -4 
C -1.060812 -4 -2.078319 -3.578535 -2.828427 -2.828427 
C -3.578535 -2.078319 -4 -1.060812 -4 0 
C -4 1.060812 -3.578535 2.078319 -2.828427 2.828427 
C -2.078319 3.578535 -1.060812 4 0 4 
z
" style="stroke: #ff6b6b"/>
    </defs>
    <g clip-path="url(#p0f21dd793f)">
     <use xlink:href="#m921c40a015" x="85.218571" y="256.302715" style="fill: #ff6b6b; stroke: #ff6b6b"/>
     <use xlink:href="#m921c40a015" x="231.667857" y="155.521867" style="fill: #ff6b6b; stroke: #ff6b6b"/>
     <use xlink:href="#m921c40a015" x="378.117143" y="79.302811" style="fill: #ff6b6b; stroke: #ff6b6b"/>
     <use xlink:href="#m921c40a015" x="524.566429" y="44.069755" style="fill: #ff6b6b; stroke: #ff6b6b"/>
    </g>
   </g>
   <g id="line2d_28">
    <path d="M 85.218571 275.618299 
L 231.667857 220.115803 
L 378.117143 137.130331 
L 524.566429 66.813259 
" clip-path="url(#p0f21dd793f)" style="fill: none; stroke: #ff6b6b; stroke-width: 2; stroke-linecap: round"/>
    <g clip-path="url(#p0f21dd793f)">
     <use xlink:href="#m921c40a015" x="85.218571" y="275.618299" style="fill: #ff6b6b; stroke: #ff6b6b"/>
     <use xlink:href="#m921c40a015" x="231.667857" y="220.115803" style="fill: #ff6b6b; stroke: #ff6b6b"/>
     <use xlink:href="#m921c40a015" x="378.117143" y="137.130331" style="fill: #ff6b6b; stroke: #ff6b6b"/>
     <use xlink:href="#m921c40a015" x="524.566429" y="66.813259" style="fill: #ff6b6b; stroke: #ff6b6b"/>
    </g>
   </g>
   <g id="line2d_29">
    <path d="M 85.218571 237.762139 
L 231.667857 120.109963 
L 378.117143 89.914459 
L 524.566429 74.056603 
" clip-path="url(#p0f21dd793f)" style="fill: none; stroke-dasharray: 7.4,3.2; stroke-dashoffset: 0; stroke: #4ecdc4; stroke-width: 2"/>
    <defs>
     <path id="m317957b7f3" d="M -4 4 
L 4 4 
L 4 -4 
L -4 -4 
z
" style="stroke: #4ecdc4; stroke-linejoin: miter"/>
    </defs>
    <g clip-path="url(#p0f21dd793f)">
     <use xlink:href="#m317957b7f3" x="85.218571" y="237.762139" style="fill: #4ecdc4; stroke: #4ecdc4; stroke-linejoin: miter"/>
     <use xlink:href="#m317957b7f3" x="231.667857" y="120.109963" style="fill: #4ecdc4; stroke: #4ecdc4; stroke-linejoin: miter"/>
     <use xlink:href="#m317957b7f3" x="378.117143" y="89.914459" style="fill: #4ecdc4; stroke: #4ecdc4; stroke-linejoin: miter"/>
     <use xlink:href="#m317957b7f3" x="524.566429" y="74.056603" style="fill: #4ecdc4; stroke: #4ecdc4; stroke-linejoin: miter"/>
    </g>
   </g>
   <g id="line2d_30">
    <path d="M 85.218571 295.530043 
L 231.667857 268.911499 
L 378.117143 215.048443 
L 524.566429 148.427563 
" clip-path="url(#p0f21dd793f)" style="fill: none; stroke: #4ecdc4; stroke-width: 2; stroke-linecap: round"/>
    <g clip-path="url(#p0f21dd793f)">
     <use xlink:href="#m317957b7f3" x="85.218571" y="295.530043" style="fill: #4ecdc4; stroke: #4ecdc4; stroke-linejoin: miter"/>
     <use xlink:href="#m317957b7f3" x="231.667857" y="268.911499" style="fill: #4ecdc4; stroke: #4ecdc4; stroke-linejoin: miter"/>
     <use xlink:href="#m317957b7f3" x="378.117143" y="215.048443" style="fill: #4ecdc4; stroke: #4ecdc4; stroke-linejoin: miter"/>
     <use xlink:href="#m317957b7f3" x="524.566429" y="148.427563" style="fill: #4ecdc4; stroke: #4ecdc4; stroke-linejoin: miter"/>
    </g>
   </g>
   <g id="line2d_31">
    <path d="M 85.218571 236.182315 
L 231.667857 123.120571 
L 378.117143 78.885499 
L 524.566429 58.794907 
" clip-path="url(#p0f21dd793f)" style="fill: none; stroke-dasharray: 7.4,3.2; stroke-dashoffset: 0; stroke: #45b7d1; stroke-width: 2"/>
    <defs>
     <path id="me60ddf8d9d" d="M 0 -4 
L -4 4 
L 4 4 
z
" style="stroke: #45b7d1; stroke-linejoin: miter"/>
    </defs>
    <g clip-path="url(#p0f21dd793f)">
     <use xlink:href="#me60ddf8d9d" x="85.218571" y="236.182315" style="fill: #45b7d1; stroke: #45b7d1; stroke-linejoin: miter"/>
     <use xlink:href="#me60ddf8d9d" x="231.667857" y="123.120571" style="fill: #45b7d1; stroke: #45b7d1; stroke-linejoin: miter"/>
     <use xlink:href="#me60ddf8d9d" x="378.117143" y="78.885499" style="fill: #45b7d1; stroke: #45b7d1; stroke-linejoin: miter"/>
     <use xlink:href="#me60ddf8d9d" x="524.566429" y="58.794907" style="fill: #45b7d1; stroke: #45b7d1; stroke-linejoin: miter"/>
    </g>
   </g>
   <g id="line2d_32">
    <path d="M 85.218571 299.196427 
L 231.667857 280.327963 
L 378.117143 232.575547 
L 524.566429 137.935147 
" clip-path="url(#p0f21dd793f)" style="fill: none; stroke: #45b7d1; stroke-width: 2; stroke-linecap: round"/>
    <g clip-path="url(#p0f21dd793f)">
     <use xlink:href="#me60ddf8d9d" x="85.218571" y="299.196427" style="fill: #45b7d1; stroke: #45b7d1; stroke-linejoin: miter"/>
     <use xlink:href="#me60ddf8d9d" x="231.667857" y="280.327963" style="fill: #45b7d1; stroke: #45b7d1; stroke-linejoin: miter"/>
     <use xlink:href="#me60ddf8d9d" x="378.117143" y="232.575547" style="fill: #45b7d1; stroke: #45b7d1; stroke-linejoin: miter"/>
     <use xlink:href="#me60ddf8d9d" x="524.566429" y="137.935147" style="fill: #45b7d1; stroke: #45b7d1; stroke-linejoin: miter"/>
    </g>
   </g>
   <g id="line2d_33">
    <path d="M 85.218571 234.453451 
L 231.667857 142.287115 
L 378.117143 93.521227 
L 524.566429 61.656475 
" clip-path="url(#p0f21dd793f)" style="fill: none; stroke-dasharray: 7.4,3.2; stroke-dashoffset: 0; stroke: #ffa07a; stroke-width: 2"/>
    <defs>
     <path id="m5d8326dda3" d="M 0 5.656854 
L 5.656854 0 
L 0 -5.656854 
L -5.656854 0 
z
" style="stroke: #ffa07a; stroke-linejoin: miter"/>
    </defs>
    <g clip-path="url(#p0f21dd793f)">
     <use xlink:href="#m5d8326dda3" x="85.218571" y="234.453451" style="fill: #ffa07a; stroke: #ffa07a; stroke-linejoin: miter"/>
     <use xlink:href="#m5d8326dda3" x="231.667857" y="142.287115" style="fill: #ffa07a; stroke: #ffa07a; stroke-linejoin: miter"/>
     <use xlink:href="#m5d8326dda3" x="378.117143" y="93.521227" style="fill: #ffa07a; stroke: #ffa07a; stroke-linejoin: miter"/>
     <use xlink:href="#m5d8326dda3" x="524.566429" y="61.656475" style="fill: #ffa07a; stroke: #ffa07a; stroke-linejoin: miter"/>
    </g>
   </g>
   <g id="line2d_34">
    <path d="M 85.218571 260.088331 
L 231.667857 182.110603 
L 378.117143 105.563659 
L 524.566429 68.214235 
" clip-path="url(#p0f21dd793f)" style="fill: none; stroke: #ffa07a; stroke-width: 2; stroke-linecap: round"/>
    <g clip-path="url(#p0f21dd793f)">
     <use xlink:href="#m5d8326dda3" x="85.218571" y="260.088331" style="fill: #ffa07a; stroke: #ffa07a; stroke-linejoin: miter"/>
     <use xlink:href="#m5d8326dda3" x="231.667857" y="182.110603" style="fill: #ffa07a; stroke: #ffa07a; stroke-linejoin: miter"/>
     <use xlink:href="#m5d8326dda3" x="378.117143" y="105.563659" style="fill: #ffa07a; stroke: #ffa07a; stroke-linejoin: miter"/>
     <use xlink:href="#m5d8326dda3" x="524.566429" y="68.214235" style="fill: #ffa07a; stroke: #ffa07a; stroke-linejoin: miter"/>
    </g>
   </g>
   <g id="patch_3">
    <path d="M 48.60625 308.854219 
L 48.60625 10.774219 
" style="fill: none; stroke: #262626; stroke-width: 1.25; stroke-linejoin: miter; stroke-linecap: square"/>
   </g>
   <g id="patch_4">
    <path d="M 561.17875 308.854219 
L 561.17875 10.774219 
" style="fill: none; stroke: #262626; stroke-width: 1.25; stroke-linejoin: miter; stroke-linecap: square"/>
   </g>
   <g id="patch_5">
    <path d="M 48.60625 308.854219 
L 561.17875 308.854219 
" style="fill: none; stroke: #262626; stroke-width: 1.25; stroke-linejoin: miter; stroke-linecap: square"/>
   </g>
   <g id="patch_6">
    <path d="M 48.60625 10.774219 
L 561.17875 10.774219 
" style="fill: none; stroke: #262626; stroke-width: 1.25; stroke-linejoin: miter; stroke-linecap: square"/>
   </g>
   <g id="legend_1">
    <g id="patch_7">
     <path d="M 466.37875 302.854219 
L 552.77875 302.854219 
Q 555.17875 302.854219 555.17875 300.454219 
L 555.17875 220.185469 
Q 555.17875 217.785469 552.77875 217.785469 
L 466.37875 217.785469 
Q 463.97875 217.785469 463.97875 220.185469 
L 463.97875 300.454219 
Q 463.97875 302.854219 466.37875 302.854219 
z
" style="fill: #ffffff; opacity: 0.8; stroke: #cccccc; stroke-linejoin: miter"/>
    </g>
    <g id="text_16">
     <!-- 解释器 -->
     <g style="fill: #262626" transform="translate(491.57875 232.007344) scale(0.12 -0.12)">
      <defs>
       <path id="SimSun-89e3" d="M 5700 4550 
Q 5675 3850 5637 3625 
Q 5600 3400 5500 3262 
Q 5400 3125 5075 3025 
Q 5100 3250 4475 3450 
L 4500 3550 
Q 4875 3475 5062 3462 
Q 5250 3450 5300 3625 
Q 5350 3800 5375 4625 
L 4375 4625 
Q 4350 4100 4075 3675 
Q 3800 3250 3075 2900 
L 3000 2975 
Q 3550 3325 3775 3787 
Q 4000 4250 4000 4625 
L 3650 4625 
L 3425 4550 
L 3200 4775 
L 5350 4775 
L 5550 5000 
L 5900 4700 
L 5700 4550 
z
M 4400 -625 
Q 4425 -100 4425 975 
L 3775 975 
Q 3450 975 3175 900 
L 2950 1125 
L 4425 1125 
L 4425 2025 
L 3750 2025 
Q 3400 1525 3100 1275 
L 3050 1325 
Q 3300 1700 3487 2200 
Q 3675 2700 3725 3000 
L 4200 2700 
L 3975 2575 
L 3800 2175 
L 4425 2175 
Q 4425 2825 4400 3175 
L 4950 2900 
L 4750 2750 
L 4750 2175 
L 5200 2175 
L 5475 2450 
L 5875 2025 
L 4750 2025 
L 4750 1125 
L 5450 1125 
L 5750 1425 
L 6175 975 
L 4750 975 
Q 4750 -50 4775 -450 
L 4400 -625 
z
M 1475 5200 
L 1975 4875 
L 1750 4775 
Q 1600 4525 1500 4275 
L 2175 4275 
L 2400 4500 
L 2775 4125 
Q 2550 4025 2437 3912 
Q 2325 3800 1975 3375 
L 2525 3375 
L 2750 3600 
L 3075 3275 
L 2875 3125 
L 2875 -200 
Q 2875 -325 2800 -425 
Q 2725 -525 2500 -625 
Q 2500 -425 2075 -250 
L 2075 -150 
Q 2375 -200 2475 -200 
Q 2575 -200 2575 -75 
L 2575 1300 
L 2000 1300 
Q 2000 400 2025 -50 
L 1675 -250 
Q 1700 250 1700 1300 
L 1125 1300 
Q 1075 150 275 -625 
L 225 -550 
Q 575 -50 687 412 
Q 800 875 812 1137 
Q 825 1400 825 3250 
Q 600 3000 350 2775 
L 300 2850 
Q 850 3550 1112 4162 
Q 1375 4775 1475 5200 
z
M 1125 2275 
L 1125 1450 
L 1700 1450 
L 1700 2275 
L 1125 2275 
z
M 1125 3225 
L 1125 2425 
L 1700 2425 
L 1700 3225 
L 1125 3225 
z
M 2000 3225 
L 2000 2425 
L 2575 2425 
L 2575 3225 
L 2000 3225 
z
M 2000 2275 
L 2000 1450 
L 2575 1450 
L 2575 2275 
L 2000 2275 
z
M 1450 4125 
Q 1275 3825 1050 3475 
L 1175 3375 
L 1850 3375 
L 2200 4125 
L 1450 4125 
z
" transform="scale(0.015625)"/>
       <path id="SimSun-91ca" d="M 2825 4750 
L 4900 4750 
L 5075 4975 
L 5500 4625 
L 5275 4500 
Q 4800 3750 4375 3300 
Q 5075 2775 6075 2750 
L 6075 2650 
Q 5625 2600 5550 2350 
Q 4800 2600 4175 3125 
Q 3475 2550 2475 2225 
L 2450 2300 
Q 3400 2775 3950 3300 
Q 3525 3850 3300 4625 
L 3025 4550 
L 2825 4750 
z
M 3400 4600 
Q 3700 3925 4150 3475 
Q 4675 4075 4925 4600 
L 3400 4600 
z
M 3950 -600 
Q 3975 25 3975 850 
L 3275 850 
Q 2950 850 2675 775 
L 2450 1000 
L 3975 1000 
L 3975 1725 
L 3650 1725 
Q 3325 1725 3050 1650 
L 2825 1875 
L 3975 1875 
Q 3975 2325 3950 2725 
L 4475 2475 
L 4300 2350 
L 4300 1875 
L 4850 1875 
L 5150 2175 
L 5575 1725 
L 4300 1725 
L 4300 1000 
L 5300 1000 
L 5600 1300 
L 6025 850 
L 4300 850 
Q 4300 -100 4325 -425 
L 3950 -600 
z
M 1850 2200 
Q 1850 425 1875 -475 
L 1500 -650 
Q 1525 525 1525 2100 
Q 1025 1200 275 475 
L 225 550 
Q 1150 1775 1425 2775 
L 1125 2775 
Q 800 2775 525 2700 
L 300 2925 
L 1525 2925 
L 1525 4450 
Q 950 4375 400 4325 
L 400 4425 
Q 1075 4525 1612 4687 
Q 2150 4850 2400 5050 
L 2750 4625 
Q 2475 4650 1850 4500 
L 1850 3275 
Q 2225 3925 2350 4275 
L 2775 3950 
Q 2600 3925 2400 3700 
Q 2200 3475 1850 3100 
L 1850 2925 
L 2400 2925 
L 2675 3225 
L 3075 2775 
L 1850 2775 
L 1850 2325 
Q 2250 2175 2425 2037 
Q 2600 1900 2600 1750 
Q 2600 1650 2550 1525 
Q 2500 1400 2450 1400 
Q 2400 1400 2300 1600 
Q 2150 1925 1850 2200 
z
M 600 4050 
L 650 4100 
Q 1050 3825 1137 3687 
Q 1225 3550 1225 3475 
Q 1225 3350 1125 3237 
Q 1025 3125 975 3125 
Q 900 3125 875 3325 
Q 825 3625 600 4050 
z
" transform="scale(0.015625)"/>
       <path id="SimSun-5668" d="M 1475 4625 
L 1475 3650 
L 2475 3650 
L 2475 4625 
L 1475 4625 
z
M 1125 3075 
Q 1150 3575 1150 4062 
Q 1150 4550 1125 5000 
L 1475 4775 
L 2450 4775 
L 2625 5000 
L 3025 4675 
L 2800 4525 
Q 2800 3625 2825 3350 
L 2475 3200 
L 2475 3500 
L 1475 3500 
L 1475 3250 
L 1125 3075 
z
M 5250 1200 
Q 5250 150 5275 -225 
L 4900 -375 
L 4900 25 
L 3775 25 
L 3775 -350 
L 3425 -475 
Q 3450 50 3450 562 
Q 3450 1075 3425 1550 
L 3775 1375 
L 4825 1375 
L 4875 1425 
Q 4025 1900 3600 2525 
L 2850 2525 
Q 2200 1750 1425 1375 
L 2475 1375 
L 2650 1600 
L 3025 1300 
L 2850 1150 
Q 2850 100 2875 -225 
L 2525 -350 
L 2525 25 
L 1550 25 
L 1550 -300 
L 1200 -425 
Q 1225 0 1225 475 
Q 1225 950 1225 1275 
Q 725 1100 275 1000 
L 250 1075 
Q 950 1325 1475 1662 
Q 2000 2000 2450 2525 
L 1250 2525 
Q 925 2525 650 2450 
L 425 2675 
L 2525 2675 
Q 2750 3025 2925 3400 
L 3400 3075 
Q 3150 2975 2925 2675 
L 4500 2675 
Q 4375 3025 4000 3275 
L 4050 3350 
Q 4525 3225 4650 3125 
Q 4775 3025 4775 2950 
Q 4775 2825 4650 2675 
L 5150 2675 
L 5500 3025 
L 6000 2525 
L 3750 2525 
Q 4175 2125 4737 1850 
Q 5300 1575 6125 1550 
L 6125 1450 
Q 5725 1400 5650 1100 
L 5275 1225 
L 5250 1200 
z
M 1550 1225 
L 1550 175 
L 2525 175 
L 2525 1225 
L 1550 1225 
z
M 3775 1225 
L 3775 175 
L 4900 175 
L 4900 1225 
L 3775 1225 
z
M 3925 4625 
L 3925 3650 
L 4900 3650 
L 4900 4625 
L 3925 4625 
z
M 3575 3200 
Q 3600 3650 3600 4112 
Q 3600 4575 3575 5000 
L 3925 4775 
L 4875 4775 
L 5050 5000 
L 5425 4700 
L 5225 4525 
Q 5225 3700 5250 3375 
L 4900 3250 
L 4900 3500 
L 3925 3500 
L 3925 3325 
L 3575 3200 
z
" transform="scale(0.015625)"/>
      </defs>
      <use xlink:href="#SimSun-89e3"/>
      <use xlink:href="#SimSun-91ca" x="100"/>
      <use xlink:href="#SimSun-5668" x="200"/>
     </g>
    </g>
    <g id="line2d_35">
     <path d="M 468.77875 243.932344 
L 480.77875 243.932344 
L 492.77875 243.932344 
" style="fill: none; stroke: #ff6b6b; stroke-width: 2; stroke-linecap: round"/>
     <g>
      <use xlink:href="#m921c40a015" x="480.77875" y="243.932344" style="fill: #ff6b6b; stroke: #ff6b6b"/>
     </g>
    </g>
    <g id="text_17">
     <!-- LIME -->
     <g style="fill: #262626" transform="translate(502.37875 248.132344) scale(0.12 -0.12)">
      <defs>
       <path id="SimSun-4c" d="M 1000 450 
Q 1000 350 1062 300 
Q 1125 250 1225 250 
L 1900 250 
Q 2250 250 2500 462 
Q 2750 675 2875 1125 
L 3000 1075 
L 2775 100 
L 200 100 
L 200 250 
L 375 250 
Q 500 250 550 300 
Q 600 350 600 450 
L 600 4025 
Q 600 4125 550 4175 
Q 500 4225 375 4225 
L 225 4225 
L 225 4375 
L 1400 4375 
L 1400 4225 
L 1225 4225 
Q 1125 4225 1062 4175 
Q 1000 4125 1000 4025 
L 1000 450 
z
" transform="scale(0.015625)"/>
       <path id="SimSun-49" d="M 600 4225 
L 600 4375 
L 2600 4375 
L 2600 4225 
L 2025 4225 
Q 1925 4225 1862 4175 
Q 1800 4125 1800 4025 
L 1800 450 
Q 1800 350 1862 300 
Q 1925 250 2025 250 
L 2600 250 
L 2600 100 
L 600 100 
L 600 250 
L 1175 250 
Q 1300 250 1350 300 
Q 1400 350 1400 450 
L 1400 4025 
Q 1400 4125 1350 4175 
Q 1300 4225 1175 4225 
L 600 4225 
z
" transform="scale(0.015625)"/>
       <path id="SimSun-4d" d="M 2800 450 
Q 2800 350 2862 300 
Q 2925 250 3025 250 
L 3125 250 
L 3125 100 
L 2050 100 
L 2050 250 
L 2175 250 
Q 2300 250 2350 300 
Q 2400 350 2400 450 
L 2400 3725 
L 2350 3725 
L 1500 100 
L 1350 100 
L 575 3650 
L 525 3650 
L 525 450 
Q 525 350 587 300 
Q 650 250 750 250 
L 825 250 
L 825 100 
L 75 100 
L 75 250 
L 150 250 
Q 275 250 325 300 
Q 375 350 375 450 
L 375 4025 
Q 375 4125 325 4175 
Q 275 4225 150 4225 
L 50 4225 
L 50 4375 
L 775 4375 
L 1500 1025 
L 1550 1025 
L 2325 4375 
L 3125 4375 
L 3125 4225 
L 3025 4225 
Q 2925 4225 2862 4175 
Q 2800 4125 2800 4025 
L 2800 450 
z
" transform="scale(0.015625)"/>
       <path id="SimSun-45" d="M 200 4225 
L 200 4375 
L 2650 4375 
L 2925 3525 
L 2800 3475 
Q 2600 3850 2375 4037 
Q 2150 4225 1875 4225 
L 1175 4225 
Q 1075 4225 1012 4175 
Q 950 4125 950 4025 
L 950 2475 
L 1675 2475 
Q 1925 2475 2037 2600 
Q 2150 2725 2150 2975 
L 2150 3125 
L 2300 3125 
L 2300 1650 
L 2150 1650 
L 2150 1750 
Q 2150 2025 2037 2175 
Q 1925 2325 1675 2325 
L 950 2325 
L 950 450 
Q 950 350 1012 300 
Q 1075 250 1175 250 
L 1825 250 
Q 2200 250 2462 462 
Q 2725 675 2875 1125 
L 3000 1075 
L 2725 100 
L 175 100 
L 175 250 
L 325 250 
Q 450 250 500 300 
Q 550 350 550 450 
L 550 4025 
Q 550 4125 500 4175 
Q 450 4225 325 4225 
L 200 4225 
z
" transform="scale(0.015625)"/>
      </defs>
      <use xlink:href="#SimSun-4c"/>
      <use xlink:href="#SimSun-49" x="50"/>
      <use xlink:href="#SimSun-4d" x="100"/>
      <use xlink:href="#SimSun-45" x="150"/>
     </g>
    </g>
    <g id="line2d_36">
     <path d="M 468.77875 260.057344 
L 480.77875 260.057344 
L 492.77875 260.057344 
" style="fill: none; stroke: #4ecdc4; stroke-width: 2; stroke-linecap: round"/>
     <g>
      <use xlink:href="#m317957b7f3" x="480.77875" y="260.057344" style="fill: #4ecdc4; stroke: #4ecdc4; stroke-linejoin: miter"/>
     </g>
    </g>
    <g id="text_18">
     <!-- SHAP -->
     <g style="fill: #262626" transform="translate(502.37875 264.257344) scale(0.12 -0.12)">
      <defs>
       <path id="SimSun-53" d="M 1500 2150 
Q 825 2450 575 2675 
Q 325 2900 325 3375 
Q 325 3750 637 4087 
Q 950 4425 1525 4425 
Q 1775 4425 2000 4350 
Q 2225 4250 2325 4250 
Q 2400 4250 2462 4287 
Q 2525 4325 2575 4425 
L 2675 3400 
L 2550 3350 
Q 2325 3875 2087 4062 
Q 1850 4250 1475 4250 
Q 1000 4250 825 3987 
Q 650 3725 650 3425 
Q 650 3150 812 2987 
Q 975 2825 1700 2500 
Q 2300 2250 2562 1937 
Q 2825 1625 2825 1200 
Q 2825 750 2512 400 
Q 2200 50 1600 50 
Q 1350 50 1150 150 
Q 925 225 800 225 
Q 725 225 650 175 
Q 575 125 475 50 
L 275 1275 
L 425 1325 
Q 600 700 912 462 
Q 1225 225 1625 225 
Q 2050 225 2262 475 
Q 2475 725 2475 1200 
Q 2475 1450 2237 1687 
Q 2000 1925 1500 2150 
z
" transform="scale(0.015625)"/>
       <path id="SimSun-48" d="M 2725 450 
Q 2725 350 2787 300 
Q 2850 250 2950 250 
L 3075 250 
L 3075 100 
L 1975 100 
L 1975 250 
L 2100 250 
Q 2225 250 2275 300 
Q 2325 350 2325 450 
L 2325 2275 
L 850 2275 
L 850 450 
Q 850 350 912 300 
Q 975 250 1075 250 
L 1200 250 
L 1200 100 
L 100 100 
L 100 250 
L 225 250 
Q 350 250 400 300 
Q 450 350 450 450 
L 450 4025 
Q 450 4125 400 4175 
Q 350 4225 225 4225 
L 125 4225 
L 125 4375 
L 1175 4375 
L 1175 4225 
L 1075 4225 
Q 975 4225 912 4175 
Q 850 4125 850 4025 
L 850 2425 
L 2325 2425 
L 2325 4025 
Q 2325 4125 2275 4175 
Q 2225 4225 2100 4225 
L 2000 4225 
L 2000 4375 
L 3050 4375 
L 3050 4225 
L 2950 4225 
Q 2850 4225 2787 4175 
Q 2725 4125 2725 4025 
L 2725 450 
z
" transform="scale(0.015625)"/>
       <path id="SimSun-41" d="M 2025 1700 
L 900 1700 
L 675 750 
Q 650 625 650 550 
Q 650 450 687 350 
Q 725 250 900 250 
L 975 250 
L 975 100 
L 50 100 
L 50 250 
L 125 250 
Q 225 250 300 312 
Q 375 375 400 525 
L 1375 4350 
L 1750 4475 
L 2700 525 
Q 2750 375 2825 312 
Q 2900 250 3000 250 
L 3075 250 
L 3075 100 
L 2000 100 
L 2000 250 
L 2100 250 
Q 2250 250 2275 312 
Q 2300 375 2300 425 
Q 2300 525 2275 600 
L 2025 1700 
z
M 325 250 
L 325 250 
z
M 575 250 
L 575 250 
z
M 2350 250 
L 2350 250 
z
M 2775 250 
L 2775 250 
z
M 1500 3925 
L 1475 3925 
L 950 1850 
L 2000 1850 
L 1500 3925 
z
" transform="scale(0.015625)"/>
       <path id="SimSun-50" d="M 950 2100 
L 950 450 
Q 950 350 1012 300 
Q 1075 250 1175 250 
L 1350 250 
L 1350 100 
L 150 100 
L 150 250 
L 325 250 
Q 450 250 500 300 
Q 550 350 550 450 
L 550 4025 
Q 550 4125 500 4175 
Q 450 4225 325 4225 
L 175 4225 
L 175 4375 
L 1650 4375 
Q 2275 4375 2612 4062 
Q 2950 3750 2950 3275 
Q 2950 2700 2587 2400 
Q 2225 2100 1725 2100 
L 950 2100 
z
M 1575 2250 
Q 1950 2250 2237 2475 
Q 2525 2700 2525 3250 
Q 2525 3750 2287 3987 
Q 2050 4225 1525 4225 
L 1175 4225 
Q 1075 4225 1012 4175 
Q 950 4125 950 4025 
L 950 2250 
L 1575 2250 
z
" transform="scale(0.015625)"/>
      </defs>
      <use xlink:href="#SimSun-53"/>
      <use xlink:href="#SimSun-48" x="50"/>
      <use xlink:href="#SimSun-41" x="100"/>
      <use xlink:href="#SimSun-50" x="150"/>
     </g>
    </g>
    <g id="line2d_37">
     <path d="M 468.77875 276.182344 
L 480.77875 276.182344 
L 492.77875 276.182344 
" style="fill: none; stroke: #45b7d1; stroke-width: 2; stroke-linecap: round"/>
     <g>
      <use xlink:href="#me60ddf8d9d" x="480.77875" y="276.182344" style="fill: #45b7d1; stroke: #45b7d1; stroke-linejoin: miter"/>
     </g>
    </g>
    <g id="text_19">
     <!-- Grad-CAM -->
     <g style="fill: #262626" transform="translate(502.37875 280.382344) scale(0.12 -0.12)">
      <defs>
       <path id="SimSun-47" d="M 1625 4250 
Q 1250 4250 937 3737 
Q 625 3225 625 2175 
Q 625 1475 862 850 
Q 1100 225 1650 225 
Q 1925 225 2087 337 
Q 2250 450 2275 675 
L 2275 1525 
Q 2275 1675 2200 1750 
Q 2125 1825 1975 1825 
L 1825 1825 
L 1825 1975 
L 3075 1975 
L 3075 1825 
L 2950 1825 
Q 2825 1825 2750 1750 
Q 2675 1675 2675 1550 
L 2675 300 
Q 2625 325 2587 337 
Q 2550 350 2500 350 
Q 2450 350 2400 337 
Q 2350 325 2300 275 
Q 2150 150 1987 100 
Q 1825 50 1625 50 
Q 875 50 525 712 
Q 175 1375 175 2175 
Q 175 3100 587 3762 
Q 1000 4425 1625 4425 
Q 1775 4425 1975 4350 
Q 2175 4275 2225 4275 
Q 2300 4275 2375 4312 
Q 2450 4350 2500 4425 
L 2700 3300 
L 2550 3250 
Q 2400 3775 2175 4012 
Q 1950 4250 1625 4250 
z
" transform="scale(0.015625)"/>
       <path id="SimSun-72" d="M 1275 2125 
Q 1525 2525 1812 2737 
Q 2100 2950 2400 2950 
Q 2650 2950 2787 2837 
Q 2925 2725 2925 2575 
Q 2925 2450 2862 2375 
Q 2800 2300 2675 2300 
Q 2550 2300 2487 2375 
Q 2425 2450 2450 2575 
Q 2450 2650 2425 2700 
Q 2400 2750 2275 2750 
Q 2075 2750 1787 2500 
Q 1500 2250 1275 1800 
L 1275 450 
Q 1275 350 1337 300 
Q 1400 250 1500 250 
L 2050 250 
L 2050 100 
L 200 100 
L 200 250 
L 700 250 
Q 825 250 875 300 
Q 925 350 925 450 
L 925 2525 
Q 925 2625 875 2687 
Q 825 2750 700 2750 
L 225 2750 
L 225 2900 
L 425 2900 
Q 600 2900 837 2937 
Q 1075 2975 1200 3025 
L 1275 3025 
L 1275 2125 
z
" transform="scale(0.015625)"/>
       <path id="SimSun-61" d="M 1225 75 
Q 775 75 525 287 
Q 275 500 275 775 
Q 275 1225 662 1512 
Q 1050 1800 2200 1925 
L 2200 2225 
Q 2200 2475 2087 2637 
Q 1975 2800 1575 2800 
Q 1150 2800 975 2662 
Q 800 2525 850 2375 
Q 875 2325 875 2275 
Q 875 2225 837 2150 
Q 800 2075 650 2075 
Q 550 2075 487 2137 
Q 425 2200 425 2325 
Q 425 2550 750 2750 
Q 1075 2950 1550 2950 
Q 2050 2950 2300 2762 
Q 2550 2575 2550 2225 
L 2550 575 
Q 2550 375 2587 337 
Q 2625 300 2725 300 
Q 2850 300 2900 412 
Q 2950 525 2950 725 
L 3075 725 
Q 3075 375 2950 237 
Q 2825 100 2625 100 
Q 2450 100 2350 175 
Q 2250 250 2200 425 
Q 1950 250 1737 162 
Q 1525 75 1225 75 
z
M 700 850 
Q 700 625 837 437 
Q 975 250 1275 250 
Q 1500 250 1725 337 
Q 1950 425 2200 600 
L 2200 1775 
Q 1350 1675 1025 1437 
Q 700 1200 700 850 
z
" transform="scale(0.015625)"/>
       <path id="SimSun-64" d="M 2300 2350 
Q 2175 2550 1975 2637 
Q 1775 2725 1575 2725 
Q 1200 2725 987 2375 
Q 775 2025 775 1450 
Q 775 850 975 562 
Q 1175 275 1550 275 
Q 1825 275 2012 450 
Q 2200 625 2300 975 
L 2300 2350 
z
M 1475 75 
Q 1025 75 700 437 
Q 375 800 375 1500 
Q 375 2150 725 2537 
Q 1075 2925 1550 2925 
Q 1750 2925 1962 2837 
Q 2175 2750 2300 2575 
L 2300 3925 
Q 2300 4075 2250 4150 
Q 2200 4225 2075 4225 
L 1875 4225 
L 1875 4375 
L 2150 4375 
Q 2275 4375 2400 4425 
Q 2525 4475 2650 4575 
L 2650 625 
Q 2650 500 2700 450 
Q 2750 400 2850 400 
L 3025 400 
L 3025 250 
L 2875 250 
Q 2775 250 2637 212 
Q 2500 175 2350 100 
L 2300 100 
L 2300 575 
Q 2175 350 1962 212 
Q 1750 75 1475 75 
z
" transform="scale(0.015625)"/>
       <path id="SimSun-2d" d="M 200 2225 
L 200 2450 
L 2975 2450 
L 2975 2225 
L 200 2225 
z
" transform="scale(0.015625)"/>
       <path id="SimSun-43" d="M 1725 50 
Q 1025 50 612 575 
Q 200 1100 200 2225 
Q 200 3175 637 3800 
Q 1075 4425 1825 4425 
Q 2000 4425 2175 4375 
Q 2350 4300 2475 4300 
Q 2575 4300 2637 4325 
Q 2700 4350 2750 4425 
L 2975 3325 
L 2825 3275 
Q 2675 3750 2425 4000 
Q 2175 4250 1775 4250 
Q 1250 4250 962 3675 
Q 675 3100 675 2250 
Q 675 1325 925 800 
Q 1175 275 1750 275 
Q 2150 275 2437 562 
Q 2725 850 2825 1325 
L 2975 1250 
Q 2850 725 2512 387 
Q 2175 50 1725 50 
z
" transform="scale(0.015625)"/>
      </defs>
      <use xlink:href="#SimSun-47"/>
      <use xlink:href="#SimSun-72" x="50"/>
      <use xlink:href="#SimSun-61" x="100"/>
      <use xlink:href="#SimSun-64" x="150"/>
      <use xlink:href="#SimSun-2d" x="200"/>
      <use xlink:href="#SimSun-43" x="250"/>
      <use xlink:href="#SimSun-41" x="300"/>
      <use xlink:href="#SimSun-4d" x="350"/>
     </g>
    </g>
    <g id="line2d_38">
     <path d="M 468.77875 292.307344 
L 480.77875 292.307344 
L 492.77875 292.307344 
" style="fill: none; stroke: #ffa07a; stroke-width: 2; stroke-linecap: round"/>
     <g>
      <use xlink:href="#m5d8326dda3" x="480.77875" y="292.307344" style="fill: #ffa07a; stroke: #ffa07a; stroke-linejoin: miter"/>
     </g>
    </g>
    <g id="text_20">
     <!-- IG -->
     <g style="fill: #262626" transform="translate(502.37875 296.507344) scale(0.12 -0.12)">
      <use xlink:href="#SimSun-49"/>
      <use xlink:href="#SimSun-47" x="50"/>
     </g>
    </g>
   </g>
   <g id="legend_2">
    <g id="patch_8">
     <path d="M 57.00625 71.702344 
L 227.40625 71.702344 
Q 229.80625 71.702344 229.80625 69.302344 
L 229.80625 19.174219 
Q 229.80625 16.774219 227.40625 16.774219 
L 57.00625 16.774219 
Q 54.60625 16.774219 54.60625 19.174219 
L 54.60625 69.302344 
Q 54.60625 71.702344 57.00625 71.702344 
z
" style="fill: #ffffff; opacity: 0.8; stroke: #cccccc; stroke-linejoin: miter"/>
    </g>
    <g id="text_21">
     <!-- 丢弃策略 -->
     <g style="fill: #262626" transform="translate(118.20625 31.136719) scale(0.12 -0.12)">
      <defs>
       <path id="SimSun-7b56" d="M 1700 5225 
L 2150 4900 
L 2000 4800 
Q 1775 4525 1675 4400 
L 2775 4400 
L 3050 4675 
L 3450 4250 
L 2075 4250 
Q 2275 4125 2425 3962 
Q 2575 3800 2562 3650 
Q 2550 3500 2475 3450 
Q 2400 3400 2350 3400 
Q 2275 3400 2250 3550 
Q 2200 3775 2125 3937 
Q 2050 4100 1925 4250 
L 1600 4250 
Q 1375 4000 1137 3775 
Q 900 3550 525 3300 
L 475 3375 
Q 925 3800 1237 4300 
Q 1550 4800 1700 5225 
z
M 3975 5200 
L 4425 4875 
L 4275 4800 
Q 4075 4550 3950 4400 
L 5200 4400 
L 5500 4700 
L 5925 4250 
L 4325 4250 
Q 4600 4100 4750 3950 
Q 4900 3800 4850 3637 
Q 4800 3475 4687 3400 
Q 4575 3325 4550 3525 
Q 4500 3725 4425 3887 
Q 4350 4050 4200 4250 
L 3875 4250 
Q 3625 3975 3225 3675 
L 3175 3750 
Q 3475 4100 3687 4512 
Q 3900 4925 3975 5200 
z
M 3100 3075 
Q 3100 3425 3075 3650 
L 3600 3425 
L 3425 3250 
L 3425 3075 
L 5125 3075 
L 5525 3450 
L 6025 2925 
L 3425 2925 
L 3425 2375 
L 4750 2375 
L 5000 2625 
L 5325 2300 
L 5125 2150 
L 5125 1450 
Q 5125 1200 5050 1087 
Q 4975 975 4700 850 
Q 4550 1175 4050 1300 
L 4050 1400 
Q 4425 1350 4525 1350 
Q 4600 1325 4700 1337 
Q 4800 1350 4800 1525 
L 4800 2225 
L 3425 2225 
L 3425 1625 
Q 3900 1025 4375 700 
Q 4850 375 5237 250 
Q 5625 125 6125 75 
L 6125 0 
Q 5700 -100 5625 -350 
Q 5250 -225 4875 12 
Q 4500 250 4162 550 
Q 3825 850 3425 1425 
L 3425 100 
Q 3425 -175 3450 -450 
L 3075 -625 
Q 3100 75 3100 375 
L 3100 1275 
Q 2575 700 1825 237 
Q 1075 -225 325 -500 
L 300 -400 
Q 1175 25 1875 550 
Q 2575 1075 3100 1775 
L 3100 2225 
L 1700 2225 
L 1700 950 
L 1350 800 
Q 1375 1225 1375 1687 
Q 1375 2150 1350 2550 
L 1700 2375 
L 3100 2375 
L 3100 2925 
L 1300 2925 
Q 975 2925 700 2850 
L 475 3075 
L 3100 3075 
z
" transform="scale(0.015625)"/>
       <path id="SimSun-7565" d="M 850 4075 
L 850 2600 
L 1350 2600 
L 1350 4075 
L 850 4075 
z
M 1650 4075 
L 1650 2600 
L 2150 2600 
L 2150 4075 
L 1650 4075 
z
M 850 2450 
L 850 900 
L 1350 900 
L 1350 2450 
L 850 2450 
z
M 1650 2450 
L 1650 900 
L 2150 900 
L 2150 2450 
L 1650 2450 
z
M 525 175 
Q 550 1075 550 2337 
Q 550 3600 525 4450 
L 850 4225 
L 2125 4225 
L 2300 4450 
L 2650 4150 
L 2450 3975 
L 2450 1650 
Q 2450 975 2475 500 
L 2150 400 
L 2150 750 
L 850 750 
L 850 325 
L 525 175 
z
M 3850 4825 
L 3625 4350 
L 4950 4350 
L 5150 4575 
L 5550 4200 
L 5300 4075 
Q 4750 3225 4450 2875 
Q 5100 2225 6125 2050 
L 6125 1975 
Q 5750 1925 5700 1650 
Q 4825 2025 4275 2650 
Q 3700 2075 3150 1750 
L 3400 1525 
L 4975 1525 
L 5150 1750 
L 5525 1450 
L 5350 1300 
Q 5350 100 5375 -400 
L 5025 -525 
L 5025 -150 
L 3400 -150 
L 3400 -475 
L 3050 -600 
Q 3075 0 3075 1700 
L 2500 1450 
L 2475 1525 
Q 3450 2100 4100 2875 
Q 3700 3525 3550 4150 
Q 3225 3525 2750 3000 
L 2675 3050 
Q 2950 3450 3187 4075 
Q 3425 4700 3550 5225 
L 4075 4950 
L 3850 4825 
z
M 3400 1375 
L 3400 0 
L 5025 0 
L 5025 1375 
L 3400 1375 
z
M 3625 4200 
Q 3875 3550 4275 3100 
Q 4650 3600 4950 4200 
L 3625 4200 
z
" transform="scale(0.015625)"/>
      </defs>
      <use xlink:href="#SimSun-4e22"/>
      <use xlink:href="#SimSun-5f03" x="100"/>
      <use xlink:href="#SimSun-7b56" x="200"/>
      <use xlink:href="#SimSun-7565" x="300"/>
     </g>
    </g>
    <g id="line2d_39">
     <path d="M 59.40625 44.046094 
L 71.40625 44.046094 
L 83.40625 44.046094 
" style="fill: none; stroke-dasharray: 7.4,3.2; stroke-dashoffset: 0; stroke: #000000; stroke-width: 2"/>
    </g>
    <g id="text_22">
     <!-- 丢弃推测信息性最强特征 -->
     <g style="fill: #262626" transform="translate(93.00625 48.246094) scale(0.12 -0.12)">
      <defs>
       <path id="SimSun-63a8" d="M 2925 -550 
Q 2950 150 2950 3125 
Q 2750 2725 2325 2100 
L 2250 2150 
Q 2725 3075 2962 3912 
Q 3200 4750 3250 5200 
L 3825 4900 
L 3625 4775 
Q 3450 4300 3300 3975 
L 5350 3975 
L 5650 4275 
L 6100 3825 
L 4575 3825 
L 4575 2750 
L 5175 2750 
L 5450 3025 
L 5875 2600 
L 4575 2600 
L 4575 1475 
L 5225 1475 
L 5525 1775 
L 5975 1325 
L 4575 1325 
L 4575 150 
L 5325 150 
L 5650 475 
L 6125 0 
L 3275 0 
L 3275 -400 
L 2925 -550 
z
M 4250 3825 
L 3275 3825 
L 3275 2750 
L 4250 2750 
L 4250 3825 
z
M 3275 2600 
L 3275 1475 
L 4250 1475 
L 4250 2600 
L 3275 2600 
z
M 3275 1325 
L 3275 150 
L 4250 150 
L 4250 1325 
L 3275 1325 
z
M 4100 5100 
Q 4775 4700 4825 4512 
Q 4875 4325 4775 4212 
Q 4675 4100 4600 4100 
Q 4525 4100 4450 4325 
Q 4350 4650 4025 5050 
L 4100 5100 
z
M 525 50 
Q 1125 -25 1250 -12 
Q 1375 0 1375 250 
L 1375 2150 
Q 1000 1900 725 1675 
L 575 1475 
L 250 1900 
Q 600 2025 1375 2400 
L 1375 3625 
L 775 3625 
L 500 3575 
L 300 3775 
L 1375 3775 
Q 1375 4625 1350 5200 
L 1950 4925 
L 1700 4750 
L 1700 3775 
L 2050 3775 
L 2325 4050 
L 2750 3625 
L 1700 3625 
L 1700 2550 
L 2450 2925 
L 2500 2850 
L 1700 2325 
L 1700 75 
Q 1675 -400 1200 -550 
Q 1225 -275 525 -50 
L 525 50 
z
" transform="scale(0.015625)"/>
       <path id="SimSun-6d4b" d="M 1975 1000 
Q 2000 1475 2000 2925 
Q 2000 4375 1975 5000 
L 2350 4775 
L 3575 4775 
L 3775 4975 
L 4100 4650 
L 3900 4500 
L 3900 2350 
Q 3900 1850 3925 1350 
L 3600 1200 
L 3600 4625 
L 2325 4625 
L 2325 1150 
L 1975 1000 
z
M 2775 3975 
L 3300 3700 
L 3125 3525 
Q 3150 1825 2875 937 
Q 2600 50 1375 -600 
L 1325 -500 
Q 2200 100 2475 725 
Q 2750 1350 2775 2187 
Q 2800 3025 2775 3975 
z
M 3100 950 
Q 3825 450 3937 262 
Q 4050 75 4050 -25 
Q 4050 -150 3975 -262 
Q 3900 -375 3850 -375 
Q 3750 -375 3650 -75 
Q 3500 375 3050 875 
L 3100 950 
z
M 4475 825 
Q 4500 1200 4500 1700 
L 4500 3400 
Q 4500 3950 4475 4300 
L 5025 4025 
L 4825 3825 
L 4825 1700 
Q 4825 1325 4850 950 
L 4475 825 
z
M 5375 150 
L 5375 4050 
Q 5375 4750 5350 5125 
L 5875 4875 
L 5700 4700 
L 5700 75 
Q 5700 -200 5600 -350 
Q 5500 -500 5200 -600 
Q 5025 -225 4450 -50 
L 4450 50 
Q 5125 -50 5250 -37 
Q 5375 -25 5375 150 
z
M 1850 3500 
Q 1375 1525 1300 1225 
Q 1200 900 1212 450 
Q 1225 0 1250 -175 
Q 1250 -275 1125 -275 
Q 1025 -275 875 -225 
Q 725 -175 725 0 
Q 725 125 800 375 
Q 875 625 875 775 
Q 875 950 762 1050 
Q 650 1150 275 1250 
L 275 1350 
Q 725 1300 837 1312 
Q 950 1325 1087 1537 
Q 1225 1750 1750 3525 
L 1850 3500 
z
M 375 3775 
Q 1075 3350 1112 3100 
Q 1150 2850 1050 2775 
Q 950 2700 900 2700 
Q 800 2700 725 2975 
Q 600 3350 325 3700 
L 375 3775 
z
M 800 5100 
Q 1475 4725 1550 4512 
Q 1625 4300 1525 4187 
Q 1425 4075 1350 4075 
Q 1275 4075 1200 4300 
Q 1075 4650 750 5025 
L 800 5100 
z
" transform="scale(0.015625)"/>
       <path id="SimSun-4fe1" d="M 3425 5125 
L 3500 5200 
Q 4000 4900 4125 4737 
Q 4250 4575 4250 4500 
Q 4250 4350 4050 4150 
L 5200 4150 
L 5500 4450 
L 5950 4000 
L 2850 4000 
Q 2525 4000 2250 3925 
L 2025 4150 
L 3850 4150 
Q 3850 4625 3425 5125 
z
M 3000 1300 
L 3000 150 
L 5050 150 
L 5050 1300 
L 3000 1300 
z
M 2475 3250 
L 4875 3250 
L 5175 3550 
L 5625 3100 
L 3225 3100 
Q 2975 3100 2700 3025 
L 2475 3250 
z
M 2425 2325 
L 4900 2325 
L 5200 2625 
L 5650 2175 
L 3250 2175 
Q 2925 2175 2650 2100 
L 2425 2325 
z
M 2650 1675 
L 3000 1450 
L 5000 1450 
L 5225 1700 
L 5575 1400 
L 5375 1250 
L 5375 50 
Q 5375 -200 5400 -325 
L 5050 -475 
L 5050 0 
L 3000 0 
L 3000 -350 
L 2650 -500 
Q 2675 -100 2675 500 
Q 2675 1100 2650 1675 
z
M 1550 3150 
L 1550 -525 
L 1200 -650 
Q 1225 -150 1225 200 
L 1225 3025 
Q 750 2325 300 1900 
L 250 1975 
Q 900 2875 1300 3862 
Q 1700 4850 1775 5225 
L 2275 4925 
L 2075 4800 
Q 1675 3925 1450 3475 
L 1750 3300 
L 1550 3150 
z
" transform="scale(0.015625)"/>
       <path id="SimSun-606f" d="M 2800 5275 
L 3325 5050 
Q 3150 4950 3000 4825 
Q 2850 4700 2750 4550 
L 4500 4550 
L 4725 4825 
L 5125 4500 
L 4925 4325 
L 4925 2800 
Q 4925 2300 4950 1800 
L 4550 1650 
L 4550 1925 
L 1925 1925 
L 1925 1725 
L 1525 1600 
Q 1550 2150 1550 3137 
Q 1550 4125 1525 4775 
L 1925 4550 
L 2600 4550 
Q 2800 5025 2800 5275 
z
M 1925 4400 
L 1925 3725 
L 4550 3725 
L 4550 4400 
L 1925 4400 
z
M 1925 3575 
L 1925 2925 
L 4550 2925 
L 4550 3575 
L 1925 3575 
z
M 1925 2775 
L 1925 2075 
L 4550 2075 
L 4550 2775 
L 1925 2775 
z
M 2775 1725 
L 2825 1800 
Q 3225 1625 3450 1475 
Q 3675 1325 3687 1137 
Q 3700 950 3600 837 
Q 3500 725 3450 725 
Q 3350 725 3300 925 
Q 3175 1250 2775 1725 
z
M 4975 1175 
L 5025 1250 
Q 5500 975 5712 787 
Q 5925 600 5912 387 
Q 5900 175 5800 75 
Q 5700 -25 5675 -25 
Q 5575 -25 5500 275 
Q 5375 650 4975 1175 
z
M 1225 1200 
L 1325 1200 
Q 1325 475 1250 225 
Q 1175 -25 1037 -62 
Q 900 -100 775 -100 
Q 650 -100 587 -50 
Q 525 0 525 50 
Q 525 125 725 300 
Q 1000 500 1225 1200 
z
M 2000 200 
Q 2000 1025 1975 1450 
L 2550 1175 
L 2350 1025 
L 2350 300 
Q 2325 -100 2700 -50 
L 4175 -50 
Q 4375 -75 4425 237 
Q 4475 550 4475 950 
L 4600 950 
Q 4625 625 4650 375 
Q 4675 125 4925 50 
Q 4800 -350 4200 -350 
L 2525 -350 
Q 1975 -375 2000 200 
z
" transform="scale(0.015625)"/>
       <path id="SimSun-6700" d="M 1550 2725 
L 1550 2200 
L 2725 2200 
L 2725 2725 
L 1550 2725 
z
M 1550 2050 
L 1550 1475 
L 2725 1475 
L 2725 2050 
L 1550 2050 
z
M 1550 1325 
L 1550 525 
L 2725 725 
L 2725 1325 
L 1550 1325 
z
M 3800 2125 
Q 3900 1775 4075 1425 
Q 4250 1075 4450 850 
Q 4650 1150 4812 1475 
Q 4975 1800 5100 2125 
L 3800 2125 
z
M 325 2875 
L 5100 2875 
L 5500 3275 
L 6050 2725 
L 3050 2725 
L 3050 800 
L 3775 950 
L 3800 850 
L 3050 625 
L 3050 -450 
L 2725 -650 
L 2725 525 
Q 1325 175 1025 62 
Q 725 -50 675 -150 
L 375 325 
Q 725 375 1200 450 
L 1200 2725 
L 850 2725 
L 525 2675 
L 325 2875 
z
M 3150 2275 
L 5075 2275 
L 5275 2525 
L 5675 2175 
L 5450 2050 
Q 5075 1200 4650 625 
Q 5050 250 5350 100 
Q 5650 -50 6075 -75 
L 6075 -175 
Q 5675 -225 5575 -475 
Q 5300 -350 5025 -137 
Q 4750 75 4450 400 
Q 3950 -100 3125 -575 
L 3050 -500 
Q 3775 0 4275 600 
Q 4050 950 3912 1312 
Q 3775 1675 3675 2125 
L 3350 2075 
L 3150 2275 
z
M 1900 4800 
L 1900 4250 
L 4600 4250 
L 4600 4800 
L 1900 4800 
z
M 1900 4100 
L 1900 3550 
L 4600 3550 
L 4600 4100 
L 1900 4100 
z
M 1525 5150 
L 1900 4950 
L 4550 4950 
L 4725 5225 
L 5150 4925 
L 4950 4750 
Q 4950 3525 4975 3275 
L 4600 3100 
L 4600 3400 
L 1900 3400 
L 1900 3200 
L 1525 3075 
Q 1550 3550 1550 4112 
Q 1550 4675 1525 5150 
z
" transform="scale(0.015625)"/>
       <path id="SimSun-5f3a" d="M 3400 4675 
L 3400 3750 
L 5075 3750 
L 5075 4675 
L 3400 4675 
z
M 3150 2450 
L 3150 1450 
L 4075 1450 
L 4075 2450 
L 3150 2450 
z
M 4400 2450 
L 4400 1450 
L 5350 1450 
L 5350 2450 
L 4400 2450 
z
M 3050 5025 
L 3400 4825 
L 5025 4825 
L 5200 5075 
L 5600 4750 
L 5400 4600 
Q 5400 3700 5425 3450 
L 5075 3325 
L 5075 3600 
L 4075 3600 
L 4600 3350 
L 4400 3175 
L 4400 2600 
L 5300 2600 
L 5475 2825 
L 5850 2525 
L 5675 2375 
Q 5675 1600 5700 1225 
L 5350 1075 
L 5350 1300 
L 4400 1300 
L 4400 125 
Q 5050 175 5525 225 
Q 5325 575 5050 900 
L 5100 950 
Q 5500 700 5762 437 
Q 6025 175 6050 0 
Q 6075 -175 6000 -300 
Q 5925 -425 5850 -462 
Q 5775 -500 5750 -325 
Q 5700 -150 5600 50 
Q 4000 -150 3375 -262 
Q 2750 -375 2550 -525 
L 2300 -50 
Q 3125 25 4075 100 
L 4075 1300 
L 3150 1300 
L 3150 1100 
L 2800 900 
Q 2825 1375 2825 1962 
Q 2825 2550 2800 2800 
L 3200 2600 
L 4075 2600 
L 4075 3600 
L 3400 3600 
L 3400 3375 
L 3050 3250 
Q 3075 3575 3075 4062 
Q 3075 4550 3050 5025 
z
M 400 4700 
L 1900 4700 
L 2075 4950 
L 2475 4650 
L 2275 4500 
Q 2275 3525 2300 3025 
L 1950 2875 
L 1950 3150 
L 1100 3150 
L 975 2025 
L 1850 2025 
L 2025 2275 
L 2425 1975 
L 2250 1800 
Q 2125 600 1950 100 
Q 1775 -400 1200 -550 
Q 1250 -250 700 50 
L 725 150 
Q 1025 50 1225 0 
Q 1425 -50 1537 87 
Q 1650 225 1725 587 
Q 1800 950 1900 1875 
L 975 1875 
L 800 1675 
L 500 1950 
Q 650 2050 700 2487 
Q 750 2925 775 3525 
L 1125 3300 
L 1950 3300 
L 1950 4550 
L 875 4550 
L 600 4500 
L 400 4700 
z
" transform="scale(0.015625)"/>
      </defs>
      <use xlink:href="#SimSun-4e22"/>
      <use xlink:href="#SimSun-5f03" x="100"/>
      <use xlink:href="#SimSun-63a8" x="200"/>
      <use xlink:href="#SimSun-6d4b" x="300"/>
      <use xlink:href="#SimSun-4fe1" x="400"/>
      <use xlink:href="#SimSun-606f" x="500"/>
      <use xlink:href="#SimSun-6027" x="600"/>
      <use xlink:href="#SimSun-6700" x="700"/>
      <use xlink:href="#SimSun-5f3a" x="800"/>
      <use xlink:href="#SimSun-7279" x="900"/>
      <use xlink:href="#SimSun-5f81" x="1000"/>
     </g>
    </g>
    <g id="line2d_40">
     <path d="M 59.40625 61.155469 
L 71.40625 61.155469 
L 83.40625 61.155469 
" style="fill: none; stroke: #000000; stroke-width: 2; stroke-linecap: round"/>
    </g>
    <g id="text_23">
     <!-- 丢弃推测信息性最弱特征 -->
     <g style="fill: #262626" transform="translate(93.00625 65.355469) scale(0.12 -0.12)">
      <defs>
       <path id="SimSun-5f31" d="M 1275 50 
Q 1725 -75 1975 -75 
Q 2100 -75 2212 -12 
Q 2325 50 2362 612 
Q 2400 1175 2425 2450 
L 1150 2450 
L 975 2275 
L 650 2600 
Q 825 2675 887 3012 
Q 950 3350 1000 3950 
L 1300 3700 
L 2450 3700 
L 2450 4650 
L 1450 4650 
Q 1125 4650 850 4575 
L 625 4800 
L 2400 4800 
L 2575 5050 
L 2975 4775 
L 2775 4575 
Q 2775 3700 2800 3425 
L 2450 3275 
L 2450 3550 
L 1300 3550 
L 1150 2600 
L 2375 2600 
L 2550 2850 
L 2975 2550 
L 2775 2375 
Q 2750 1375 2712 725 
Q 2675 75 2512 -212 
Q 2350 -500 1900 -600 
Q 1925 -300 1250 -50 
L 1275 50 
z
M 3925 3625 
L 3750 2600 
L 5275 2600 
L 5425 2875 
L 5850 2600 
L 5675 2425 
Q 5675 1300 5650 637 
Q 5625 -25 5437 -250 
Q 5250 -475 4825 -575 
Q 4850 -275 4175 -25 
L 4175 75 
Q 4675 -25 4912 -37 
Q 5150 -50 5200 125 
Q 5250 300 5287 762 
Q 5325 1225 5325 2450 
L 3750 2450 
L 3575 2250 
L 3225 2500 
Q 3400 2600 3475 3000 
Q 3550 3400 3600 4000 
L 3925 3775 
L 5200 3775 
L 5200 4725 
L 4050 4725 
Q 3725 4725 3450 4650 
L 3225 4875 
L 5150 4875 
L 5300 5125 
L 5700 4850 
L 5525 4675 
Q 5525 3925 5550 3500 
L 5200 3350 
L 5200 3625 
L 3925 3625 
z
M 3700 2125 
L 3750 2175 
Q 3950 2075 4162 1950 
Q 4375 1825 4450 1700 
Q 4525 1575 4525 1525 
Q 4525 1425 4425 1287 
Q 4325 1150 4300 1150 
Q 4225 1150 4150 1375 
Q 4025 1725 3700 2125 
z
M 3125 450 
Q 3675 600 5125 1275 
L 5175 1175 
Q 4700 925 4137 575 
Q 3575 225 3425 0 
L 3125 450 
z
M 350 400 
Q 975 600 2300 1200 
L 2325 1100 
Q 1850 825 1312 487 
Q 775 150 650 -50 
L 350 400 
z
M 1025 2125 
L 1075 2175 
Q 1450 1975 1612 1837 
Q 1775 1700 1787 1575 
Q 1800 1450 1712 1325 
Q 1625 1200 1575 1200 
Q 1475 1200 1425 1400 
Q 1325 1725 1025 2125 
z
" transform="scale(0.015625)"/>
      </defs>
      <use xlink:href="#SimSun-4e22"/>
      <use xlink:href="#SimSun-5f03" x="100"/>
      <use xlink:href="#SimSun-63a8" x="200"/>
      <use xlink:href="#SimSun-6d4b" x="300"/>
      <use xlink:href="#SimSun-4fe1" x="400"/>
      <use xlink:href="#SimSun-606f" x="500"/>
      <use xlink:href="#SimSun-6027" x="600"/>
      <use xlink:href="#SimSun-6700" x="700"/>
      <use xlink:href="#SimSun-5f31" x="800"/>
      <use xlink:href="#SimSun-7279" x="900"/>
      <use xlink:href="#SimSun-5f81" x="1000"/>
     </g>
    </g>
   </g>
  </g>
 </g>
 <defs>
  <clipPath id="p0f21dd793f">
   <rect x="48.60625" y="10.774219" width="512.5725" height="298.08"/>
  </clipPath>
 </defs>
</svg>
