<?xml version="1.0" encoding="utf-8" standalone="no"?>
<!DOCTYPE svg PUBLIC "-//W3C//DTD SVG 1.1//EN"
  "http://www.w3.org/Graphics/SVG/1.1/DTD/svg11.dtd">
<svg xmlns:xlink="http://www.w3.org/1999/xlink" width="567.87375pt" height="350.496094pt" viewBox="0 0 567.87375 350.496094" xmlns="http://www.w3.org/2000/svg" version="1.1">
 <metadata>
  <rdf:RDF xmlns:dc="http://purl.org/dc/elements/1.1/" xmlns:cc="http://creativecommons.org/ns#" xmlns:rdf="http://www.w3.org/1999/02/22-rdf-syntax-ns#">
   <cc:Work>
    <dc:type rdf:resource="http://purl.org/dc/dcmitype/StillImage"/>
    <dc:date>2026-03-26T17:10:34.299407</dc:date>
    <dc:format>image/svg+xml</dc:format>
    <dc:creator>
     <cc:Agent>
      <dc:title>Matplotlib v3.5.1, https://matplotlib.org/</dc:title>
     </cc:Agent>
    </dc:creator>
   </cc:Work>
  </rdf:RDF>
 </metadata>
 <defs>
  <style type="text/css">*{stroke-linejoin: round; stroke-linecap: butt}</style>
 </defs>
 <g id="figure_1">
  <g id="patch_1">
   <path d="M 0 350.496094 
L 567.87375 350.496094 
L 567.87375 0 
L 0 0 
z
" style="fill: #ffffff"/>
  </g>
  <g id="axes_1">
   <g id="patch_2">
    <path d="M 46.7625 310.249219 
L 560.67375 310.249219 
L 560.67375 10.774219 
L 46.7625 10.774219 
z
" style="fill: #ffffff"/>
   </g>
   <g id="matplotlib.axis_1">
    <g id="xtick_1">
     <g id="line2d_1">
      <path d="M 83.470446 310.249219 
L 83.470446 10.774219 
" clip-path="url(#p43bd7b2825)" style="fill: none; stroke-dasharray: 2.96,1.28; stroke-dashoffset: 0; stroke: #cccccc; stroke-opacity: 0.7; stroke-width: 0.8"/>
     </g>
     <g id="line2d_2">
      <defs>
       <path id="mcfa98f8369" d="M 0 0 
L 0 6 
" style="stroke: #262626; stroke-width: 0.8"/>
      </defs>
      <g>
       <use xlink:href="#mcfa98f8369" x="83.470446" y="310.249219" style="fill: #262626; stroke: #262626; stroke-width: 0.8"/>
      </g>
     </g>
     <g id="text_1">
      <!-- 10 -->
      <g style="fill: #262626" transform="translate(78.470446 326.897656)scale(0.1 -0.1)">
       <defs>
        <path id="SimSun-31" d="M 1825 4450 
L 1825 650 
Q 1825 450 1950 350 
Q 2075 250 2300 250 
L 2550 250 
L 2550 100 
L 725 100 
L 725 250 
L 950 250 
Q 1200 250 1312 350 
Q 1425 450 1425 650 
L 1425 3675 
Q 1425 3775 1362 3837 
Q 1300 3900 1175 3900 
L 725 3900 
L 725 4050 
L 950 4050 
Q 1250 4050 1437 4150 
Q 1625 4250 1725 4450 
L 1825 4450 
z
" transform="scale(0.015625)"/>
        <path id="SimSun-30" d="M 1600 4225 
Q 1250 4225 1012 3687 
Q 775 3150 775 2250 
Q 775 1300 1012 775 
Q 1250 250 1600 250 
Q 1975 250 2187 775 
Q 2400 1300 2400 2250 
Q 2400 3150 2200 3687 
Q 2000 4225 1600 4225 
z
M 1600 50 
Q 1050 50 675 625 
Q 300 1200 300 2250 
Q 300 3225 662 3825 
Q 1025 4425 1600 4425 
Q 2150 4425 2512 3850 
Q 2875 3275 2875 2250 
Q 2875 1225 2512 637 
Q 2150 50 1600 50 
z
" transform="scale(0.015625)"/>
       </defs>
       <use xlink:href="#SimSun-31"/>
       <use xlink:href="#SimSun-30" x="50"/>
      </g>
     </g>
    </g>
    <g id="xtick_2">
     <g id="line2d_3">
      <path d="M 156.886339 310.249219 
L 156.886339 10.774219 
" clip-path="url(#p43bd7b2825)" style="fill: none; stroke-dasharray: 2.96,1.28; stroke-dashoffset: 0; stroke: #cccccc; stroke-opacity: 0.7; stroke-width: 0.8"/>
     </g>
     <g id="line2d_4">
      <g>
       <use xlink:href="#mcfa98f8369" x="156.886339" y="310.249219" style="fill: #262626; stroke: #262626; stroke-width: 0.8"/>
      </g>
     </g>
     <g id="text_2">
      <!-- 20 -->
      <g style="fill: #262626" transform="translate(151.886339 326.897656)scale(0.1 -0.1)">
       <defs>
        <path id="SimSun-32" d="M 2325 3325 
Q 2325 3775 2125 4012 
Q 1925 4250 1525 4250 
Q 1225 4250 1012 4087 
Q 800 3925 800 3675 
Q 800 3525 900 3425 
Q 975 3325 975 3225 
Q 975 3100 912 3037 
Q 850 2975 725 2975 
Q 575 2975 487 3062 
Q 400 3150 400 3350 
Q 400 3875 775 4150 
Q 1150 4425 1575 4425 
Q 2175 4425 2462 4125 
Q 2750 3825 2750 3375 
Q 2750 3075 2612 2775 
Q 2475 2475 2175 2200 
Q 1450 1500 1062 1062 
Q 675 625 600 475 
L 2075 475 
Q 2300 475 2450 650 
Q 2600 825 2650 1175 
L 2800 1175 
L 2650 100 
L 325 100 
L 325 425 
Q 450 650 737 1000 
Q 1025 1350 1500 1825 
Q 1925 2250 2125 2625 
Q 2325 3000 2325 3325 
z
" transform="scale(0.015625)"/>
       </defs>
       <use xlink:href="#SimSun-32"/>
       <use xlink:href="#SimSun-30" x="50"/>
      </g>
     </g>
    </g>
    <g id="xtick_3">
     <g id="line2d_5">
      <path d="M 230.302232 310.249219 
L 230.302232 10.774219 
" clip-path="url(#p43bd7b2825)" style="fill: none; stroke-dasharray: 2.96,1.28; stroke-dashoffset: 0; stroke: #cccccc; stroke-opacity: 0.7; stroke-width: 0.8"/>
     </g>
     <g id="line2d_6">
      <g>
       <use xlink:href="#mcfa98f8369" x="230.302232" y="310.249219" style="fill: #262626; stroke: #262626; stroke-width: 0.8"/>
      </g>
     </g>
     <g id="text_3">
      <!-- 30 -->
      <g style="fill: #262626" transform="translate(225.302232 326.897656)scale(0.1 -0.1)">
       <defs>
        <path id="SimSun-33" d="M 2800 1250 
Q 2800 775 2450 412 
Q 2100 50 1475 50 
Q 1025 50 700 300 
Q 375 550 375 875 
Q 375 1025 475 1137 
Q 575 1250 675 1250 
Q 825 1250 887 1137 
Q 950 1025 950 950 
Q 950 825 900 750 
Q 850 650 850 575 
Q 850 425 1037 325 
Q 1225 225 1450 225 
Q 1900 225 2125 487 
Q 2350 750 2350 1300 
Q 2350 1750 2112 2025 
Q 1875 2300 1225 2300 
L 1225 2475 
Q 1725 2475 1962 2712 
Q 2200 2950 2200 3375 
Q 2200 3725 2012 3987 
Q 1825 4250 1425 4250 
Q 1250 4250 1050 4162 
Q 850 4075 850 3875 
Q 850 3675 900 3625 
Q 950 3575 950 3500 
Q 950 3375 900 3300 
Q 850 3225 725 3225 
Q 625 3225 537 3300 
Q 450 3375 450 3575 
Q 450 3950 775 4187 
Q 1100 4425 1525 4425 
Q 2025 4425 2325 4112 
Q 2625 3800 2625 3450 
Q 2625 3075 2437 2812 
Q 2250 2550 1850 2425 
Q 2400 2225 2600 1900 
Q 2800 1575 2800 1250 
z
" transform="scale(0.015625)"/>
       </defs>
       <use xlink:href="#SimSun-33"/>
       <use xlink:href="#SimSun-30" x="50"/>
      </g>
     </g>
    </g>
    <g id="xtick_4">
     <g id="line2d_7">
      <path d="M 303.718125 310.249219 
L 303.718125 10.774219 
" clip-path="url(#p43bd7b2825)" style="fill: none; stroke-dasharray: 2.96,1.28; stroke-dashoffset: 0; stroke: #cccccc; stroke-opacity: 0.7; stroke-width: 0.8"/>
     </g>
     <g id="line2d_8">
      <g>
       <use xlink:href="#mcfa98f8369" x="303.718125" y="310.249219" style="fill: #262626; stroke: #262626; stroke-width: 0.8"/>
      </g>
     </g>
     <g id="text_4">
      <!-- 40 -->
      <g style="fill: #262626" transform="translate(298.718125 326.897656)scale(0.1 -0.1)">
       <defs>
        <path id="SimSun-34" d="M 2300 575 
Q 2300 400 2400 325 
Q 2500 250 2675 250 
L 2900 250 
L 2900 100 
L 1250 100 
L 1250 250 
L 1525 250 
Q 1725 250 1812 325 
Q 1900 400 1900 575 
L 1900 1400 
L 225 1400 
L 225 1525 
L 2050 4425 
L 2300 4425 
L 2300 1550 
L 2975 1550 
L 2975 1400 
L 2300 1400 
L 2300 575 
z
M 1875 3800 
L 450 1550 
L 1900 1550 
L 1900 3800 
L 1875 3800 
z
" transform="scale(0.015625)"/>
       </defs>
       <use xlink:href="#SimSun-34"/>
       <use xlink:href="#SimSun-30" x="50"/>
      </g>
     </g>
    </g>
    <g id="xtick_5">
     <g id="line2d_9">
      <path d="M 377.134018 310.249219 
L 377.134018 10.774219 
" clip-path="url(#p43bd7b2825)" style="fill: none; stroke-dasharray: 2.96,1.28; stroke-dashoffset: 0; stroke: #cccccc; stroke-opacity: 0.7; stroke-width: 0.8"/>
     </g>
     <g id="line2d_10">
      <g>
       <use xlink:href="#mcfa98f8369" x="377.134018" y="310.249219" style="fill: #262626; stroke: #262626; stroke-width: 0.8"/>
      </g>
     </g>
     <g id="text_5">
      <!-- 50 -->
      <g style="fill: #262626" transform="translate(372.134018 326.897656)scale(0.1 -0.1)">
       <defs>
        <path id="SimSun-35" d="M 1725 2850 
Q 2200 2850 2500 2487 
Q 2800 2125 2800 1525 
Q 2800 850 2487 450 
Q 2175 50 1525 50 
Q 1075 50 725 312 
Q 375 575 375 950 
Q 375 1100 462 1212 
Q 550 1325 700 1325 
Q 850 1325 900 1225 
Q 950 1125 950 1050 
Q 950 900 875 825 
Q 800 725 800 625 
Q 800 425 1037 325 
Q 1275 225 1550 225 
Q 1950 225 2162 550 
Q 2375 875 2375 1475 
Q 2375 1975 2187 2287 
Q 2000 2600 1625 2600 
Q 1350 2600 1150 2500 
Q 950 2400 775 2075 
L 550 2100 
L 675 4375 
L 2725 4375 
L 2650 4000 
L 850 4000 
L 750 2350 
Q 1000 2700 1237 2775 
Q 1475 2850 1725 2850 
z
" transform="scale(0.015625)"/>
       </defs>
       <use xlink:href="#SimSun-35"/>
       <use xlink:href="#SimSun-30" x="50"/>
      </g>
     </g>
    </g>
    <g id="xtick_6">
     <g id="line2d_11">
      <path d="M 450.549911 310.249219 
L 450.549911 10.774219 
" clip-path="url(#p43bd7b2825)" style="fill: none; stroke-dasharray: 2.96,1.28; stroke-dashoffset: 0; stroke: #cccccc; stroke-opacity: 0.7; stroke-width: 0.8"/>
     </g>
     <g id="line2d_12">
      <g>
       <use xlink:href="#mcfa98f8369" x="450.549911" y="310.249219" style="fill: #262626; stroke: #262626; stroke-width: 0.8"/>
      </g>
     </g>
     <g id="text_6">
      <!-- 60 -->
      <g style="fill: #262626" transform="translate(445.549911 326.897656)scale(0.1 -0.1)">
       <defs>
        <path id="SimSun-36" d="M 775 1800 
Q 775 1050 1037 637 
Q 1300 225 1675 225 
Q 2050 225 2250 500 
Q 2450 775 2450 1525 
Q 2450 2025 2237 2300 
Q 2025 2575 1725 2575 
Q 1450 2575 1212 2412 
Q 975 2250 775 1800 
z
M 1750 2825 
Q 2350 2825 2612 2425 
Q 2875 2025 2875 1525 
Q 2875 775 2512 412 
Q 2150 50 1675 50 
Q 1000 50 650 562 
Q 300 1075 300 2050 
Q 300 3200 725 3812 
Q 1150 4425 1875 4425 
Q 2225 4425 2437 4225 
Q 2650 4025 2650 3875 
Q 2650 3725 2587 3650 
Q 2525 3575 2375 3575 
Q 2250 3575 2187 3637 
Q 2125 3700 2125 3825 
Q 2125 3875 2150 3925 
Q 2150 3975 2150 4025 
Q 2150 4125 2075 4187 
Q 2000 4250 1800 4250 
Q 1375 4250 1075 3862 
Q 775 3475 775 2175 
Q 925 2500 1187 2662 
Q 1450 2825 1750 2825 
z
" transform="scale(0.015625)"/>
       </defs>
       <use xlink:href="#SimSun-36"/>
       <use xlink:href="#SimSun-30" x="50"/>
      </g>
     </g>
    </g>
    <g id="xtick_7">
     <g id="line2d_13">
      <path d="M 523.965804 310.249219 
L 523.965804 10.774219 
" clip-path="url(#p43bd7b2825)" style="fill: none; stroke-dasharray: 2.96,1.28; stroke-dashoffset: 0; stroke: #cccccc; stroke-opacity: 0.7; stroke-width: 0.8"/>
     </g>
     <g id="line2d_14">
      <g>
       <use xlink:href="#mcfa98f8369" x="523.965804" y="310.249219" style="fill: #262626; stroke: #262626; stroke-width: 0.8"/>
      </g>
     </g>
     <g id="text_7">
      <!-- 70 -->
      <g style="fill: #262626" transform="translate(518.965804 326.897656)scale(0.1 -0.1)">
       <defs>
        <path id="SimSun-37" d="M 2825 4200 
Q 2300 3350 1987 2537 
Q 1675 1725 1675 1125 
Q 1675 1025 1700 850 
Q 1700 650 1700 400 
Q 1700 200 1637 125 
Q 1575 50 1425 50 
Q 1300 50 1212 137 
Q 1125 225 1125 450 
Q 1125 925 1337 1625 
Q 1550 2325 2475 4000 
L 1225 4000 
Q 950 4000 787 3825 
Q 625 3650 550 3300 
L 400 3325 
L 575 4375 
L 2825 4375 
L 2825 4200 
z
" transform="scale(0.015625)"/>
       </defs>
       <use xlink:href="#SimSun-37"/>
       <use xlink:href="#SimSun-30" x="50"/>
      </g>
     </g>
    </g>
    <g id="text_8">
     <!-- 特征丢弃率（%） -->
     <g style="fill: #262626" transform="translate(258.718125 341.749219)scale(0.12 -0.12)">
      <defs>
       <path id="SimSun-7279" d="M 2600 4225 
L 3800 4225 
Q 3800 4875 3775 5275 
L 4325 5050 
L 4150 4900 
L 4150 4225 
L 4850 4225 
L 5200 4525 
L 5625 4075 
L 4150 4075 
L 4150 3025 
L 5300 3025 
L 5675 3375 
L 6125 2875 
L 3100 2875 
Q 2775 2875 2500 2800 
L 2275 3025 
L 3800 3025 
L 3800 4075 
L 3425 4075 
Q 3100 4075 2825 4000 
L 2600 4225 
z
M 3475 50 
Q 4050 0 4275 0 
Q 4400 0 4487 25 
Q 4575 50 4575 225 
L 4575 1800 
L 3200 1800 
Q 2875 1800 2600 1725 
L 2375 1950 
L 4575 1950 
Q 4575 2550 4550 2825 
L 5125 2550 
L 4925 2375 
L 4925 1950 
L 5400 1950 
L 5725 2275 
L 6175 1800 
L 4925 1800 
L 4925 150 
Q 4950 -425 4325 -600 
Q 4300 -225 3475 -50 
L 3475 50 
z
M 2875 1550 
Q 3325 1250 3475 1062 
Q 3625 875 3625 750 
Q 3625 625 3512 475 
Q 3400 325 3350 325 
Q 3275 325 3200 625 
Q 3100 1050 2800 1500 
L 2875 1550 
z
M 1475 -650 
Q 1500 -175 1500 1625 
Q 1150 1425 775 1200 
L 625 975 
L 300 1450 
Q 550 1500 1500 1900 
L 1500 3275 
L 800 3275 
Q 600 2725 325 2275 
L 250 2325 
Q 450 2950 550 3537 
Q 650 4125 650 4450 
L 1200 4250 
Q 1050 4150 975 3900 
Q 900 3650 825 3425 
L 1500 3425 
Q 1500 4850 1475 5225 
L 2050 4950 
L 1850 4775 
L 1850 3425 
L 2150 3425 
L 2450 3725 
L 2875 3275 
L 1850 3275 
L 1850 2075 
L 2750 2450 
L 2800 2375 
L 1850 1825 
Q 1850 -75 1875 -500 
L 1475 -650 
z
" transform="scale(0.015625)"/>
       <path id="SimSun-5f81" d="M 1600 5200 
L 2075 4825 
L 1825 4700 
Q 900 3550 400 3225 
L 350 3300 
Q 775 3750 1100 4262 
Q 1425 4775 1600 5200 
z
M 1600 2600 
L 1600 -475 
L 1225 -650 
Q 1250 -125 1250 400 
L 1250 2200 
Q 850 1750 375 1400 
L 325 1475 
Q 775 1925 1250 2625 
Q 1725 3325 1975 3950 
L 2425 3550 
L 2200 3450 
Q 1875 3025 1600 2600 
z
M 2750 2200 
Q 2750 2650 2725 3125 
L 3300 2825 
L 3075 2625 
L 3075 25 
L 4000 25 
L 4000 4450 
L 3200 4450 
Q 2875 4450 2600 4375 
L 2375 4600 
L 5175 4600 
L 5500 4925 
L 5975 4450 
L 4325 4450 
L 4325 2500 
L 5125 2500 
L 5425 2800 
L 5875 2350 
L 4325 2350 
L 4325 25 
L 5250 25 
L 5600 375 
L 6100 -125 
L 2600 -125 
Q 2275 -125 2000 -200 
L 1775 25 
L 2750 25 
L 2750 2200 
z
" transform="scale(0.015625)"/>
       <path id="SimSun-4e22" d="M 4225 1000 
Q 5075 500 5312 237 
Q 5550 -25 5550 -200 
Q 5550 -300 5462 -437 
Q 5375 -575 5325 -575 
Q 5275 -575 5200 -450 
Q 5075 -200 4975 -25 
Q 1700 -275 1350 -525 
L 1075 25 
Q 1375 75 1950 662 
Q 2525 1250 2975 1975 
L 1150 1975 
Q 825 1975 550 1900 
L 325 2125 
L 3050 2125 
L 3050 3325 
L 1925 3325 
Q 1600 3325 1325 3250 
L 1100 3475 
L 3050 3475 
L 3050 4475 
Q 2200 4425 1150 4375 
L 1150 4500 
Q 2250 4575 3325 4762 
Q 4400 4950 4775 5175 
L 5175 4725 
Q 4875 4725 3425 4525 
L 3425 3475 
L 4650 3475 
L 4975 3800 
L 5450 3325 
L 3425 3325 
L 3425 2125 
L 5200 2125 
L 5550 2475 
L 6050 1975 
L 3050 1975 
L 3500 1600 
L 3225 1525 
Q 2150 400 1525 0 
L 4900 125 
Q 4675 450 4150 925 
L 4225 1000 
z
" transform="scale(0.015625)"/>
       <path id="SimSun-5f03" d="M 2225 1500 
Q 2250 2175 2200 2625 
L 2825 2350 
L 2600 2225 
L 2575 1500 
L 3950 1500 
Q 3950 2275 3925 2675 
L 4525 2400 
L 4300 2250 
L 4300 1500 
L 5175 1500 
L 5550 1875 
L 6075 1350 
L 4300 1350 
Q 4300 25 4325 -425 
L 3925 -625 
Q 3950 25 3950 1350 
L 2550 1350 
Q 2350 -125 450 -650 
L 425 -575 
Q 2000 75 2200 1350 
L 1175 1350 
Q 850 1350 575 1275 
L 350 1500 
L 2225 1500 
z
M 2600 5200 
L 2650 5275 
Q 3075 5100 3250 4975 
Q 3425 4850 3412 4687 
Q 3400 4525 3312 4425 
Q 3225 4325 3175 4325 
Q 3100 4325 3025 4525 
Q 2925 4825 2600 5200 
z
M 500 4300 
L 4950 4300 
L 5325 4675 
L 5850 4150 
L 2875 4150 
L 3250 3875 
Q 3025 3875 2637 3600 
Q 2250 3325 1725 2925 
Q 3225 2975 4625 3025 
Q 4250 3475 3975 3700 
L 4050 3775 
Q 4500 3550 4862 3300 
Q 5225 3050 5262 2837 
Q 5300 2625 5200 2487 
Q 5100 2350 5050 2350 
Q 4975 2350 4925 2475 
Q 4825 2700 4700 2900 
Q 2875 2775 2262 2675 
Q 1650 2575 1475 2450 
L 1150 2975 
Q 1525 2975 1987 3387 
Q 2450 3800 2700 4150 
L 1325 4150 
Q 1000 4150 725 4075 
L 500 4300 
z
" transform="scale(0.015625)"/>
       <path id="SimSun-7387" d="M 875 3725 
L 925 3800 
Q 1375 3650 1550 3525 
Q 1725 3400 1725 3250 
Q 1725 3175 1662 3025 
Q 1600 2875 1550 2875 
Q 1500 2875 1425 3050 
Q 1275 3325 875 3725 
z
M 550 1850 
Q 875 1925 2000 2575 
L 2050 2500 
Q 1675 2225 1337 1937 
Q 1000 1650 875 1425 
L 550 1850 
z
M 5200 3450 
Q 4800 3150 4275 2800 
L 4225 2875 
Q 4775 3400 5050 3925 
L 5450 3525 
L 5200 3450 
z
M 4325 2500 
L 4350 2575 
Q 5225 2350 5375 2212 
Q 5525 2075 5525 1900 
Q 5525 1775 5487 1662 
Q 5450 1550 5400 1550 
Q 5325 1550 5200 1800 
Q 4975 2150 4325 2500 
z
M 3150 3900 
Q 2500 3300 2300 3150 
Q 2800 3150 3400 3175 
Q 3700 3500 3850 3825 
L 4250 3450 
Q 4050 3400 3450 2825 
Q 2850 2250 2475 1950 
Q 3150 1975 3850 2000 
Q 3750 2175 3550 2450 
L 3600 2500 
Q 4050 2250 4200 2100 
Q 4350 1950 4350 1850 
Q 4350 1775 4250 1625 
Q 4150 1475 4100 1475 
Q 4075 1475 4050 1550 
Q 4000 1700 3900 1900 
Q 3650 1875 3075 1800 
L 3500 1550 
L 3325 1425 
L 3325 975 
L 5325 975 
L 5650 1300 
L 6100 825 
L 3325 825 
Q 3325 -275 3350 -525 
L 2975 -650 
Q 3000 0 3000 825 
L 1125 825 
Q 800 825 525 750 
L 300 975 
L 3000 975 
L 3000 1775 
Q 2450 1700 2200 1525 
L 1950 1950 
Q 2275 1950 2675 2350 
Q 3075 2750 3325 3050 
Q 2400 2950 2150 2775 
L 1950 3175 
Q 2150 3150 2475 3575 
Q 2800 4000 2900 4225 
L 1450 4225 
Q 1125 4225 850 4150 
L 625 4375 
L 3100 4375 
Q 3050 4800 2675 5200 
L 2725 5250 
Q 3225 5050 3337 4912 
Q 3450 4775 3450 4700 
Q 3450 4550 3250 4375 
L 5025 4375 
L 5350 4675 
L 5775 4225 
L 3050 4225 
L 3375 3950 
L 3150 3900 
z
" transform="scale(0.015625)"/>
       <path id="SimSun-ff08" d="M 5087 200 
Q 5475 -100 5425 -150 
Q 5375 -200 4950 87 
Q 4525 375 4137 850 
Q 3750 1325 3687 2100 
Q 3625 2875 4000 3487 
Q 4375 4100 4887 4462 
Q 5400 4825 5412 4762 
Q 5425 4700 5075 4425 
Q 4725 4125 4387 3600 
Q 4050 3075 4050 2250 
Q 4050 1425 4375 962 
Q 4700 500 5087 200 
z
" transform="scale(0.015625)"/>
       <path id="SimSun-25" d="M 750 4250 
Q 600 4250 500 4050 
Q 400 3850 400 3300 
Q 400 2675 512 2487 
Q 625 2300 750 2300 
Q 925 2300 1012 2525 
Q 1100 2750 1100 3300 
Q 1100 3750 1037 4000 
Q 975 4250 750 4250 
z
M 1425 3275 
Q 1425 2825 1275 2487 
Q 1125 2150 750 2150 
Q 450 2150 262 2450 
Q 75 2750 75 3275 
Q 75 3825 275 4125 
Q 475 4425 750 4425 
Q 1050 4425 1237 4112 
Q 1425 3800 1425 3275 
z
M 2725 1200 
Q 2725 1625 2650 1900 
Q 2575 2175 2375 2175 
Q 2225 2175 2125 1937 
Q 2025 1700 2025 1200 
Q 2025 575 2137 400 
Q 2250 225 2375 225 
Q 2550 225 2637 437 
Q 2725 650 2725 1200 
z
M 3050 1175 
Q 3050 675 2875 362 
Q 2700 50 2375 50 
Q 2100 50 1900 362 
Q 1700 675 1700 1175 
Q 1700 1725 1900 2037 
Q 2100 2350 2375 2350 
Q 2675 2350 2862 2025 
Q 3050 1700 3050 1175 
z
M 2525 4350 
L 725 50 
L 575 125 
L 2350 4425 
L 2525 4350 
z
" transform="scale(0.015625)"/>
       <path id="SimSun-ff09" d="M 2337 875 
Q 1925 350 1437 62 
Q 950 -225 937 -162 
Q 925 -100 1300 175 
Q 1650 425 2037 1012 
Q 2425 1600 2375 2375 
Q 2325 3150 1987 3662 
Q 1650 4175 1300 4475 
Q 925 4775 937 4837 
Q 950 4900 1412 4587 
Q 1875 4275 2325 3662 
Q 2775 3050 2762 2225 
Q 2750 1400 2337 875 
z
" transform="scale(0.015625)"/>
      </defs>
      <use xlink:href="#SimSun-7279"/>
      <use xlink:href="#SimSun-5f81" x="100"/>
      <use xlink:href="#SimSun-4e22" x="200"/>
      <use xlink:href="#SimSun-5f03" x="300"/>
      <use xlink:href="#SimSun-7387" x="400"/>
      <use xlink:href="#SimSun-ff08" x="500"/>
      <use xlink:href="#SimSun-25" x="600"/>
      <use xlink:href="#SimSun-ff09" x="650"/>
     </g>
    </g>
   </g>
   <g id="matplotlib.axis_2">
    <g id="ytick_1">
     <g id="line2d_15">
      <path d="M 46.7625 310.249219 
L 560.67375 310.249219 
" clip-path="url(#p43bd7b2825)" style="fill: none; stroke-dasharray: 2.96,1.28; stroke-dashoffset: 0; stroke: #cccccc; stroke-opacity: 0.7; stroke-width: 0.8"/>
     </g>
     <g id="line2d_16">
      <defs>
       <path id="mee452ce3ea" d="M 0 0 
L -6 0 
" style="stroke: #262626; stroke-width: 0.8"/>
      </defs>
      <g>
       <use xlink:href="#mee452ce3ea" x="46.7625" y="310.249219" style="fill: #262626; stroke: #262626; stroke-width: 0.8"/>
      </g>
     </g>
     <g id="text_9">
      <!-- 0.0 -->
      <g style="fill: #262626" transform="translate(22.2625 313.823437)scale(0.1 -0.1)">
       <defs>
        <path id="SimSun-2e" d="M 800 25 
Q 650 25 537 125 
Q 425 225 425 400 
Q 425 575 537 675 
Q 650 775 800 775 
Q 950 775 1062 662 
Q 1175 550 1175 400 
Q 1175 225 1062 125 
Q 950 25 800 25 
z
" transform="scale(0.015625)"/>
       </defs>
       <use xlink:href="#SimSun-30"/>
       <use xlink:href="#SimSun-2e" x="50"/>
       <use xlink:href="#SimSun-30" x="100"/>
      </g>
     </g>
    </g>
    <g id="ytick_2">
     <g id="line2d_17">
      <path d="M 46.7625 250.354219 
L 560.67375 250.354219 
" clip-path="url(#p43bd7b2825)" style="fill: none; stroke-dasharray: 2.96,1.28; stroke-dashoffset: 0; stroke: #cccccc; stroke-opacity: 0.7; stroke-width: 0.8"/>
     </g>
     <g id="line2d_18">
      <g>
       <use xlink:href="#mee452ce3ea" x="46.7625" y="250.354219" style="fill: #262626; stroke: #262626; stroke-width: 0.8"/>
      </g>
     </g>
     <g id="text_10">
      <!-- 0.2 -->
      <g style="fill: #262626" transform="translate(22.2625 253.928437)scale(0.1 -0.1)">
       <use xlink:href="#SimSun-30"/>
       <use xlink:href="#SimSun-2e" x="50"/>
       <use xlink:href="#SimSun-32" x="100"/>
      </g>
     </g>
    </g>
    <g id="ytick_3">
     <g id="line2d_19">
      <path d="M 46.7625 190.459219 
L 560.67375 190.459219 
" clip-path="url(#p43bd7b2825)" style="fill: none; stroke-dasharray: 2.96,1.28; stroke-dashoffset: 0; stroke: #cccccc; stroke-opacity: 0.7; stroke-width: 0.8"/>
     </g>
     <g id="line2d_20">
      <g>
       <use xlink:href="#mee452ce3ea" x="46.7625" y="190.459219" style="fill: #262626; stroke: #262626; stroke-width: 0.8"/>
      </g>
     </g>
     <g id="text_11">
      <!-- 0.4 -->
      <g style="fill: #262626" transform="translate(22.2625 194.033437)scale(0.1 -0.1)">
       <use xlink:href="#SimSun-30"/>
       <use xlink:href="#SimSun-2e" x="50"/>
       <use xlink:href="#SimSun-34" x="100"/>
      </g>
     </g>
    </g>
    <g id="ytick_4">
     <g id="line2d_21">
      <path d="M 46.7625 130.564219 
L 560.67375 130.564219 
" clip-path="url(#p43bd7b2825)" style="fill: none; stroke-dasharray: 2.96,1.28; stroke-dashoffset: 0; stroke: #cccccc; stroke-opacity: 0.7; stroke-width: 0.8"/>
     </g>
     <g id="line2d_22">
      <g>
       <use xlink:href="#mee452ce3ea" x="46.7625" y="130.564219" style="fill: #262626; stroke: #262626; stroke-width: 0.8"/>
      </g>
     </g>
     <g id="text_12">
      <!-- 0.6 -->
      <g style="fill: #262626" transform="translate(22.2625 134.138437)scale(0.1 -0.1)">
       <use xlink:href="#SimSun-30"/>
       <use xlink:href="#SimSun-2e" x="50"/>
       <use xlink:href="#SimSun-36" x="100"/>
      </g>
     </g>
    </g>
    <g id="ytick_5">
     <g id="line2d_23">
      <path d="M 46.7625 70.669219 
L 560.67375 70.669219 
" clip-path="url(#p43bd7b2825)" style="fill: none; stroke-dasharray: 2.96,1.28; stroke-dashoffset: 0; stroke: #cccccc; stroke-opacity: 0.7; stroke-width: 0.8"/>
     </g>
     <g id="line2d_24">
      <g>
       <use xlink:href="#mee452ce3ea" x="46.7625" y="70.669219" style="fill: #262626; stroke: #262626; stroke-width: 0.8"/>
      </g>
     </g>
     <g id="text_13">
      <!-- 0.8 -->
      <g style="fill: #262626" transform="translate(22.2625 74.243437)scale(0.1 -0.1)">
       <defs>
        <path id="SimSun-38" d="M 625 1125 
Q 625 725 887 475 
Q 1150 225 1550 225 
Q 2025 225 2237 475 
Q 2450 725 2450 1100 
Q 2450 1425 2150 1725 
Q 1850 2025 1250 2275 
Q 950 2075 787 1775 
Q 625 1475 625 1125 
z
M 2825 1175 
Q 2825 700 2475 375 
Q 2125 50 1550 50 
Q 1025 50 650 375 
Q 275 700 275 1125 
Q 275 1550 487 1850 
Q 700 2150 1100 2375 
Q 750 2550 562 2812 
Q 375 3075 375 3400 
Q 375 3825 700 4125 
Q 1025 4425 1600 4425 
Q 2125 4425 2450 4125 
Q 2775 3825 2775 3400 
Q 2775 3100 2587 2837 
Q 2400 2575 2000 2375 
Q 2425 2125 2625 1825 
Q 2825 1525 2825 1175 
z
M 2425 3375 
Q 2425 3725 2225 3987 
Q 2025 4250 1600 4250 
Q 1125 4250 925 4000 
Q 725 3750 725 3475 
Q 725 3200 1012 2937 
Q 1300 2675 1825 2475 
Q 2125 2625 2275 2850 
Q 2425 3075 2425 3375 
z
" transform="scale(0.015625)"/>
       </defs>
       <use xlink:href="#SimSun-30"/>
       <use xlink:href="#SimSun-2e" x="50"/>
       <use xlink:href="#SimSun-38" x="100"/>
      </g>
     </g>
    </g>
    <g id="ytick_6">
     <g id="line2d_25">
      <path d="M 46.7625 10.774219 
L 560.67375 10.774219 
" clip-path="url(#p43bd7b2825)" style="fill: none; stroke-dasharray: 2.96,1.28; stroke-dashoffset: 0; stroke: #cccccc; stroke-opacity: 0.7; stroke-width: 0.8"/>
     </g>
     <g id="line2d_26">
      <g>
       <use xlink:href="#mee452ce3ea" x="46.7625" y="10.774219" style="fill: #262626; stroke: #262626; stroke-width: 0.8"/>
      </g>
     </g>
     <g id="text_14">
      <!-- 1.0 -->
      <g style="fill: #262626" transform="translate(22.2625 14.348437)scale(0.1 -0.1)">
       <use xlink:href="#SimSun-31"/>
       <use xlink:href="#SimSun-2e" x="50"/>
       <use xlink:href="#SimSun-30" x="100"/>
      </g>
     </g>
    </g>
    <g id="text_15">
     <!-- 一致性得分 -->
     <g style="fill: #262626" transform="translate(16.715625 190.511719)rotate(-90)scale(0.12 -0.12)">
      <defs>
       <path id="SimSun-4e00" d="M 350 2650 
L 5000 2650 
L 5500 3050 
L 6050 2500 
L 1250 2500 
Q 850 2500 575 2425 
L 350 2650 
z
" transform="scale(0.015625)"/>
       <path id="SimSun-81f4" d="M 1600 1675 
L 1600 2775 
Q 1350 2725 1125 2662 
Q 900 2600 750 2500 
L 475 2975 
Q 750 3025 1075 3500 
Q 1400 3975 1600 4450 
L 1150 4450 
Q 825 4450 550 4375 
L 325 4600 
L 2650 4600 
L 2975 4925 
L 3400 4450 
L 1700 4450 
L 2100 4200 
Q 1825 4075 1500 3675 
Q 1175 3250 825 2925 
Q 1600 2950 2600 3050 
Q 2475 3375 2175 3775 
L 2250 3825 
Q 2675 3525 2875 3312 
Q 3075 3100 3075 2900 
Q 3075 2700 2962 2600 
Q 2850 2500 2825 2500 
Q 2775 2500 2775 2550 
Q 2750 2650 2650 2950 
Q 2300 2900 1675 2800 
L 2150 2550 
L 1925 2400 
L 1925 1675 
L 2450 1675 
L 2775 2000 
L 3200 1525 
L 1925 1525 
L 1925 350 
Q 2375 425 3200 600 
L 3225 500 
Q 1925 150 1525 25 
Q 1125 -100 887 -187 
Q 650 -275 525 -400 
L 250 75 
Q 1000 175 1600 300 
L 1600 1525 
L 1200 1525 
Q 875 1525 600 1450 
L 375 1675 
L 1600 1675 
z
M 3825 3675 
Q 3875 2900 4050 2275 
Q 4225 1650 4450 1250 
Q 4650 1750 4762 2375 
Q 4875 3000 4900 3675 
L 3825 3675 
z
M 5275 3675 
Q 5200 2900 5075 2250 
Q 4950 1600 4650 900 
Q 5025 450 5425 225 
Q 5825 0 6150 -25 
L 6150 -125 
Q 5800 -175 5650 -450 
Q 5275 -225 5012 25 
Q 4750 275 4450 650 
Q 4050 225 3550 -87 
Q 3050 -400 2325 -625 
L 2300 -550 
Q 2900 -275 3450 137 
Q 4000 550 4250 950 
Q 4000 1600 3862 2200 
Q 3725 2800 3725 3400 
Q 3475 2700 3075 2125 
L 3000 2175 
Q 3325 2850 3562 3750 
Q 3800 4650 3850 5225 
L 4400 4900 
L 4175 4750 
Q 4050 4375 3875 3825 
L 5300 3825 
L 5625 4150 
L 6075 3675 
L 5275 3675 
z
" transform="scale(0.015625)"/>
       <path id="SimSun-6027" d="M 3975 3450 
Q 3975 4800 3950 5200 
L 4575 4925 
L 4325 4750 
L 4325 3450 
L 5050 3450 
L 5400 3800 
L 5900 3300 
L 4325 3300 
L 4325 1925 
L 4975 1925 
L 5300 2250 
L 5775 1775 
L 4325 1775 
L 4325 25 
L 5300 25 
L 5650 375 
L 6150 -125 
L 2875 -125 
Q 2550 -125 2275 -200 
L 2050 25 
L 3975 25 
L 3975 1775 
L 3450 1775 
Q 3125 1775 2850 1700 
L 2625 1925 
L 3975 1925 
L 3975 3300 
L 2950 3300 
Q 2625 2500 2225 2000 
L 2150 2050 
Q 2450 2650 2650 3387 
Q 2850 4125 2900 4600 
L 3475 4325 
L 3250 4175 
L 3000 3450 
L 3975 3450 
z
M 875 3625 
Q 950 2875 900 2687 
Q 850 2500 737 2437 
Q 625 2375 550 2375 
Q 500 2375 412 2412 
Q 325 2450 325 2475 
Q 325 2575 500 2775 
Q 725 3050 775 3625 
L 875 3625 
z
M 1575 3950 
Q 1975 3800 2150 3675 
Q 2325 3550 2300 3350 
Q 2275 3150 2175 3075 
Q 2075 3000 1975 3275 
Q 1850 3550 1575 3825 
L 1575 500 
Q 1575 75 1600 -425 
L 1200 -600 
Q 1225 125 1225 700 
L 1225 4225 
Q 1225 4650 1200 5250 
L 1800 4975 
L 1575 4800 
L 1575 3950 
z
" transform="scale(0.015625)"/>
       <path id="SimSun-5f97" d="M 3725 25 
Q 4475 -125 4575 -75 
Q 4675 -25 4675 150 
L 4675 1400 
L 2825 1400 
Q 2500 1400 2225 1325 
L 2000 1550 
L 4675 1550 
L 4675 2225 
L 3125 2225 
Q 2800 2225 2525 2150 
L 2300 2375 
L 5200 2375 
L 5475 2650 
L 5900 2225 
L 5025 2225 
L 5025 1550 
L 5400 1550 
L 5700 1850 
L 6150 1400 
L 5025 1400 
L 5025 25 
Q 5025 -425 4500 -625 
Q 4475 -375 3725 -75 
L 3725 25 
z
M 2850 1300 
Q 3425 950 3550 762 
Q 3675 575 3625 400 
Q 3575 225 3450 187 
Q 3325 150 3250 475 
Q 3150 800 2800 1225 
L 2850 1300 
z
M 1300 -650 
Q 1325 -25 1325 500 
L 1325 2275 
Q 900 1850 325 1475 
L 275 1575 
Q 675 1925 1112 2450 
Q 1550 2975 1775 3350 
Q 2000 3725 2100 3975 
L 2575 3600 
Q 2350 3425 2200 3250 
Q 2050 3075 1675 2625 
L 1675 -450 
L 1300 -650 
z
M 1875 5225 
L 2325 4850 
Q 2075 4700 1850 4475 
Q 1600 4250 1200 3900 
Q 800 3550 400 3325 
L 350 3400 
Q 925 3900 1287 4350 
Q 1650 4800 1875 5225 
z
M 2775 2600 
Q 2800 3175 2800 3825 
Q 2800 4475 2775 4975 
L 3125 4800 
L 4950 4800 
L 5175 5025 
L 5525 4675 
L 5325 4525 
Q 5325 3275 5350 2800 
L 4975 2625 
L 4975 2900 
L 3125 2900 
L 3125 2750 
L 2775 2600 
z
M 3125 4650 
L 3125 3950 
L 4975 3950 
L 4975 4650 
L 3125 4650 
z
M 3125 3800 
L 3125 3050 
L 4975 3050 
L 4975 3800 
L 3125 3800 
z
" transform="scale(0.015625)"/>
       <path id="SimSun-5206" d="M 2350 5050 
L 2850 4675 
L 2625 4550 
Q 2200 3750 1687 3125 
Q 1175 2500 375 2025 
L 325 2100 
Q 975 2625 1475 3337 
Q 1975 4050 2350 5050 
z
M 4100 4975 
L 3900 4850 
Q 4175 3850 4800 3300 
Q 5425 2750 6125 2625 
L 6125 2550 
Q 5750 2500 5600 2225 
Q 4775 2675 4287 3425 
Q 3800 4175 3625 5175 
L 4100 4975 
z
M 1375 2625 
L 4225 2625 
L 4475 2875 
L 4825 2525 
L 4625 2375 
Q 4575 400 4375 -12 
Q 4175 -425 3675 -600 
Q 3600 -200 2975 -25 
L 2975 75 
Q 3600 -25 3787 -12 
Q 3975 0 4075 275 
Q 4175 550 4275 2475 
L 2975 2475 
Q 2825 1400 2375 662 
Q 1925 -75 650 -625 
L 600 -525 
Q 1725 50 2112 837 
Q 2500 1625 2575 2475 
L 1800 2475 
L 1575 2425 
L 1375 2625 
z
" transform="scale(0.015625)"/>
      </defs>
      <use xlink:href="#SimSun-4e00"/>
      <use xlink:href="#SimSun-81f4" x="100"/>
      <use xlink:href="#SimSun-6027" x="200"/>
      <use xlink:href="#SimSun-5f97" x="300"/>
      <use xlink:href="#SimSun-5206" x="400"/>
     </g>
    </g>
   </g>
   <g id="line2d_27">
    <path d="M 83.470446 68.273419 
L 230.302232 147.125186 
L 377.134018 216.303911 
L 523.965804 267.364399 
" clip-path="url(#p43bd7b2825)" style="fill: none; stroke: #ff6b6b; stroke-width: 2; stroke-linecap: round"/>
    <defs>
     <path id="mbd5fef11f1" d="M 0 4 
C 1.060812 4 2.078319 3.578535 2.828427 2.828427 
C 3.578535 2.078319 4 1.060812 4 0 
C 4 -1.060812 3.578535 -2.078319 2.828427 -2.828427 
C 2.078319 -3.578535 1.060812 -4 0 -4 
C -1.060812 -4 -2.078319 -3.578535 -2.828427 -2.828427 
C -3.578535 -2.078319 -4 -1.060812 -4 0 
C -4 1.060812 -3.578535 2.078319 -2.828427 2.828427 
C -2.078319 3.578535 -1.060812 4 0 4 
z
" style="stroke: #ff6b6b"/>
    </defs>
    <g clip-path="url(#p43bd7b2825)">
     <use xlink:href="#mbd5fef11f1" x="83.470446" y="68.273419" style="fill: #ff6b6b; stroke: #ff6b6b"/>
     <use xlink:href="#mbd5fef11f1" x="230.302232" y="147.125186" style="fill: #ff6b6b; stroke: #ff6b6b"/>
     <use xlink:href="#mbd5fef11f1" x="377.134018" y="216.303911" style="fill: #ff6b6b; stroke: #ff6b6b"/>
     <use xlink:href="#mbd5fef11f1" x="523.965804" y="267.364399" style="fill: #ff6b6b; stroke: #ff6b6b"/>
    </g>
   </g>
   <g id="line2d_28">
    <path d="M 83.470446 31.408046 
L 230.302232 73.094966 
L 377.134018 136.553719 
L 523.965804 217.202336 
" clip-path="url(#p43bd7b2825)" style="fill: none; stroke: #4ecdc4; stroke-width: 2; stroke-linecap: round"/>
    <defs>
     <path id="m0feba67b94" d="M -4 4 
L 4 4 
L 4 -4 
L -4 -4 
z
" style="stroke: #4ecdc4; stroke-linejoin: miter"/>
    </defs>
    <g clip-path="url(#p43bd7b2825)">
     <use xlink:href="#m0feba67b94" x="83.470446" y="31.408046" style="fill: #4ecdc4; stroke: #4ecdc4; stroke-linejoin: miter"/>
     <use xlink:href="#m0feba67b94" x="230.302232" y="73.094966" style="fill: #4ecdc4; stroke: #4ecdc4; stroke-linejoin: miter"/>
     <use xlink:href="#m0feba67b94" x="377.134018" y="136.553719" style="fill: #4ecdc4; stroke: #4ecdc4; stroke-linejoin: miter"/>
     <use xlink:href="#m0feba67b94" x="523.965804" y="217.202336" style="fill: #4ecdc4; stroke: #4ecdc4; stroke-linejoin: miter"/>
    </g>
   </g>
   <g id="line2d_29">
    <path d="M 83.470446 32.635894 
L 230.302232 75.460819 
L 377.134018 147.155134 
L 523.965804 219.448399 
" clip-path="url(#p43bd7b2825)" style="fill: none; stroke: #45b7d1; stroke-width: 2; stroke-linecap: round"/>
    <defs>
     <path id="md3afd537ab" d="M 0 -4 
L -4 4 
L 4 4 
z
" style="stroke: #45b7d1; stroke-linejoin: miter"/>
    </defs>
    <g clip-path="url(#p43bd7b2825)">
     <use xlink:href="#md3afd537ab" x="83.470446" y="32.635894" style="fill: #45b7d1; stroke: #45b7d1; stroke-linejoin: miter"/>
     <use xlink:href="#md3afd537ab" x="230.302232" y="75.460819" style="fill: #45b7d1; stroke: #45b7d1; stroke-linejoin: miter"/>
     <use xlink:href="#md3afd537ab" x="377.134018" y="147.155134" style="fill: #45b7d1; stroke: #45b7d1; stroke-linejoin: miter"/>
     <use xlink:href="#md3afd537ab" x="523.965804" y="219.448399" style="fill: #45b7d1; stroke: #45b7d1; stroke-linejoin: miter"/>
    </g>
   </g>
   <g id="line2d_30">
    <path d="M 83.470446 100.676614 
L 230.302232 177.342214 
L 377.134018 225.407951 
L 523.965804 258.020779 
" clip-path="url(#p43bd7b2825)" style="fill: none; stroke: #ffa07a; stroke-width: 2; stroke-linecap: round"/>
    <defs>
     <path id="m701242b1d1" d="M 0 5.656854 
L 5.656854 0 
L 0 -5.656854 
L -5.656854 0 
z
" style="stroke: #ffa07a; stroke-linejoin: miter"/>
    </defs>
    <g clip-path="url(#p43bd7b2825)">
     <use xlink:href="#m701242b1d1" x="83.470446" y="100.676614" style="fill: #ffa07a; stroke: #ffa07a; stroke-linejoin: miter"/>
     <use xlink:href="#m701242b1d1" x="230.302232" y="177.342214" style="fill: #ffa07a; stroke: #ffa07a; stroke-linejoin: miter"/>
     <use xlink:href="#m701242b1d1" x="377.134018" y="225.407951" style="fill: #ffa07a; stroke: #ffa07a; stroke-linejoin: miter"/>
     <use xlink:href="#m701242b1d1" x="523.965804" y="258.020779" style="fill: #ffa07a; stroke: #ffa07a; stroke-linejoin: miter"/>
    </g>
   </g>
   <g id="patch_3">
    <path d="M 46.7625 310.249219 
L 46.7625 10.774219 
" style="fill: none; stroke: #262626; stroke-width: 1.25; stroke-linejoin: miter; stroke-linecap: square"/>
   </g>
   <g id="patch_4">
    <path d="M 560.67375 310.249219 
L 560.67375 10.774219 
" style="fill: none; stroke: #262626; stroke-width: 1.25; stroke-linejoin: miter; stroke-linecap: square"/>
   </g>
   <g id="patch_5">
    <path d="M 46.7625 310.249219 
L 560.67375 310.249219 
" style="fill: none; stroke: #262626; stroke-width: 1.25; stroke-linejoin: miter; stroke-linecap: square"/>
   </g>
   <g id="patch_6">
    <path d="M 46.7625 10.774219 
L 560.67375 10.774219 
" style="fill: none; stroke: #262626; stroke-width: 1.25; stroke-linejoin: miter; stroke-linecap: square"/>
   </g>
   <g id="legend_1">
    <g id="line2d_31">
     <path d="M 483.67375 23.422656 
L 493.67375 23.422656 
L 503.67375 23.422656 
" style="fill: none; stroke: #ff6b6b; stroke-width: 2; stroke-linecap: round"/>
     <g>
      <use xlink:href="#mbd5fef11f1" x="493.67375" y="23.422656" style="fill: #ff6b6b; stroke: #ff6b6b"/>
     </g>
    </g>
    <g id="text_16">
     <!-- LIME -->
     <g style="fill: #262626" transform="translate(511.67375 26.922656)scale(0.1 -0.1)">
      <defs>
       <path id="SimSun-4c" d="M 1000 450 
Q 1000 350 1062 300 
Q 1125 250 1225 250 
L 1900 250 
Q 2250 250 2500 462 
Q 2750 675 2875 1125 
L 3000 1075 
L 2775 100 
L 200 100 
L 200 250 
L 375 250 
Q 500 250 550 300 
Q 600 350 600 450 
L 600 4025 
Q 600 4125 550 4175 
Q 500 4225 375 4225 
L 225 4225 
L 225 4375 
L 1400 4375 
L 1400 4225 
L 1225 4225 
Q 1125 4225 1062 4175 
Q 1000 4125 1000 4025 
L 1000 450 
z
" transform="scale(0.015625)"/>
       <path id="SimSun-49" d="M 600 4225 
L 600 4375 
L 2600 4375 
L 2600 4225 
L 2025 4225 
Q 1925 4225 1862 4175 
Q 1800 4125 1800 4025 
L 1800 450 
Q 1800 350 1862 300 
Q 1925 250 2025 250 
L 2600 250 
L 2600 100 
L 600 100 
L 600 250 
L 1175 250 
Q 1300 250 1350 300 
Q 1400 350 1400 450 
L 1400 4025 
Q 1400 4125 1350 4175 
Q 1300 4225 1175 4225 
L 600 4225 
z
" transform="scale(0.015625)"/>
       <path id="SimSun-4d" d="M 2800 450 
Q 2800 350 2862 300 
Q 2925 250 3025 250 
L 3125 250 
L 3125 100 
L 2050 100 
L 2050 250 
L 2175 250 
Q 2300 250 2350 300 
Q 2400 350 2400 450 
L 2400 3725 
L 2350 3725 
L 1500 100 
L 1350 100 
L 575 3650 
L 525 3650 
L 525 450 
Q 525 350 587 300 
Q 650 250 750 250 
L 825 250 
L 825 100 
L 75 100 
L 75 250 
L 150 250 
Q 275 250 325 300 
Q 375 350 375 450 
L 375 4025 
Q 375 4125 325 4175 
Q 275 4225 150 4225 
L 50 4225 
L 50 4375 
L 775 4375 
L 1500 1025 
L 1550 1025 
L 2325 4375 
L 3125 4375 
L 3125 4225 
L 3025 4225 
Q 2925 4225 2862 4175 
Q 2800 4125 2800 4025 
L 2800 450 
z
" transform="scale(0.015625)"/>
       <path id="SimSun-45" d="M 200 4225 
L 200 4375 
L 2650 4375 
L 2925 3525 
L 2800 3475 
Q 2600 3850 2375 4037 
Q 2150 4225 1875 4225 
L 1175 4225 
Q 1075 4225 1012 4175 
Q 950 4125 950 4025 
L 950 2475 
L 1675 2475 
Q 1925 2475 2037 2600 
Q 2150 2725 2150 2975 
L 2150 3125 
L 2300 3125 
L 2300 1650 
L 2150 1650 
L 2150 1750 
Q 2150 2025 2037 2175 
Q 1925 2325 1675 2325 
L 950 2325 
L 950 450 
Q 950 350 1012 300 
Q 1075 250 1175 250 
L 1825 250 
Q 2200 250 2462 462 
Q 2725 675 2875 1125 
L 3000 1075 
L 2725 100 
L 175 100 
L 175 250 
L 325 250 
Q 450 250 500 300 
Q 550 350 550 450 
L 550 4025 
Q 550 4125 500 4175 
Q 450 4225 325 4225 
L 200 4225 
z
" transform="scale(0.015625)"/>
      </defs>
      <use xlink:href="#SimSun-4c"/>
      <use xlink:href="#SimSun-49" x="50"/>
      <use xlink:href="#SimSun-4d" x="100"/>
      <use xlink:href="#SimSun-45" x="150"/>
     </g>
    </g>
    <g id="line2d_32">
     <path d="M 483.67375 36.860156 
L 493.67375 36.860156 
L 503.67375 36.860156 
" style="fill: none; stroke: #4ecdc4; stroke-width: 2; stroke-linecap: round"/>
     <g>
      <use xlink:href="#m0feba67b94" x="493.67375" y="36.860156" style="fill: #4ecdc4; stroke: #4ecdc4; stroke-linejoin: miter"/>
     </g>
    </g>
    <g id="text_17">
     <!-- SHAP -->
     <g style="fill: #262626" transform="translate(511.67375 40.360156)scale(0.1 -0.1)">
      <defs>
       <path id="SimSun-53" d="M 1500 2150 
Q 825 2450 575 2675 
Q 325 2900 325 3375 
Q 325 3750 637 4087 
Q 950 4425 1525 4425 
Q 1775 4425 2000 4350 
Q 2225 4250 2325 4250 
Q 2400 4250 2462 4287 
Q 2525 4325 2575 4425 
L 2675 3400 
L 2550 3350 
Q 2325 3875 2087 4062 
Q 1850 4250 1475 4250 
Q 1000 4250 825 3987 
Q 650 3725 650 3425 
Q 650 3150 812 2987 
Q 975 2825 1700 2500 
Q 2300 2250 2562 1937 
Q 2825 1625 2825 1200 
Q 2825 750 2512 400 
Q 2200 50 1600 50 
Q 1350 50 1150 150 
Q 925 225 800 225 
Q 725 225 650 175 
Q 575 125 475 50 
L 275 1275 
L 425 1325 
Q 600 700 912 462 
Q 1225 225 1625 225 
Q 2050 225 2262 475 
Q 2475 725 2475 1200 
Q 2475 1450 2237 1687 
Q 2000 1925 1500 2150 
z
" transform="scale(0.015625)"/>
       <path id="SimSun-48" d="M 2725 450 
Q 2725 350 2787 300 
Q 2850 250 2950 250 
L 3075 250 
L 3075 100 
L 1975 100 
L 1975 250 
L 2100 250 
Q 2225 250 2275 300 
Q 2325 350 2325 450 
L 2325 2275 
L 850 2275 
L 850 450 
Q 850 350 912 300 
Q 975 250 1075 250 
L 1200 250 
L 1200 100 
L 100 100 
L 100 250 
L 225 250 
Q 350 250 400 300 
Q 450 350 450 450 
L 450 4025 
Q 450 4125 400 4175 
Q 350 4225 225 4225 
L 125 4225 
L 125 4375 
L 1175 4375 
L 1175 4225 
L 1075 4225 
Q 975 4225 912 4175 
Q 850 4125 850 4025 
L 850 2425 
L 2325 2425 
L 2325 4025 
Q 2325 4125 2275 4175 
Q 2225 4225 2100 4225 
L 2000 4225 
L 2000 4375 
L 3050 4375 
L 3050 4225 
L 2950 4225 
Q 2850 4225 2787 4175 
Q 2725 4125 2725 4025 
L 2725 450 
z
" transform="scale(0.015625)"/>
       <path id="SimSun-41" d="M 2025 1700 
L 900 1700 
L 675 750 
Q 650 625 650 550 
Q 650 450 687 350 
Q 725 250 900 250 
L 975 250 
L 975 100 
L 50 100 
L 50 250 
L 125 250 
Q 225 250 300 312 
Q 375 375 400 525 
L 1375 4350 
L 1750 4475 
L 2700 525 
Q 2750 375 2825 312 
Q 2900 250 3000 250 
L 3075 250 
L 3075 100 
L 2000 100 
L 2000 250 
L 2100 250 
Q 2250 250 2275 312 
Q 2300 375 2300 425 
Q 2300 525 2275 600 
L 2025 1700 
z
M 325 250 
L 325 250 
z
M 575 250 
L 575 250 
z
M 2350 250 
L 2350 250 
z
M 2775 250 
L 2775 250 
z
M 1500 3925 
L 1475 3925 
L 950 1850 
L 2000 1850 
L 1500 3925 
z
" transform="scale(0.015625)"/>
       <path id="SimSun-50" d="M 950 2100 
L 950 450 
Q 950 350 1012 300 
Q 1075 250 1175 250 
L 1350 250 
L 1350 100 
L 150 100 
L 150 250 
L 325 250 
Q 450 250 500 300 
Q 550 350 550 450 
L 550 4025 
Q 550 4125 500 4175 
Q 450 4225 325 4225 
L 175 4225 
L 175 4375 
L 1650 4375 
Q 2275 4375 2612 4062 
Q 2950 3750 2950 3275 
Q 2950 2700 2587 2400 
Q 2225 2100 1725 2100 
L 950 2100 
z
M 1575 2250 
Q 1950 2250 2237 2475 
Q 2525 2700 2525 3250 
Q 2525 3750 2287 3987 
Q 2050 4225 1525 4225 
L 1175 4225 
Q 1075 4225 1012 4175 
Q 950 4125 950 4025 
L 950 2250 
L 1575 2250 
z
" transform="scale(0.015625)"/>
      </defs>
      <use xlink:href="#SimSun-53"/>
      <use xlink:href="#SimSun-48" x="50"/>
      <use xlink:href="#SimSun-41" x="100"/>
      <use xlink:href="#SimSun-50" x="150"/>
     </g>
    </g>
    <g id="line2d_33">
     <path d="M 483.67375 50.297656 
L 493.67375 50.297656 
L 503.67375 50.297656 
" style="fill: none; stroke: #45b7d1; stroke-width: 2; stroke-linecap: round"/>
     <g>
      <use xlink:href="#md3afd537ab" x="493.67375" y="50.297656" style="fill: #45b7d1; stroke: #45b7d1; stroke-linejoin: miter"/>
     </g>
    </g>
    <g id="text_18">
     <!-- Grad-CAM -->
     <g style="fill: #262626" transform="translate(511.67375 53.797656)scale(0.1 -0.1)">
      <defs>
       <path id="SimSun-47" d="M 1625 4250 
Q 1250 4250 937 3737 
Q 625 3225 625 2175 
Q 625 1475 862 850 
Q 1100 225 1650 225 
Q 1925 225 2087 337 
Q 2250 450 2275 675 
L 2275 1525 
Q 2275 1675 2200 1750 
Q 2125 1825 1975 1825 
L 1825 1825 
L 1825 1975 
L 3075 1975 
L 3075 1825 
L 2950 1825 
Q 2825 1825 2750 1750 
Q 2675 1675 2675 1550 
L 2675 300 
Q 2625 325 2587 337 
Q 2550 350 2500 350 
Q 2450 350 2400 337 
Q 2350 325 2300 275 
Q 2150 150 1987 100 
Q 1825 50 1625 50 
Q 875 50 525 712 
Q 175 1375 175 2175 
Q 175 3100 587 3762 
Q 1000 4425 1625 4425 
Q 1775 4425 1975 4350 
Q 2175 4275 2225 4275 
Q 2300 4275 2375 4312 
Q 2450 4350 2500 4425 
L 2700 3300 
L 2550 3250 
Q 2400 3775 2175 4012 
Q 1950 4250 1625 4250 
z
" transform="scale(0.015625)"/>
       <path id="SimSun-72" d="M 1275 2125 
Q 1525 2525 1812 2737 
Q 2100 2950 2400 2950 
Q 2650 2950 2787 2837 
Q 2925 2725 2925 2575 
Q 2925 2450 2862 2375 
Q 2800 2300 2675 2300 
Q 2550 2300 2487 2375 
Q 2425 2450 2450 2575 
Q 2450 2650 2425 2700 
Q 2400 2750 2275 2750 
Q 2075 2750 1787 2500 
Q 1500 2250 1275 1800 
L 1275 450 
Q 1275 350 1337 300 
Q 1400 250 1500 250 
L 2050 250 
L 2050 100 
L 200 100 
L 200 250 
L 700 250 
Q 825 250 875 300 
Q 925 350 925 450 
L 925 2525 
Q 925 2625 875 2687 
Q 825 2750 700 2750 
L 225 2750 
L 225 2900 
L 425 2900 
Q 600 2900 837 2937 
Q 1075 2975 1200 3025 
L 1275 3025 
L 1275 2125 
z
" transform="scale(0.015625)"/>
       <path id="SimSun-61" d="M 1225 75 
Q 775 75 525 287 
Q 275 500 275 775 
Q 275 1225 662 1512 
Q 1050 1800 2200 1925 
L 2200 2225 
Q 2200 2475 2087 2637 
Q 1975 2800 1575 2800 
Q 1150 2800 975 2662 
Q 800 2525 850 2375 
Q 875 2325 875 2275 
Q 875 2225 837 2150 
Q 800 2075 650 2075 
Q 550 2075 487 2137 
Q 425 2200 425 2325 
Q 425 2550 750 2750 
Q 1075 2950 1550 2950 
Q 2050 2950 2300 2762 
Q 2550 2575 2550 2225 
L 2550 575 
Q 2550 375 2587 337 
Q 2625 300 2725 300 
Q 2850 300 2900 412 
Q 2950 525 2950 725 
L 3075 725 
Q 3075 375 2950 237 
Q 2825 100 2625 100 
Q 2450 100 2350 175 
Q 2250 250 2200 425 
Q 1950 250 1737 162 
Q 1525 75 1225 75 
z
M 700 850 
Q 700 625 837 437 
Q 975 250 1275 250 
Q 1500 250 1725 337 
Q 1950 425 2200 600 
L 2200 1775 
Q 1350 1675 1025 1437 
Q 700 1200 700 850 
z
" transform="scale(0.015625)"/>
       <path id="SimSun-64" d="M 2300 2350 
Q 2175 2550 1975 2637 
Q 1775 2725 1575 2725 
Q 1200 2725 987 2375 
Q 775 2025 775 1450 
Q 775 850 975 562 
Q 1175 275 1550 275 
Q 1825 275 2012 450 
Q 2200 625 2300 975 
L 2300 2350 
z
M 1475 75 
Q 1025 75 700 437 
Q 375 800 375 1500 
Q 375 2150 725 2537 
Q 1075 2925 1550 2925 
Q 1750 2925 1962 2837 
Q 2175 2750 2300 2575 
L 2300 3925 
Q 2300 4075 2250 4150 
Q 2200 4225 2075 4225 
L 1875 4225 
L 1875 4375 
L 2150 4375 
Q 2275 4375 2400 4425 
Q 2525 4475 2650 4575 
L 2650 625 
Q 2650 500 2700 450 
Q 2750 400 2850 400 
L 3025 400 
L 3025 250 
L 2875 250 
Q 2775 250 2637 212 
Q 2500 175 2350 100 
L 2300 100 
L 2300 575 
Q 2175 350 1962 212 
Q 1750 75 1475 75 
z
" transform="scale(0.015625)"/>
       <path id="SimSun-2d" d="M 200 2225 
L 200 2450 
L 2975 2450 
L 2975 2225 
L 200 2225 
z
" transform="scale(0.015625)"/>
       <path id="SimSun-43" d="M 1725 50 
Q 1025 50 612 575 
Q 200 1100 200 2225 
Q 200 3175 637 3800 
Q 1075 4425 1825 4425 
Q 2000 4425 2175 4375 
Q 2350 4300 2475 4300 
Q 2575 4300 2637 4325 
Q 2700 4350 2750 4425 
L 2975 3325 
L 2825 3275 
Q 2675 3750 2425 4000 
Q 2175 4250 1775 4250 
Q 1250 4250 962 3675 
Q 675 3100 675 2250 
Q 675 1325 925 800 
Q 1175 275 1750 275 
Q 2150 275 2437 562 
Q 2725 850 2825 1325 
L 2975 1250 
Q 2850 725 2512 387 
Q 2175 50 1725 50 
z
" transform="scale(0.015625)"/>
      </defs>
      <use xlink:href="#SimSun-47"/>
      <use xlink:href="#SimSun-72" x="50"/>
      <use xlink:href="#SimSun-61" x="100"/>
      <use xlink:href="#SimSun-64" x="150"/>
      <use xlink:href="#SimSun-2d" x="200"/>
      <use xlink:href="#SimSun-43" x="250"/>
      <use xlink:href="#SimSun-41" x="300"/>
      <use xlink:href="#SimSun-4d" x="350"/>
     </g>
    </g>
    <g id="line2d_34">
     <path d="M 483.67375 63.735156 
L 493.67375 63.735156 
L 503.67375 63.735156 
" style="fill: none; stroke: #ffa07a; stroke-width: 2; stroke-linecap: round"/>
     <g>
      <use xlink:href="#m701242b1d1" x="493.67375" y="63.735156" style="fill: #ffa07a; stroke: #ffa07a; stroke-linejoin: miter"/>
     </g>
    </g>
    <g id="text_19">
     <!-- IG -->
     <g style="fill: #262626" transform="translate(511.67375 67.235156)scale(0.1 -0.1)">
      <use xlink:href="#SimSun-49"/>
      <use xlink:href="#SimSun-47" x="50"/>
     </g>
    </g>
   </g>
  </g>
 </g>
 <defs>
  <clipPath id="p43bd7b2825">
   <rect x="46.7625" y="10.774219" width="513.91125" height="299.475"/>
  </clipPath>
 </defs>
</svg>
