<?xml version="1.0" encoding="utf-8" standalone="no"?>
<!DOCTYPE svg PUBLIC "-//W3C//DTD SVG 1.1//EN"
  "http://www.w3.org/Graphics/SVG/1.1/DTD/svg11.dtd">
<svg xmlns:xlink="http://www.w3.org/1999/xlink" width="712.579975pt" height="204.583594pt" viewBox="0 0 712.579975 204.583594" xmlns="http://www.w3.org/2000/svg" version="1.1">
 <metadata>
  <rdf:RDF xmlns:dc="http://purl.org/dc/elements/1.1/" xmlns:cc="http://creativecommons.org/ns#" xmlns:rdf="http://www.w3.org/1999/02/22-rdf-syntax-ns#">
   <cc:Work>
    <dc:type rdf:resource="http://purl.org/dc/dcmitype/StillImage"/>
    <dc:date>2024-10-11T17:20:36.658082</dc:date>
    <dc:format>image/svg+xml</dc:format>
    <dc:creator>
     <cc:Agent>
      <dc:title>Matplotlib v3.8.0, https://matplotlib.org/</dc:title>
     </cc:Agent>
    </dc:creator>
   </cc:Work>
  </rdf:RDF>
 </metadata>
 <defs>
  <style type="text/css">*{stroke-linejoin: round; stroke-linecap: butt}</style>
 </defs>
 <g id="figure_1">
  <g id="patch_1">
   <path d="M 0 204.583594 
L 712.579975 204.583594 
L 712.579975 0 
L 0 0 
z
" style="fill: #ffffff"/>
  </g>
  <g id="axes_1">
   <g id="patch_2">
    <path d="M 46.964375 162.849375 
L 232.385767 162.849375 
L 232.385767 21.789375 
L 46.964375 21.789375 
z
" style="fill: #eaeaf2"/>
   </g>
   <g id="matplotlib.axis_1">
    <g id="xtick_1">
     <g id="line2d_1">
      <path d="M 52.382533 162.849375 
L 52.382533 21.789375 
" clip-path="url(#pb8529f1c80)" style="fill: none; stroke: #ffffff; stroke-linecap: round"/>
     </g>
     <g id="text_1">
      <!-- 0 -->
      <g style="fill: #262626" transform="translate(49.324017 180.222969) scale(0.11 -0.11)">
       <defs>
        <path id="ArialMT-30" d="M 266 2259 
Q 266 3072 433 3567 
Q 600 4063 929 4331 
Q 1259 4600 1759 4600 
Q 2128 4600 2406 4451 
Q 2684 4303 2865 4023 
Q 3047 3744 3150 3342 
Q 3253 2941 3253 2259 
Q 3253 1453 3087 958 
Q 2922 463 2592 192 
Q 2263 -78 1759 -78 
Q 1097 -78 719 397 
Q 266 969 266 2259 
z
M 844 2259 
Q 844 1131 1108 757 
Q 1372 384 1759 384 
Q 2147 384 2411 759 
Q 2675 1134 2675 2259 
Q 2675 3391 2411 3762 
Q 2147 4134 1753 4134 
Q 1366 4134 1134 3806 
Q 844 3388 844 2259 
z
" transform="scale(0.015625)"/>
       </defs>
       <use xlink:href="#ArialMT-30"/>
      </g>
     </g>
    </g>
    <g id="xtick_2">
     <g id="line2d_2">
      <path d="M 112.584283 162.849375 
L 112.584283 21.789375 
" clip-path="url(#pb8529f1c80)" style="fill: none; stroke: #ffffff; stroke-linecap: round"/>
     </g>
     <g id="text_2">
      <!-- 20 -->
      <g style="fill: #262626" transform="translate(106.467252 180.222969) scale(0.11 -0.11)">
       <defs>
        <path id="ArialMT-32" d="M 3222 541 
L 3222 0 
L 194 0 
Q 188 203 259 391 
Q 375 700 629 1000 
Q 884 1300 1366 1694 
Q 2113 2306 2375 2664 
Q 2638 3022 2638 3341 
Q 2638 3675 2398 3904 
Q 2159 4134 1775 4134 
Q 1369 4134 1125 3890 
Q 881 3647 878 3216 
L 300 3275 
Q 359 3922 746 4261 
Q 1134 4600 1788 4600 
Q 2447 4600 2831 4234 
Q 3216 3869 3216 3328 
Q 3216 3053 3103 2787 
Q 2991 2522 2730 2228 
Q 2469 1934 1863 1422 
Q 1356 997 1212 845 
Q 1069 694 975 541 
L 3222 541 
z
" transform="scale(0.015625)"/>
       </defs>
       <use xlink:href="#ArialMT-32"/>
       <use xlink:href="#ArialMT-30" x="55.615234"/>
      </g>
     </g>
    </g>
    <g id="xtick_3">
     <g id="line2d_3">
      <path d="M 172.786034 162.849375 
L 172.786034 21.789375 
" clip-path="url(#pb8529f1c80)" style="fill: none; stroke: #ffffff; stroke-linecap: round"/>
     </g>
     <g id="text_3">
      <!-- 40 -->
      <g style="fill: #262626" transform="translate(166.669003 180.222969) scale(0.11 -0.11)">
       <defs>
        <path id="ArialMT-34" d="M 2069 0 
L 2069 1097 
L 81 1097 
L 81 1613 
L 2172 4581 
L 2631 4581 
L 2631 1613 
L 3250 1613 
L 3250 1097 
L 2631 1097 
L 2631 0 
L 2069 0 
z
M 2069 1613 
L 2069 3678 
L 634 1613 
L 2069 1613 
z
" transform="scale(0.015625)"/>
       </defs>
       <use xlink:href="#ArialMT-34"/>
       <use xlink:href="#ArialMT-30" x="55.615234"/>
      </g>
     </g>
    </g>
    <g id="text_4">
     <!-- Number of reserved features -->
     <g style="fill: #262626" transform="translate(63.312884 194.998594) scale(0.12 -0.12)">
      <defs>
       <path id="ArialMT-4e" d="M 488 0 
L 488 4581 
L 1109 4581 
L 3516 984 
L 3516 4581 
L 4097 4581 
L 4097 0 
L 3475 0 
L 1069 3600 
L 1069 0 
L 488 0 
z
" transform="scale(0.015625)"/>
       <path id="ArialMT-75" d="M 2597 0 
L 2597 488 
Q 2209 -75 1544 -75 
Q 1250 -75 995 37 
Q 741 150 617 320 
Q 494 491 444 738 
Q 409 903 409 1263 
L 409 3319 
L 972 3319 
L 972 1478 
Q 972 1038 1006 884 
Q 1059 663 1231 536 
Q 1403 409 1656 409 
Q 1909 409 2131 539 
Q 2353 669 2445 892 
Q 2538 1116 2538 1541 
L 2538 3319 
L 3100 3319 
L 3100 0 
L 2597 0 
z
" transform="scale(0.015625)"/>
       <path id="ArialMT-6d" d="M 422 0 
L 422 3319 
L 925 3319 
L 925 2853 
Q 1081 3097 1340 3245 
Q 1600 3394 1931 3394 
Q 2300 3394 2536 3241 
Q 2772 3088 2869 2813 
Q 3263 3394 3894 3394 
Q 4388 3394 4653 3120 
Q 4919 2847 4919 2278 
L 4919 0 
L 4359 0 
L 4359 2091 
Q 4359 2428 4304 2576 
Q 4250 2725 4106 2815 
Q 3963 2906 3769 2906 
Q 3419 2906 3187 2673 
Q 2956 2441 2956 1928 
L 2956 0 
L 2394 0 
L 2394 2156 
Q 2394 2531 2256 2718 
Q 2119 2906 1806 2906 
Q 1569 2906 1367 2781 
Q 1166 2656 1075 2415 
Q 984 2175 984 1722 
L 984 0 
L 422 0 
z
" transform="scale(0.015625)"/>
       <path id="ArialMT-62" d="M 941 0 
L 419 0 
L 419 4581 
L 981 4581 
L 981 2947 
Q 1338 3394 1891 3394 
Q 2197 3394 2470 3270 
Q 2744 3147 2920 2923 
Q 3097 2700 3197 2384 
Q 3297 2069 3297 1709 
Q 3297 856 2875 390 
Q 2453 -75 1863 -75 
Q 1275 -75 941 416 
L 941 0 
z
M 934 1684 
Q 934 1088 1097 822 
Q 1363 388 1816 388 
Q 2184 388 2453 708 
Q 2722 1028 2722 1663 
Q 2722 2313 2464 2622 
Q 2206 2931 1841 2931 
Q 1472 2931 1203 2611 
Q 934 2291 934 1684 
z
" transform="scale(0.015625)"/>
       <path id="ArialMT-65" d="M 2694 1069 
L 3275 997 
Q 3138 488 2766 206 
Q 2394 -75 1816 -75 
Q 1088 -75 661 373 
Q 234 822 234 1631 
Q 234 2469 665 2931 
Q 1097 3394 1784 3394 
Q 2450 3394 2872 2941 
Q 3294 2488 3294 1666 
Q 3294 1616 3291 1516 
L 816 1516 
Q 847 969 1125 678 
Q 1403 388 1819 388 
Q 2128 388 2347 550 
Q 2566 713 2694 1069 
z
M 847 1978 
L 2700 1978 
Q 2663 2397 2488 2606 
Q 2219 2931 1791 2931 
Q 1403 2931 1139 2672 
Q 875 2413 847 1978 
z
" transform="scale(0.015625)"/>
       <path id="ArialMT-72" d="M 416 0 
L 416 3319 
L 922 3319 
L 922 2816 
Q 1116 3169 1280 3281 
Q 1444 3394 1641 3394 
Q 1925 3394 2219 3213 
L 2025 2691 
Q 1819 2813 1613 2813 
Q 1428 2813 1281 2702 
Q 1134 2591 1072 2394 
Q 978 2094 978 1738 
L 978 0 
L 416 0 
z
" transform="scale(0.015625)"/>
       <path id="ArialMT-20" transform="scale(0.015625)"/>
       <path id="ArialMT-6f" d="M 213 1659 
Q 213 2581 725 3025 
Q 1153 3394 1769 3394 
Q 2453 3394 2887 2945 
Q 3322 2497 3322 1706 
Q 3322 1066 3130 698 
Q 2938 331 2570 128 
Q 2203 -75 1769 -75 
Q 1072 -75 642 372 
Q 213 819 213 1659 
z
M 791 1659 
Q 791 1022 1069 705 
Q 1347 388 1769 388 
Q 2188 388 2466 706 
Q 2744 1025 2744 1678 
Q 2744 2294 2464 2611 
Q 2184 2928 1769 2928 
Q 1347 2928 1069 2612 
Q 791 2297 791 1659 
z
" transform="scale(0.015625)"/>
       <path id="ArialMT-66" d="M 556 0 
L 556 2881 
L 59 2881 
L 59 3319 
L 556 3319 
L 556 3672 
Q 556 4006 616 4169 
Q 697 4388 901 4523 
Q 1106 4659 1475 4659 
Q 1713 4659 2000 4603 
L 1916 4113 
Q 1741 4144 1584 4144 
Q 1328 4144 1222 4034 
Q 1116 3925 1116 3625 
L 1116 3319 
L 1763 3319 
L 1763 2881 
L 1116 2881 
L 1116 0 
L 556 0 
z
" transform="scale(0.015625)"/>
       <path id="ArialMT-73" d="M 197 991 
L 753 1078 
Q 800 744 1014 566 
Q 1228 388 1613 388 
Q 2000 388 2187 545 
Q 2375 703 2375 916 
Q 2375 1106 2209 1216 
Q 2094 1291 1634 1406 
Q 1016 1563 777 1677 
Q 538 1791 414 1992 
Q 291 2194 291 2438 
Q 291 2659 392 2848 
Q 494 3038 669 3163 
Q 800 3259 1026 3326 
Q 1253 3394 1513 3394 
Q 1903 3394 2198 3281 
Q 2494 3169 2634 2976 
Q 2775 2784 2828 2463 
L 2278 2388 
Q 2241 2644 2061 2787 
Q 1881 2931 1553 2931 
Q 1166 2931 1000 2803 
Q 834 2675 834 2503 
Q 834 2394 903 2306 
Q 972 2216 1119 2156 
Q 1203 2125 1616 2013 
Q 2213 1853 2448 1751 
Q 2684 1650 2818 1456 
Q 2953 1263 2953 975 
Q 2953 694 2789 445 
Q 2625 197 2315 61 
Q 2006 -75 1616 -75 
Q 969 -75 630 194 
Q 291 463 197 991 
z
" transform="scale(0.015625)"/>
       <path id="ArialMT-76" d="M 1344 0 
L 81 3319 
L 675 3319 
L 1388 1331 
Q 1503 1009 1600 663 
Q 1675 925 1809 1294 
L 2547 3319 
L 3125 3319 
L 1869 0 
L 1344 0 
z
" transform="scale(0.015625)"/>
       <path id="ArialMT-64" d="M 2575 0 
L 2575 419 
Q 2259 -75 1647 -75 
Q 1250 -75 917 144 
Q 584 363 401 755 
Q 219 1147 219 1656 
Q 219 2153 384 2558 
Q 550 2963 881 3178 
Q 1213 3394 1622 3394 
Q 1922 3394 2156 3267 
Q 2391 3141 2538 2938 
L 2538 4581 
L 3097 4581 
L 3097 0 
L 2575 0 
z
M 797 1656 
Q 797 1019 1065 703 
Q 1334 388 1700 388 
Q 2069 388 2326 689 
Q 2584 991 2584 1609 
Q 2584 2291 2321 2609 
Q 2059 2928 1675 2928 
Q 1300 2928 1048 2622 
Q 797 2316 797 1656 
z
" transform="scale(0.015625)"/>
       <path id="ArialMT-61" d="M 2588 409 
Q 2275 144 1986 34 
Q 1697 -75 1366 -75 
Q 819 -75 525 192 
Q 231 459 231 875 
Q 231 1119 342 1320 
Q 453 1522 633 1644 
Q 813 1766 1038 1828 
Q 1203 1872 1538 1913 
Q 2219 1994 2541 2106 
Q 2544 2222 2544 2253 
Q 2544 2597 2384 2738 
Q 2169 2928 1744 2928 
Q 1347 2928 1158 2789 
Q 969 2650 878 2297 
L 328 2372 
Q 403 2725 575 2942 
Q 747 3159 1072 3276 
Q 1397 3394 1825 3394 
Q 2250 3394 2515 3294 
Q 2781 3194 2906 3042 
Q 3031 2891 3081 2659 
Q 3109 2516 3109 2141 
L 3109 1391 
Q 3109 606 3145 398 
Q 3181 191 3288 0 
L 2700 0 
Q 2613 175 2588 409 
z
M 2541 1666 
Q 2234 1541 1622 1453 
Q 1275 1403 1131 1340 
Q 988 1278 909 1158 
Q 831 1038 831 891 
Q 831 666 1001 516 
Q 1172 366 1500 366 
Q 1825 366 2078 508 
Q 2331 650 2450 897 
Q 2541 1088 2541 1459 
L 2541 1666 
z
" transform="scale(0.015625)"/>
       <path id="ArialMT-74" d="M 1650 503 
L 1731 6 
Q 1494 -44 1306 -44 
Q 1000 -44 831 53 
Q 663 150 594 308 
Q 525 466 525 972 
L 525 2881 
L 113 2881 
L 113 3319 
L 525 3319 
L 525 4141 
L 1084 4478 
L 1084 3319 
L 1650 3319 
L 1650 2881 
L 1084 2881 
L 1084 941 
Q 1084 700 1114 631 
Q 1144 563 1211 522 
Q 1278 481 1403 481 
Q 1497 481 1650 503 
z
" transform="scale(0.015625)"/>
      </defs>
      <use xlink:href="#ArialMT-4e"/>
      <use xlink:href="#ArialMT-75" x="72.216797"/>
      <use xlink:href="#ArialMT-6d" x="127.832031"/>
      <use xlink:href="#ArialMT-62" x="211.132812"/>
      <use xlink:href="#ArialMT-65" x="266.748047"/>
      <use xlink:href="#ArialMT-72" x="322.363281"/>
      <use xlink:href="#ArialMT-20" x="355.664062"/>
      <use xlink:href="#ArialMT-6f" x="383.447266"/>
      <use xlink:href="#ArialMT-66" x="439.0625"/>
      <use xlink:href="#ArialMT-20" x="466.845703"/>
      <use xlink:href="#ArialMT-72" x="494.628906"/>
      <use xlink:href="#ArialMT-65" x="527.929688"/>
      <use xlink:href="#ArialMT-73" x="583.544922"/>
      <use xlink:href="#ArialMT-65" x="633.544922"/>
      <use xlink:href="#ArialMT-72" x="689.160156"/>
      <use xlink:href="#ArialMT-76" x="722.460938"/>
      <use xlink:href="#ArialMT-65" x="772.460938"/>
      <use xlink:href="#ArialMT-64" x="828.076172"/>
      <use xlink:href="#ArialMT-20" x="883.691406"/>
      <use xlink:href="#ArialMT-66" x="911.474609"/>
      <use xlink:href="#ArialMT-65" x="939.257812"/>
      <use xlink:href="#ArialMT-61" x="994.873047"/>
      <use xlink:href="#ArialMT-74" x="1050.488281"/>
      <use xlink:href="#ArialMT-75" x="1078.271484"/>
      <use xlink:href="#ArialMT-72" x="1133.886719"/>
      <use xlink:href="#ArialMT-65" x="1167.1875"/>
      <use xlink:href="#ArialMT-73" x="1222.802734"/>
     </g>
    </g>
   </g>
   <g id="matplotlib.axis_2">
    <g id="ytick_1">
     <g id="line2d_4">
      <path d="M 46.964375 162.849375 
L 232.385767 162.849375 
" clip-path="url(#pb8529f1c80)" style="fill: none; stroke: #ffffff; stroke-linecap: round"/>
     </g>
     <g id="text_5">
      <!-- 0.0 -->
      <g style="fill: #262626" transform="translate(22.174375 166.786172) scale(0.11 -0.11)">
       <defs>
        <path id="ArialMT-2e" d="M 581 0 
L 581 641 
L 1222 641 
L 1222 0 
L 581 0 
z
" transform="scale(0.015625)"/>
       </defs>
       <use xlink:href="#ArialMT-30"/>
       <use xlink:href="#ArialMT-2e" x="55.615234"/>
       <use xlink:href="#ArialMT-30" x="83.398438"/>
      </g>
     </g>
    </g>
    <g id="ytick_2">
     <g id="line2d_5">
      <path d="M 46.964375 134.637375 
L 232.385767 134.637375 
" clip-path="url(#pb8529f1c80)" style="fill: none; stroke: #ffffff; stroke-linecap: round"/>
     </g>
     <g id="text_6">
      <!-- 0.2 -->
      <g style="fill: #262626" transform="translate(22.174375 138.574172) scale(0.11 -0.11)">
       <use xlink:href="#ArialMT-30"/>
       <use xlink:href="#ArialMT-2e" x="55.615234"/>
       <use xlink:href="#ArialMT-32" x="83.398438"/>
      </g>
     </g>
    </g>
    <g id="ytick_3">
     <g id="line2d_6">
      <path d="M 46.964375 106.425375 
L 232.385767 106.425375 
" clip-path="url(#pb8529f1c80)" style="fill: none; stroke: #ffffff; stroke-linecap: round"/>
     </g>
     <g id="text_7">
      <!-- 0.4 -->
      <g style="fill: #262626" transform="translate(22.174375 110.362172) scale(0.11 -0.11)">
       <use xlink:href="#ArialMT-30"/>
       <use xlink:href="#ArialMT-2e" x="55.615234"/>
       <use xlink:href="#ArialMT-34" x="83.398438"/>
      </g>
     </g>
    </g>
    <g id="ytick_4">
     <g id="line2d_7">
      <path d="M 46.964375 78.213375 
L 232.385767 78.213375 
" clip-path="url(#pb8529f1c80)" style="fill: none; stroke: #ffffff; stroke-linecap: round"/>
     </g>
     <g id="text_8">
      <!-- 0.6 -->
      <g style="fill: #262626" transform="translate(22.174375 82.150172) scale(0.11 -0.11)">
       <defs>
        <path id="ArialMT-36" d="M 3184 3459 
L 2625 3416 
Q 2550 3747 2413 3897 
Q 2184 4138 1850 4138 
Q 1581 4138 1378 3988 
Q 1113 3794 959 3422 
Q 806 3050 800 2363 
Q 1003 2672 1297 2822 
Q 1591 2972 1913 2972 
Q 2475 2972 2870 2558 
Q 3266 2144 3266 1488 
Q 3266 1056 3080 686 
Q 2894 316 2569 119 
Q 2244 -78 1831 -78 
Q 1128 -78 684 439 
Q 241 956 241 2144 
Q 241 3472 731 4075 
Q 1159 4600 1884 4600 
Q 2425 4600 2770 4297 
Q 3116 3994 3184 3459 
z
M 888 1484 
Q 888 1194 1011 928 
Q 1134 663 1356 523 
Q 1578 384 1822 384 
Q 2178 384 2434 671 
Q 2691 959 2691 1453 
Q 2691 1928 2437 2201 
Q 2184 2475 1800 2475 
Q 1419 2475 1153 2201 
Q 888 1928 888 1484 
z
" transform="scale(0.015625)"/>
       </defs>
       <use xlink:href="#ArialMT-30"/>
       <use xlink:href="#ArialMT-2e" x="55.615234"/>
       <use xlink:href="#ArialMT-36" x="83.398438"/>
      </g>
     </g>
    </g>
    <g id="ytick_5">
     <g id="line2d_8">
      <path d="M 46.964375 50.001375 
L 232.385767 50.001375 
" clip-path="url(#pb8529f1c80)" style="fill: none; stroke: #ffffff; stroke-linecap: round"/>
     </g>
     <g id="text_9">
      <!-- 0.8 -->
      <g style="fill: #262626" transform="translate(22.174375 53.938172) scale(0.11 -0.11)">
       <defs>
        <path id="ArialMT-38" d="M 1131 2484 
Q 781 2613 612 2850 
Q 444 3088 444 3419 
Q 444 3919 803 4259 
Q 1163 4600 1759 4600 
Q 2359 4600 2725 4251 
Q 3091 3903 3091 3403 
Q 3091 3084 2923 2848 
Q 2756 2613 2416 2484 
Q 2838 2347 3058 2040 
Q 3278 1734 3278 1309 
Q 3278 722 2862 322 
Q 2447 -78 1769 -78 
Q 1091 -78 675 323 
Q 259 725 259 1325 
Q 259 1772 486 2073 
Q 713 2375 1131 2484 
z
M 1019 3438 
Q 1019 3113 1228 2906 
Q 1438 2700 1772 2700 
Q 2097 2700 2305 2904 
Q 2513 3109 2513 3406 
Q 2513 3716 2298 3927 
Q 2084 4138 1766 4138 
Q 1444 4138 1231 3931 
Q 1019 3725 1019 3438 
z
M 838 1322 
Q 838 1081 952 856 
Q 1066 631 1291 507 
Q 1516 384 1775 384 
Q 2178 384 2440 643 
Q 2703 903 2703 1303 
Q 2703 1709 2433 1975 
Q 2163 2241 1756 2241 
Q 1359 2241 1098 1978 
Q 838 1716 838 1322 
z
" transform="scale(0.015625)"/>
       </defs>
       <use xlink:href="#ArialMT-30"/>
       <use xlink:href="#ArialMT-2e" x="55.615234"/>
       <use xlink:href="#ArialMT-38" x="83.398438"/>
      </g>
     </g>
    </g>
    <g id="ytick_6">
     <g id="line2d_9">
      <path d="M 46.964375 21.789375 
L 232.385767 21.789375 
" clip-path="url(#pb8529f1c80)" style="fill: none; stroke: #ffffff; stroke-linecap: round"/>
     </g>
     <g id="text_10">
      <!-- 1.0 -->
      <g style="fill: #262626" transform="translate(22.174375 25.726172) scale(0.11 -0.11)">
       <defs>
        <path id="ArialMT-31" d="M 2384 0 
L 1822 0 
L 1822 3584 
Q 1619 3391 1289 3197 
Q 959 3003 697 2906 
L 697 3450 
Q 1169 3672 1522 3987 
Q 1875 4303 2022 4600 
L 2384 4600 
L 2384 0 
z
" transform="scale(0.015625)"/>
       </defs>
       <use xlink:href="#ArialMT-31"/>
       <use xlink:href="#ArialMT-2e" x="55.615234"/>
       <use xlink:href="#ArialMT-30" x="83.398438"/>
      </g>
     </g>
    </g>
    <g id="text_11">
     <!-- Faithfulness score -->
     <g style="fill: #262626" transform="translate(15.789375 141.004687) rotate(-90) scale(0.12 -0.12)">
      <defs>
       <path id="ArialMT-46" d="M 525 0 
L 525 4581 
L 3616 4581 
L 3616 4041 
L 1131 4041 
L 1131 2622 
L 3281 2622 
L 3281 2081 
L 1131 2081 
L 1131 0 
L 525 0 
z
" transform="scale(0.015625)"/>
       <path id="ArialMT-69" d="M 425 3934 
L 425 4581 
L 988 4581 
L 988 3934 
L 425 3934 
z
M 425 0 
L 425 3319 
L 988 3319 
L 988 0 
L 425 0 
z
" transform="scale(0.015625)"/>
       <path id="ArialMT-68" d="M 422 0 
L 422 4581 
L 984 4581 
L 984 2938 
Q 1378 3394 1978 3394 
Q 2347 3394 2619 3248 
Q 2891 3103 3008 2847 
Q 3125 2591 3125 2103 
L 3125 0 
L 2563 0 
L 2563 2103 
Q 2563 2525 2380 2717 
Q 2197 2909 1863 2909 
Q 1613 2909 1392 2779 
Q 1172 2650 1078 2428 
Q 984 2206 984 1816 
L 984 0 
L 422 0 
z
" transform="scale(0.015625)"/>
       <path id="ArialMT-6c" d="M 409 0 
L 409 4581 
L 972 4581 
L 972 0 
L 409 0 
z
" transform="scale(0.015625)"/>
       <path id="ArialMT-6e" d="M 422 0 
L 422 3319 
L 928 3319 
L 928 2847 
Q 1294 3394 1984 3394 
Q 2284 3394 2536 3286 
Q 2788 3178 2913 3003 
Q 3038 2828 3088 2588 
Q 3119 2431 3119 2041 
L 3119 0 
L 2556 0 
L 2556 2019 
Q 2556 2363 2490 2533 
Q 2425 2703 2258 2804 
Q 2091 2906 1866 2906 
Q 1506 2906 1245 2678 
Q 984 2450 984 1813 
L 984 0 
L 422 0 
z
" transform="scale(0.015625)"/>
       <path id="ArialMT-63" d="M 2588 1216 
L 3141 1144 
Q 3050 572 2676 248 
Q 2303 -75 1759 -75 
Q 1078 -75 664 370 
Q 250 816 250 1647 
Q 250 2184 428 2587 
Q 606 2991 970 3192 
Q 1334 3394 1763 3394 
Q 2303 3394 2647 3120 
Q 2991 2847 3088 2344 
L 2541 2259 
Q 2463 2594 2264 2762 
Q 2066 2931 1784 2931 
Q 1359 2931 1093 2626 
Q 828 2322 828 1663 
Q 828 994 1084 691 
Q 1341 388 1753 388 
Q 2084 388 2306 591 
Q 2528 794 2588 1216 
z
" transform="scale(0.015625)"/>
      </defs>
      <use xlink:href="#ArialMT-46"/>
      <use xlink:href="#ArialMT-61" x="61.083984"/>
      <use xlink:href="#ArialMT-69" x="116.699219"/>
      <use xlink:href="#ArialMT-74" x="138.916016"/>
      <use xlink:href="#ArialMT-68" x="166.699219"/>
      <use xlink:href="#ArialMT-66" x="222.314453"/>
      <use xlink:href="#ArialMT-75" x="250.097656"/>
      <use xlink:href="#ArialMT-6c" x="305.712891"/>
      <use xlink:href="#ArialMT-6e" x="327.929688"/>
      <use xlink:href="#ArialMT-65" x="383.544922"/>
      <use xlink:href="#ArialMT-73" x="439.160156"/>
      <use xlink:href="#ArialMT-73" x="489.160156"/>
      <use xlink:href="#ArialMT-20" x="539.160156"/>
      <use xlink:href="#ArialMT-73" x="566.943359"/>
      <use xlink:href="#ArialMT-63" x="616.943359"/>
      <use xlink:href="#ArialMT-6f" x="666.943359"/>
      <use xlink:href="#ArialMT-72" x="722.558594"/>
      <use xlink:href="#ArialMT-65" x="755.859375"/>
     </g>
    </g>
   </g>
   <g id="PolyCollection_1"/>
   <g id="PolyCollection_2"/>
   <g id="PolyCollection_3"/>
   <g id="PolyCollection_4"/>
   <g id="line2d_10">
    <path d="M 55.39262 73.657137 
L 58.402708 73.826409 
L 61.412795 73.826409 
L 64.422883 73.925151 
L 67.43297 73.784091 
L 70.443058 73.882833 
L 73.453145 73.699455 
L 76.463233 73.826409 
L 79.47332 73.657137 
L 82.483408 73.826409 
L 85.493495 73.882833 
L 88.503583 73.826409 
L 91.513671 69.763881 
L 94.523758 68.973945 
L 97.533846 69.411231 
L 100.543933 77.028471 
L 103.554021 74.094423 
L 106.564108 63.359757 
L 109.574196 73.219851 
L 112.584283 73.741773 
L 115.594371 75.674295 
L 118.604458 89.864931 
L 121.614546 78.171057 
L 124.624633 67.309437 
L 127.634721 62.174853 
L 130.644809 40.225917 
L 133.654896 53.809995 
L 136.664984 39.055119 
L 139.675071 41.453139 
L 142.685159 34.061595 
L 145.695246 31.423773 
L 148.705334 35.147757 
L 151.715421 38.829423 
L 154.725509 45.050169 
L 157.735596 29.364297 
L 160.745684 27.488199 
L 163.755771 31.028805 
L 166.765859 27.008595 
L 169.775947 27.967803 
L 172.786034 25.118391 
L 175.796122 24.808059 
L 178.806209 24.511833 
L 181.816297 24.243819 
L 184.826384 24.681105 
L 187.836472 24.370773 
L 190.846559 24.243819 
L 193.856647 23.891169 
L 196.866734 23.764215 
L 199.876822 23.721897 
L 202.886909 23.580837 
L 205.896997 23.411565 
L 208.907085 23.806533 
L 211.917172 23.848851 
L 214.92726 23.806533 
L 217.937347 23.496201 
L 220.947435 23.101233 
L 223.957522 21.789375 
" clip-path="url(#pb8529f1c80)" style="fill: none; stroke: #4c72b0; stroke-width: 1.5; stroke-linecap: round"/>
   </g>
   <g id="line2d_11">
    <path d="M 55.39262 73.657137 
L 58.402708 54.557613 
L 61.412795 68.663613 
L 64.422883 53.499663 
L 67.43297 57.801993 
L 70.443058 50.664357 
L 73.453145 51.976215 
L 76.463233 56.885103 
L 79.47332 56.391393 
L 82.483408 33.666627 
L 85.493495 36.374979 
L 88.503583 39.492405 
L 91.513671 32.397087 
L 94.523758 36.459615 
L 97.533846 31.564833 
L 100.543933 31.818741 
L 103.554021 35.853057 
L 106.564108 35.542725 
L 109.574196 32.213709 
L 112.584283 36.163389 
L 115.594371 33.356295 
L 118.604458 29.900325 
L 121.614546 30.464565 
L 124.624633 28.235817 
L 127.634721 31.945695 
L 130.644809 27.657471 
L 133.654896 27.615153 
L 136.664984 27.135549 
L 139.675071 27.840849 
L 142.685159 27.699789 
L 145.695246 27.008595 
L 148.705334 27.784425 
L 151.715421 29.237343 
L 154.725509 27.403563 
L 157.735596 26.782899 
L 160.745684 27.925485 
L 163.755771 26.077599 
L 166.765859 26.119917 
L 169.775947 25.640313 
L 172.786034 27.177867 
L 175.796122 26.698263 
L 178.806209 25.640313 
L 181.816297 25.640313 
L 184.826384 26.613627 
L 187.836472 25.555677 
L 190.846559 25.950645 
L 193.856647 25.866009 
L 196.866734 25.781373 
L 199.876822 25.597995 
L 202.886909 25.118391 
L 205.896997 24.991437 
L 208.907085 24.850377 
L 211.917172 24.723423 
L 214.92726 24.159183 
L 217.937347 24.723423 
L 220.947435 23.806533 
L 223.957522 21.789375 
" clip-path="url(#pb8529f1c80)" style="fill: none; stroke: #dd8452; stroke-width: 1.5; stroke-linecap: round"/>
   </g>
   <g id="line2d_12">
    <path d="M 55.39262 49.564089 
L 58.402708 46.545405 
L 61.412795 46.982691 
L 64.422883 98.850453 
L 67.43297 109.049091 
L 70.443058 108.442533 
L 73.453145 110.544327 
L 76.463233 110.713599 
L 79.47332 110.713599 
L 82.483408 110.713599 
L 85.493495 110.628963 
L 88.503583 110.671281 
L 91.513671 110.812341 
L 94.523758 110.812341 
L 97.533846 110.812341 
L 100.543933 110.812341 
L 103.554021 110.812341 
L 106.564108 110.812341 
L 109.574196 110.812341 
L 112.584283 110.812341 
L 115.594371 110.812341 
L 118.604458 110.812341 
L 121.614546 110.812341 
L 124.624633 110.812341 
L 127.634721 110.812341 
L 130.644809 110.812341 
L 133.654896 110.812341 
L 136.664984 110.812341 
L 139.675071 110.812341 
L 142.685159 110.812341 
L 145.695246 110.812341 
L 148.705334 110.812341 
L 151.715421 110.812341 
L 154.725509 110.812341 
L 157.735596 110.812341 
L 160.745684 110.812341 
L 163.755771 110.812341 
L 166.765859 110.812341 
L 169.775947 110.812341 
L 172.786034 110.812341 
L 175.796122 110.812341 
L 178.806209 110.812341 
L 181.816297 110.812341 
L 184.826384 110.812341 
L 187.836472 110.812341 
L 190.846559 110.812341 
L 193.856647 110.812341 
L 196.866734 110.812341 
L 199.876822 110.812341 
L 202.886909 110.812341 
L 205.896997 110.812341 
L 208.907085 110.812341 
L 211.917172 110.812341 
L 214.92726 110.812341 
L 217.937347 110.812341 
L 220.947435 110.812341 
L 223.957522 110.812341 
" clip-path="url(#pb8529f1c80)" style="fill: none; stroke: #55a868; stroke-width: 1.5; stroke-linecap: round"/>
   </g>
   <g id="line2d_13">
    <path d="M 55.39262 58.154643 
L 58.402708 56.306757 
L 61.412795 36.953325 
L 64.422883 39.577041 
L 67.43297 78.777615 
L 70.443058 105.550803 
L 73.453145 105.367425 
L 76.463233 110.233995 
L 79.47332 110.812341 
L 82.483408 110.812341 
L 85.493495 110.812341 
L 88.503583 110.812341 
L 91.513671 110.812341 
L 94.523758 110.812341 
L 97.533846 110.812341 
L 100.543933 110.812341 
L 103.554021 110.812341 
L 106.564108 110.812341 
L 109.574196 110.812341 
L 112.584283 110.812341 
L 115.594371 110.812341 
L 118.604458 110.812341 
L 121.614546 110.812341 
L 124.624633 110.812341 
L 127.634721 110.812341 
L 130.644809 110.812341 
L 133.654896 110.812341 
L 136.664984 110.812341 
L 139.675071 110.812341 
L 142.685159 110.812341 
L 145.695246 110.812341 
L 148.705334 110.812341 
L 151.715421 110.812341 
L 154.725509 110.812341 
L 157.735596 110.812341 
L 160.745684 110.812341 
L 163.755771 110.812341 
L 166.765859 110.812341 
L 169.775947 110.812341 
L 172.786034 110.812341 
L 175.796122 110.812341 
L 178.806209 110.812341 
L 181.816297 110.812341 
L 184.826384 110.812341 
L 187.836472 110.812341 
L 190.846559 110.812341 
L 193.856647 110.812341 
L 196.866734 110.812341 
L 199.876822 110.812341 
L 202.886909 110.812341 
L 205.896997 110.812341 
L 208.907085 110.812341 
L 211.917172 110.812341 
L 214.92726 110.812341 
L 217.937347 110.812341 
L 220.947435 110.812341 
L 223.957522 110.812341 
" clip-path="url(#pb8529f1c80)" style="fill: none; stroke: #c44e52; stroke-width: 1.5; stroke-linecap: round"/>
   </g>
   <g id="patch_3">
    <path d="M 46.964375 162.849375 
L 46.964375 21.789375 
" style="fill: none; stroke: #ffffff; stroke-width: 1.25; stroke-linejoin: miter; stroke-linecap: square"/>
   </g>
   <g id="patch_4">
    <path d="M 46.964375 162.849375 
L 232.385767 162.849375 
" style="fill: none; stroke: #ffffff; stroke-width: 1.25; stroke-linejoin: miter; stroke-linecap: square"/>
   </g>
   <g id="text_12">
    <!-- Model = RF -->
    <g style="fill: #262626" transform="translate(108.498509 15.789375) scale(0.12 -0.12)">
     <defs>
      <path id="ArialMT-4d" d="M 475 0 
L 475 4581 
L 1388 4581 
L 2472 1338 
Q 2622 884 2691 659 
Q 2769 909 2934 1394 
L 4031 4581 
L 4847 4581 
L 4847 0 
L 4263 0 
L 4263 3834 
L 2931 0 
L 2384 0 
L 1059 3900 
L 1059 0 
L 475 0 
z
" transform="scale(0.015625)"/>
      <path id="ArialMT-3d" d="M 3381 2694 
L 356 2694 
L 356 3219 
L 3381 3219 
L 3381 2694 
z
M 3381 1303 
L 356 1303 
L 356 1828 
L 3381 1828 
L 3381 1303 
z
" transform="scale(0.015625)"/>
      <path id="ArialMT-52" d="M 503 0 
L 503 4581 
L 2534 4581 
Q 3147 4581 3465 4457 
Q 3784 4334 3975 4021 
Q 4166 3709 4166 3331 
Q 4166 2844 3850 2509 
Q 3534 2175 2875 2084 
Q 3116 1969 3241 1856 
Q 3506 1613 3744 1247 
L 4541 0 
L 3778 0 
L 3172 953 
Q 2906 1366 2734 1584 
Q 2563 1803 2427 1890 
Q 2291 1978 2150 2013 
Q 2047 2034 1813 2034 
L 1109 2034 
L 1109 0 
L 503 0 
z
M 1109 2559 
L 2413 2559 
Q 2828 2559 3062 2645 
Q 3297 2731 3419 2920 
Q 3541 3109 3541 3331 
Q 3541 3656 3305 3865 
Q 3069 4075 2559 4075 
L 1109 4075 
L 1109 2559 
z
" transform="scale(0.015625)"/>
     </defs>
     <use xlink:href="#ArialMT-4d"/>
     <use xlink:href="#ArialMT-6f" x="83.300781"/>
     <use xlink:href="#ArialMT-64" x="138.916016"/>
     <use xlink:href="#ArialMT-65" x="194.53125"/>
     <use xlink:href="#ArialMT-6c" x="250.146484"/>
     <use xlink:href="#ArialMT-20" x="272.363281"/>
     <use xlink:href="#ArialMT-3d" x="300.146484"/>
     <use xlink:href="#ArialMT-20" x="358.544922"/>
     <use xlink:href="#ArialMT-52" x="386.328125"/>
     <use xlink:href="#ArialMT-46" x="458.544922"/>
    </g>
   </g>
  </g>
  <g id="axes_2">
   <g id="patch_5">
    <path d="M 245.338879 162.849375 
L 430.760271 162.849375 
L 430.760271 21.789375 
L 245.338879 21.789375 
z
" style="fill: #eaeaf2"/>
   </g>
   <g id="matplotlib.axis_3">
    <g id="xtick_4">
     <g id="line2d_14">
      <path d="M 250.757036 162.849375 
L 250.757036 21.789375 
" clip-path="url(#p4c0b8ed2b0)" style="fill: none; stroke: #ffffff; stroke-linecap: round"/>
     </g>
     <g id="text_13">
      <!-- 0 -->
      <g style="fill: #262626" transform="translate(247.698521 180.222969) scale(0.11 -0.11)">
       <use xlink:href="#ArialMT-30"/>
      </g>
     </g>
    </g>
    <g id="xtick_5">
     <g id="line2d_15">
      <path d="M 310.958787 162.849375 
L 310.958787 21.789375 
" clip-path="url(#p4c0b8ed2b0)" style="fill: none; stroke: #ffffff; stroke-linecap: round"/>
     </g>
     <g id="text_14">
      <!-- 20 -->
      <g style="fill: #262626" transform="translate(304.841756 180.222969) scale(0.11 -0.11)">
       <use xlink:href="#ArialMT-32"/>
       <use xlink:href="#ArialMT-30" x="55.615234"/>
      </g>
     </g>
    </g>
    <g id="xtick_6">
     <g id="line2d_16">
      <path d="M 371.160538 162.849375 
L 371.160538 21.789375 
" clip-path="url(#p4c0b8ed2b0)" style="fill: none; stroke: #ffffff; stroke-linecap: round"/>
     </g>
     <g id="text_15">
      <!-- 40 -->
      <g style="fill: #262626" transform="translate(365.043507 180.222969) scale(0.11 -0.11)">
       <use xlink:href="#ArialMT-34"/>
       <use xlink:href="#ArialMT-30" x="55.615234"/>
      </g>
     </g>
    </g>
    <g id="text_16">
     <!-- Number of reserved features -->
     <g style="fill: #262626" transform="translate(261.687387 194.998594) scale(0.12 -0.12)">
      <use xlink:href="#ArialMT-4e"/>
      <use xlink:href="#ArialMT-75" x="72.216797"/>
      <use xlink:href="#ArialMT-6d" x="127.832031"/>
      <use xlink:href="#ArialMT-62" x="211.132812"/>
      <use xlink:href="#ArialMT-65" x="266.748047"/>
      <use xlink:href="#ArialMT-72" x="322.363281"/>
      <use xlink:href="#ArialMT-20" x="355.664062"/>
      <use xlink:href="#ArialMT-6f" x="383.447266"/>
      <use xlink:href="#ArialMT-66" x="439.0625"/>
      <use xlink:href="#ArialMT-20" x="466.845703"/>
      <use xlink:href="#ArialMT-72" x="494.628906"/>
      <use xlink:href="#ArialMT-65" x="527.929688"/>
      <use xlink:href="#ArialMT-73" x="583.544922"/>
      <use xlink:href="#ArialMT-65" x="633.544922"/>
      <use xlink:href="#ArialMT-72" x="689.160156"/>
      <use xlink:href="#ArialMT-76" x="722.460938"/>
      <use xlink:href="#ArialMT-65" x="772.460938"/>
      <use xlink:href="#ArialMT-64" x="828.076172"/>
      <use xlink:href="#ArialMT-20" x="883.691406"/>
      <use xlink:href="#ArialMT-66" x="911.474609"/>
      <use xlink:href="#ArialMT-65" x="939.257812"/>
      <use xlink:href="#ArialMT-61" x="994.873047"/>
      <use xlink:href="#ArialMT-74" x="1050.488281"/>
      <use xlink:href="#ArialMT-75" x="1078.271484"/>
      <use xlink:href="#ArialMT-72" x="1133.886719"/>
      <use xlink:href="#ArialMT-65" x="1167.1875"/>
      <use xlink:href="#ArialMT-73" x="1222.802734"/>
     </g>
    </g>
   </g>
   <g id="matplotlib.axis_4">
    <g id="ytick_7">
     <g id="line2d_17">
      <path d="M 245.338879 162.849375 
L 430.760271 162.849375 
" clip-path="url(#p4c0b8ed2b0)" style="fill: none; stroke: #ffffff; stroke-linecap: round"/>
     </g>
    </g>
    <g id="ytick_8">
     <g id="line2d_18">
      <path d="M 245.338879 134.637375 
L 430.760271 134.637375 
" clip-path="url(#p4c0b8ed2b0)" style="fill: none; stroke: #ffffff; stroke-linecap: round"/>
     </g>
    </g>
    <g id="ytick_9">
     <g id="line2d_19">
      <path d="M 245.338879 106.425375 
L 430.760271 106.425375 
" clip-path="url(#p4c0b8ed2b0)" style="fill: none; stroke: #ffffff; stroke-linecap: round"/>
     </g>
    </g>
    <g id="ytick_10">
     <g id="line2d_20">
      <path d="M 245.338879 78.213375 
L 430.760271 78.213375 
" clip-path="url(#p4c0b8ed2b0)" style="fill: none; stroke: #ffffff; stroke-linecap: round"/>
     </g>
    </g>
    <g id="ytick_11">
     <g id="line2d_21">
      <path d="M 245.338879 50.001375 
L 430.760271 50.001375 
" clip-path="url(#p4c0b8ed2b0)" style="fill: none; stroke: #ffffff; stroke-linecap: round"/>
     </g>
    </g>
    <g id="ytick_12">
     <g id="line2d_22">
      <path d="M 245.338879 21.789375 
L 430.760271 21.789375 
" clip-path="url(#p4c0b8ed2b0)" style="fill: none; stroke: #ffffff; stroke-linecap: round"/>
     </g>
    </g>
   </g>
   <g id="PolyCollection_5"/>
   <g id="PolyCollection_6"/>
   <g id="PolyCollection_7"/>
   <g id="PolyCollection_8"/>
   <g id="line2d_23">
    <path d="M 253.767124 72.867201 
L 256.777211 72.867201 
L 259.787299 72.867201 
L 262.797387 72.867201 
L 265.807474 72.867201 
L 268.817562 72.867201 
L 271.827649 72.867201 
L 274.837737 72.867201 
L 277.847824 111.771549 
L 280.857912 111.771549 
L 283.867999 111.771549 
L 286.878087 111.771549 
L 289.888174 111.771549 
L 292.898262 111.771549 
L 295.908349 111.771549 
L 298.918437 111.771549 
L 301.928525 111.771549 
L 304.938612 111.771549 
L 307.9487 111.771549 
L 310.958787 111.771549 
L 313.968875 111.771549 
L 316.978962 111.771549 
L 319.98905 111.771549 
L 322.999137 111.588171 
L 326.009225 111.376581 
L 329.019312 110.896977 
L 332.0294 109.317105 
L 335.039487 105.818817 
L 338.049575 104.887821 
L 341.059663 101.826819 
L 344.06975 94.026201 
L 347.079838 89.258373 
L 350.089925 89.822613 
L 353.100013 76.464231 
L 356.1101 86.578233 
L 359.120188 84.913725 
L 362.130275 81.937359 
L 365.140363 88.863405 
L 368.15045 87.283533 
L 371.160538 89.653341 
L 374.170625 87.198897 
L 377.180713 84.166107 
L 380.190801 79.398279 
L 383.200888 76.816881 
L 386.210976 70.370439 
L 389.221063 72.556869 
L 392.231151 45.797787 
L 395.241238 61.963263 
L 398.251326 48.604881 
L 401.261413 49.296075 
L 404.271501 33.440931 
L 407.281588 31.818741 
L 410.291676 30.986487 
L 413.301763 30.901851 
L 416.311851 28.447407 
L 419.321939 25.866009 
L 422.332026 21.789375 
" clip-path="url(#p4c0b8ed2b0)" style="fill: none; stroke: #4c72b0; stroke-width: 1.5; stroke-linecap: round"/>
   </g>
   <g id="line2d_24">
    <path d="M 253.767124 72.867201 
L 256.777211 72.867201 
L 259.787299 72.867201 
L 262.797387 72.867201 
L 265.807474 72.867201 
L 268.817562 72.867201 
L 271.827649 72.867201 
L 274.837737 72.867201 
L 277.847824 72.867201 
L 280.857912 72.867201 
L 283.867999 72.867201 
L 286.878087 72.867201 
L 289.888174 72.867201 
L 292.898262 72.867201 
L 295.908349 72.867201 
L 298.918437 72.867201 
L 301.928525 72.867201 
L 304.938612 72.867201 
L 307.9487 72.867201 
L 310.958787 72.867201 
L 313.968875 72.867201 
L 316.978962 72.867201 
L 319.98905 72.867201 
L 322.999137 72.867201 
L 326.009225 72.867201 
L 329.019312 72.867201 
L 332.0294 72.867201 
L 335.039487 72.867201 
L 338.049575 72.867201 
L 341.059663 72.867201 
L 344.06975 72.867201 
L 347.079838 72.867201 
L 350.089925 72.867201 
L 353.100013 72.867201 
L 356.1101 72.867201 
L 359.120188 72.867201 
L 362.130275 72.867201 
L 365.140363 72.867201 
L 368.15045 72.867201 
L 371.160538 72.867201 
L 374.170625 72.867201 
L 377.180713 72.867201 
L 380.190801 72.867201 
L 383.200888 72.867201 
L 386.210976 71.823357 
L 389.221063 63.881679 
L 392.231151 41.114595 
L 395.241238 36.812265 
L 398.251326 36.854583 
L 401.261413 32.171391 
L 404.271501 29.589993 
L 407.281588 27.347139 
L 410.291676 25.513359 
L 413.301763 25.344087 
L 416.311851 25.033755 
L 419.321939 24.554151 
L 422.332026 21.789375 
" clip-path="url(#p4c0b8ed2b0)" style="fill: none; stroke: #dd8452; stroke-width: 1.5; stroke-linecap: round"/>
   </g>
   <g id="line2d_25">
    <path d="M 253.767124 72.867201 
L 256.777211 72.867201 
L 259.787299 72.867201 
L 262.797387 111.771549 
L 265.807474 111.771549 
L 268.817562 111.771549 
L 271.827649 111.771549 
L 274.837737 111.771549 
L 277.847824 111.771549 
L 280.857912 111.771549 
L 283.867999 111.771549 
L 286.878087 111.771549 
L 289.888174 111.771549 
L 292.898262 111.771549 
L 295.908349 111.771549 
L 298.918437 111.771549 
L 301.928525 111.771549 
L 304.938612 111.771549 
L 307.9487 111.771549 
L 310.958787 111.771549 
L 313.968875 111.771549 
L 316.978962 111.771549 
L 319.98905 111.771549 
L 322.999137 111.771549 
L 326.009225 111.771549 
L 329.019312 111.771549 
L 332.0294 111.771549 
L 335.039487 111.771549 
L 338.049575 111.771549 
L 341.059663 111.771549 
L 344.06975 111.771549 
L 347.079838 111.771549 
L 350.089925 111.771549 
L 353.100013 111.771549 
L 356.1101 111.771549 
L 359.120188 111.771549 
L 362.130275 111.771549 
L 365.140363 111.771549 
L 368.15045 111.771549 
L 371.160538 111.771549 
L 374.170625 111.771549 
L 377.180713 111.771549 
L 380.190801 111.771549 
L 383.200888 111.771549 
L 386.210976 111.771549 
L 389.221063 111.771549 
L 392.231151 111.771549 
L 395.241238 111.771549 
L 398.251326 111.771549 
L 401.261413 111.771549 
L 404.271501 111.771549 
L 407.281588 111.771549 
L 410.291676 111.771549 
L 413.301763 111.771549 
L 416.311851 111.771549 
L 419.321939 111.771549 
L 422.332026 111.771549 
" clip-path="url(#p4c0b8ed2b0)" style="fill: none; stroke: #55a868; stroke-width: 1.5; stroke-linecap: round"/>
   </g>
   <g id="line2d_26">
    <path d="M 253.767124 111.771549 
L 256.777211 111.771549 
L 259.787299 111.771549 
L 262.797387 111.771549 
L 265.807474 111.771549 
L 268.817562 111.771549 
L 271.827649 111.771549 
L 274.837737 111.771549 
L 277.847824 111.771549 
L 280.857912 111.771549 
L 283.867999 111.771549 
L 286.878087 111.771549 
L 289.888174 111.771549 
L 292.898262 111.771549 
L 295.908349 111.771549 
L 298.918437 111.771549 
L 301.928525 111.771549 
L 304.938612 111.771549 
L 307.9487 111.771549 
L 310.958787 111.771549 
L 313.968875 111.771549 
L 316.978962 111.771549 
L 319.98905 111.771549 
L 322.999137 111.771549 
L 326.009225 111.771549 
L 329.019312 111.771549 
L 332.0294 111.771549 
L 335.039487 111.771549 
L 338.049575 111.771549 
L 341.059663 111.771549 
L 344.06975 111.771549 
L 347.079838 111.771549 
L 350.089925 111.771549 
L 353.100013 111.771549 
L 356.1101 111.771549 
L 359.120188 111.771549 
L 362.130275 111.771549 
L 365.140363 111.771549 
L 368.15045 111.771549 
L 371.160538 111.771549 
L 374.170625 111.771549 
L 377.180713 111.771549 
L 380.190801 111.771549 
L 383.200888 111.771549 
L 386.210976 111.771549 
L 389.221063 111.771549 
L 392.231151 111.771549 
L 395.241238 111.771549 
L 398.251326 111.771549 
L 401.261413 111.771549 
L 404.271501 111.771549 
L 407.281588 111.771549 
L 410.291676 111.771549 
L 413.301763 111.771549 
L 416.311851 111.771549 
L 419.321939 111.771549 
L 422.332026 111.771549 
" clip-path="url(#p4c0b8ed2b0)" style="fill: none; stroke: #c44e52; stroke-width: 1.5; stroke-linecap: round"/>
   </g>
   <g id="patch_6">
    <path d="M 245.338879 162.849375 
L 245.338879 21.789375 
" style="fill: none; stroke: #ffffff; stroke-width: 1.25; stroke-linejoin: miter; stroke-linecap: square"/>
   </g>
   <g id="patch_7">
    <path d="M 245.338879 162.849375 
L 430.760271 162.849375 
" style="fill: none; stroke: #ffffff; stroke-width: 1.25; stroke-linejoin: miter; stroke-linecap: square"/>
   </g>
   <g id="text_17">
    <!-- Model = SVC -->
    <g style="fill: #262626" transform="translate(302.533325 15.789375) scale(0.12 -0.12)">
     <defs>
      <path id="ArialMT-53" d="M 288 1472 
L 859 1522 
Q 900 1178 1048 958 
Q 1197 738 1509 602 
Q 1822 466 2213 466 
Q 2559 466 2825 569 
Q 3091 672 3220 851 
Q 3350 1031 3350 1244 
Q 3350 1459 3225 1620 
Q 3100 1781 2813 1891 
Q 2628 1963 1997 2114 
Q 1366 2266 1113 2400 
Q 784 2572 623 2826 
Q 463 3081 463 3397 
Q 463 3744 659 4045 
Q 856 4347 1234 4503 
Q 1613 4659 2075 4659 
Q 2584 4659 2973 4495 
Q 3363 4331 3572 4012 
Q 3781 3694 3797 3291 
L 3216 3247 
Q 3169 3681 2898 3903 
Q 2628 4125 2100 4125 
Q 1550 4125 1298 3923 
Q 1047 3722 1047 3438 
Q 1047 3191 1225 3031 
Q 1400 2872 2139 2705 
Q 2878 2538 3153 2413 
Q 3553 2228 3743 1945 
Q 3934 1663 3934 1294 
Q 3934 928 3725 604 
Q 3516 281 3123 101 
Q 2731 -78 2241 -78 
Q 1619 -78 1198 103 
Q 778 284 539 648 
Q 300 1013 288 1472 
z
" transform="scale(0.015625)"/>
      <path id="ArialMT-56" d="M 1803 0 
L 28 4581 
L 684 4581 
L 1875 1253 
Q 2019 853 2116 503 
Q 2222 878 2363 1253 
L 3600 4581 
L 4219 4581 
L 2425 0 
L 1803 0 
z
" transform="scale(0.015625)"/>
      <path id="ArialMT-43" d="M 3763 1606 
L 4369 1453 
Q 4178 706 3683 314 
Q 3188 -78 2472 -78 
Q 1731 -78 1267 223 
Q 803 525 561 1097 
Q 319 1669 319 2325 
Q 319 3041 592 3573 
Q 866 4106 1370 4382 
Q 1875 4659 2481 4659 
Q 3169 4659 3637 4309 
Q 4106 3959 4291 3325 
L 3694 3184 
Q 3534 3684 3231 3912 
Q 2928 4141 2469 4141 
Q 1941 4141 1586 3887 
Q 1231 3634 1087 3207 
Q 944 2781 944 2328 
Q 944 1744 1114 1308 
Q 1284 872 1643 656 
Q 2003 441 2422 441 
Q 2931 441 3284 734 
Q 3638 1028 3763 1606 
z
" transform="scale(0.015625)"/>
     </defs>
     <use xlink:href="#ArialMT-4d"/>
     <use xlink:href="#ArialMT-6f" x="83.300781"/>
     <use xlink:href="#ArialMT-64" x="138.916016"/>
     <use xlink:href="#ArialMT-65" x="194.53125"/>
     <use xlink:href="#ArialMT-6c" x="250.146484"/>
     <use xlink:href="#ArialMT-20" x="272.363281"/>
     <use xlink:href="#ArialMT-3d" x="300.146484"/>
     <use xlink:href="#ArialMT-20" x="358.544922"/>
     <use xlink:href="#ArialMT-53" x="386.328125"/>
     <use xlink:href="#ArialMT-56" x="453.027344"/>
     <use xlink:href="#ArialMT-43" x="519.726562"/>
    </g>
   </g>
  </g>
  <g id="axes_3">
   <g id="patch_8">
    <path d="M 443.713383 162.849375 
L 629.134775 162.849375 
L 629.134775 21.789375 
L 443.713383 21.789375 
z
" style="fill: #eaeaf2"/>
   </g>
   <g id="matplotlib.axis_5">
    <g id="xtick_7">
     <g id="line2d_27">
      <path d="M 449.13154 162.849375 
L 449.13154 21.789375 
" clip-path="url(#pe8b5430c40)" style="fill: none; stroke: #ffffff; stroke-linecap: round"/>
     </g>
     <g id="text_18">
      <!-- 0 -->
      <g style="fill: #262626" transform="translate(446.073025 180.222969) scale(0.11 -0.11)">
       <use xlink:href="#ArialMT-30"/>
      </g>
     </g>
    </g>
    <g id="xtick_8">
     <g id="line2d_28">
      <path d="M 509.333291 162.849375 
L 509.333291 21.789375 
" clip-path="url(#pe8b5430c40)" style="fill: none; stroke: #ffffff; stroke-linecap: round"/>
     </g>
     <g id="text_19">
      <!-- 20 -->
      <g style="fill: #262626" transform="translate(503.21626 180.222969) scale(0.11 -0.11)">
       <use xlink:href="#ArialMT-32"/>
       <use xlink:href="#ArialMT-30" x="55.615234"/>
      </g>
     </g>
    </g>
    <g id="xtick_9">
     <g id="line2d_29">
      <path d="M 569.535042 162.849375 
L 569.535042 21.789375 
" clip-path="url(#pe8b5430c40)" style="fill: none; stroke: #ffffff; stroke-linecap: round"/>
     </g>
     <g id="text_20">
      <!-- 40 -->
      <g style="fill: #262626" transform="translate(563.41801 180.222969) scale(0.11 -0.11)">
       <use xlink:href="#ArialMT-34"/>
       <use xlink:href="#ArialMT-30" x="55.615234"/>
      </g>
     </g>
    </g>
    <g id="text_21">
     <!-- Number of reserved features -->
     <g style="fill: #262626" transform="translate(460.061891 194.998594) scale(0.12 -0.12)">
      <use xlink:href="#ArialMT-4e"/>
      <use xlink:href="#ArialMT-75" x="72.216797"/>
      <use xlink:href="#ArialMT-6d" x="127.832031"/>
      <use xlink:href="#ArialMT-62" x="211.132812"/>
      <use xlink:href="#ArialMT-65" x="266.748047"/>
      <use xlink:href="#ArialMT-72" x="322.363281"/>
      <use xlink:href="#ArialMT-20" x="355.664062"/>
      <use xlink:href="#ArialMT-6f" x="383.447266"/>
      <use xlink:href="#ArialMT-66" x="439.0625"/>
      <use xlink:href="#ArialMT-20" x="466.845703"/>
      <use xlink:href="#ArialMT-72" x="494.628906"/>
      <use xlink:href="#ArialMT-65" x="527.929688"/>
      <use xlink:href="#ArialMT-73" x="583.544922"/>
      <use xlink:href="#ArialMT-65" x="633.544922"/>
      <use xlink:href="#ArialMT-72" x="689.160156"/>
      <use xlink:href="#ArialMT-76" x="722.460938"/>
      <use xlink:href="#ArialMT-65" x="772.460938"/>
      <use xlink:href="#ArialMT-64" x="828.076172"/>
      <use xlink:href="#ArialMT-20" x="883.691406"/>
      <use xlink:href="#ArialMT-66" x="911.474609"/>
      <use xlink:href="#ArialMT-65" x="939.257812"/>
      <use xlink:href="#ArialMT-61" x="994.873047"/>
      <use xlink:href="#ArialMT-74" x="1050.488281"/>
      <use xlink:href="#ArialMT-75" x="1078.271484"/>
      <use xlink:href="#ArialMT-72" x="1133.886719"/>
      <use xlink:href="#ArialMT-65" x="1167.1875"/>
      <use xlink:href="#ArialMT-73" x="1222.802734"/>
     </g>
    </g>
   </g>
   <g id="matplotlib.axis_6">
    <g id="ytick_13">
     <g id="line2d_30">
      <path d="M 443.713383 162.849375 
L 629.134775 162.849375 
" clip-path="url(#pe8b5430c40)" style="fill: none; stroke: #ffffff; stroke-linecap: round"/>
     </g>
    </g>
    <g id="ytick_14">
     <g id="line2d_31">
      <path d="M 443.713383 134.637375 
L 629.134775 134.637375 
" clip-path="url(#pe8b5430c40)" style="fill: none; stroke: #ffffff; stroke-linecap: round"/>
     </g>
    </g>
    <g id="ytick_15">
     <g id="line2d_32">
      <path d="M 443.713383 106.425375 
L 629.134775 106.425375 
" clip-path="url(#pe8b5430c40)" style="fill: none; stroke: #ffffff; stroke-linecap: round"/>
     </g>
    </g>
    <g id="ytick_16">
     <g id="line2d_33">
      <path d="M 443.713383 78.213375 
L 629.134775 78.213375 
" clip-path="url(#pe8b5430c40)" style="fill: none; stroke: #ffffff; stroke-linecap: round"/>
     </g>
    </g>
    <g id="ytick_17">
     <g id="line2d_34">
      <path d="M 443.713383 50.001375 
L 629.134775 50.001375 
" clip-path="url(#pe8b5430c40)" style="fill: none; stroke: #ffffff; stroke-linecap: round"/>
     </g>
    </g>
    <g id="ytick_18">
     <g id="line2d_35">
      <path d="M 443.713383 21.789375 
L 629.134775 21.789375 
" clip-path="url(#pe8b5430c40)" style="fill: none; stroke: #ffffff; stroke-linecap: round"/>
     </g>
    </g>
   </g>
   <g id="PolyCollection_9"/>
   <g id="PolyCollection_10"/>
   <g id="PolyCollection_11"/>
   <g id="PolyCollection_12"/>
   <g id="line2d_36">
    <path d="M 452.141628 75.406281 
L 455.151715 75.363963 
L 458.161803 75.321645 
L 461.17189 75.406281 
L 464.181978 75.321645 
L 467.192065 75.321645 
L 470.202153 75.406281 
L 473.212241 75.406281 
L 476.222328 75.406281 
L 479.232416 75.406281 
L 482.242503 75.406281 
L 485.252591 75.406281 
L 488.262678 75.279327 
L 491.272766 75.152373 
L 494.282853 74.616345 
L 497.292941 75.053631 
L 500.303028 74.799723 
L 503.313116 74.757405 
L 506.323203 75.152373 
L 509.333291 75.237009 
L 512.343379 75.279327 
L 515.353466 74.842041 
L 518.363554 74.052105 
L 521.373641 71.513025 
L 524.383729 73.304487 
L 527.393816 72.077265 
L 530.403904 70.243485 
L 533.413991 68.536659 
L 536.424079 70.497393 
L 539.434166 69.538185 
L 542.444254 69.185535 
L 545.454341 66.731091 
L 548.464429 64.939629 
L 551.474517 42.821421 
L 554.484604 66.124533 
L 557.494692 69.622821 
L 560.504779 38.081805 
L 563.514867 42.511089 
L 566.524954 37.827897 
L 569.535042 55.262913 
L 572.545129 65.024265 
L 575.555217 81.020469 
L 578.565304 86.183265 
L 581.575392 82.995309 
L 584.585479 88.948041 
L 587.595567 77.550393 
L 590.605655 77.606817 
L 593.615742 50.523297 
L 596.62583 42.073803 
L 599.635917 35.726103 
L 602.646005 33.624309 
L 605.656092 36.121071 
L 608.66618 31.071123 
L 611.676267 31.776423 
L 614.686355 29.843901 
L 617.696442 29.900325 
L 620.70653 21.789375 
" clip-path="url(#pe8b5430c40)" style="fill: none; stroke: #4c72b0; stroke-width: 1.5; stroke-linecap: round"/>
   </g>
   <g id="line2d_37">
    <path d="M 452.141628 72.260643 
L 455.151715 69.806199 
L 458.161803 66.082215 
L 461.17189 72.867201 
L 464.181978 109.049091 
L 467.192065 101.784501 
L 470.202153 102.927087 
L 473.212241 110.417373 
L 476.222328 98.667075 
L 479.232416 74.009787 
L 482.242503 73.614819 
L 485.252591 78.777615 
L 488.262678 108.259155 
L 491.272766 101.869137 
L 494.282853 75.279327 
L 497.292941 103.886295 
L 500.303028 75.363963 
L 503.313116 75.448599 
L 506.323203 74.968995 
L 509.333291 102.532119 
L 512.343379 72.655611 
L 515.353466 68.973945 
L 518.363554 72.909519 
L 521.373641 75.152373 
L 524.383729 75.448599 
L 527.393816 75.011313 
L 530.403904 75.053631 
L 533.413991 75.321645 
L 536.424079 75.363963 
L 539.434166 75.237009 
L 542.444254 72.161901 
L 545.454341 70.060107 
L 548.464429 75.279327 
L 551.474517 75.406281 
L 554.484604 75.321645 
L 557.494692 75.321645 
L 560.504779 74.447073 
L 563.514867 63.105849 
L 566.524954 66.646455 
L 569.535042 71.597661 
L 572.545129 58.055901 
L 575.555217 48.943425 
L 578.565304 41.114595 
L 581.575392 51.538929 
L 584.585479 48.562563 
L 587.595567 45.924741 
L 590.605655 33.708945 
L 593.615742 31.212183 
L 596.62583 33.271659 
L 599.635917 29.589993 
L 602.646005 29.716947 
L 605.656092 32.439405 
L 608.66618 29.321979 
L 611.676267 28.616679 
L 614.686355 28.405089 
L 617.696442 27.615153 
L 620.70653 21.789375 
" clip-path="url(#pe8b5430c40)" style="fill: none; stroke: #dd8452; stroke-width: 1.5; stroke-linecap: round"/>
   </g>
   <g id="line2d_38">
    <path d="M 452.141628 75.448599 
L 455.151715 75.237009 
L 458.161803 75.279327 
L 461.17189 75.279327 
L 464.181978 75.279327 
L 467.192065 75.279327 
L 470.202153 75.194691 
L 473.212241 75.194691 
L 476.222328 75.194691 
L 479.232416 75.110055 
L 482.242503 75.152373 
L 485.252591 75.194691 
L 488.262678 75.053631 
L 491.272766 75.110055 
L 494.282853 75.279327 
L 497.292941 75.152373 
L 500.303028 75.110055 
L 503.313116 75.110055 
L 506.323203 74.531709 
L 509.333291 74.136741 
L 512.343379 74.263695 
L 515.353466 73.882833 
L 518.363554 73.882833 
L 521.373641 73.882833 
L 524.383729 73.882833 
L 527.393816 73.882833 
L 530.403904 73.882833 
L 533.413991 73.882833 
L 536.424079 73.882833 
L 539.434166 73.882833 
L 542.444254 73.882833 
L 545.454341 73.882833 
L 548.464429 73.882833 
L 551.474517 73.882833 
L 554.484604 73.882833 
L 557.494692 73.882833 
L 560.504779 73.882833 
L 563.514867 73.882833 
L 566.524954 73.882833 
L 569.535042 73.882833 
L 572.545129 73.882833 
L 575.555217 73.882833 
L 578.565304 73.882833 
L 581.575392 73.882833 
L 584.585479 73.882833 
L 587.595567 73.882833 
L 590.605655 73.882833 
L 593.615742 73.882833 
L 596.62583 73.882833 
L 599.635917 73.882833 
L 602.646005 73.882833 
L 605.656092 73.882833 
L 608.66618 73.882833 
L 611.676267 73.882833 
L 614.686355 73.882833 
L 617.696442 73.882833 
L 620.70653 73.882833 
" clip-path="url(#pe8b5430c40)" style="fill: none; stroke: #55a868; stroke-width: 1.5; stroke-linecap: round"/>
   </g>
   <g id="line2d_39">
    <path d="M 452.141628 75.448599 
L 455.151715 108.484851 
L 458.161803 109.147833 
L 461.17189 109.190151 
L 464.181978 109.190151 
L 467.192065 109.190151 
L 470.202153 109.190151 
L 473.212241 108.752865 
L 476.222328 108.922137 
L 479.232416 109.190151 
L 482.242503 96.565281 
L 485.252591 67.083741 
L 488.262678 61.300281 
L 491.272766 70.596135 
L 494.282853 70.553817 
L 497.292941 69.368913 
L 500.303028 92.277057 
L 503.313116 83.517231 
L 506.323203 76.548867 
L 509.333291 85.351011 
L 512.343379 73.487865 
L 515.353466 84.829089 
L 518.363554 60.256437 
L 521.373641 88.990359 
L 524.383729 88.990359 
L 527.393816 88.990359 
L 530.403904 88.990359 
L 533.413991 88.990359 
L 536.424079 88.990359 
L 539.434166 88.990359 
L 542.444254 88.990359 
L 545.454341 88.990359 
L 548.464429 88.990359 
L 551.474517 88.990359 
L 554.484604 88.990359 
L 557.494692 88.990359 
L 560.504779 88.990359 
L 563.514867 88.990359 
L 566.524954 88.990359 
L 569.535042 88.990359 
L 572.545129 88.990359 
L 575.555217 88.990359 
L 578.565304 88.990359 
L 581.575392 88.990359 
L 584.585479 88.990359 
L 587.595567 88.990359 
L 590.605655 88.990359 
L 593.615742 88.990359 
L 596.62583 88.990359 
L 599.635917 88.990359 
L 602.646005 88.990359 
L 605.656092 88.990359 
L 608.66618 88.990359 
L 611.676267 88.990359 
L 614.686355 88.990359 
L 617.696442 88.990359 
L 620.70653 88.990359 
" clip-path="url(#pe8b5430c40)" style="fill: none; stroke: #c44e52; stroke-width: 1.5; stroke-linecap: round"/>
   </g>
   <g id="patch_9">
    <path d="M 443.713383 162.849375 
L 443.713383 21.789375 
" style="fill: none; stroke: #ffffff; stroke-width: 1.25; stroke-linejoin: miter; stroke-linecap: square"/>
   </g>
   <g id="patch_10">
    <path d="M 443.713383 162.849375 
L 629.134775 162.849375 
" style="fill: none; stroke: #ffffff; stroke-width: 1.25; stroke-linejoin: miter; stroke-linecap: square"/>
   </g>
   <g id="text_22">
    <!-- Model = MLP -->
    <g style="fill: #262626" transform="translate(500.908766 15.789375) scale(0.12 -0.12)">
     <defs>
      <path id="ArialMT-4c" d="M 469 0 
L 469 4581 
L 1075 4581 
L 1075 541 
L 3331 541 
L 3331 0 
L 469 0 
z
" transform="scale(0.015625)"/>
      <path id="ArialMT-50" d="M 494 0 
L 494 4581 
L 2222 4581 
Q 2678 4581 2919 4538 
Q 3256 4481 3484 4323 
Q 3713 4166 3852 3881 
Q 3991 3597 3991 3256 
Q 3991 2672 3619 2267 
Q 3247 1863 2275 1863 
L 1100 1863 
L 1100 0 
L 494 0 
z
M 1100 2403 
L 2284 2403 
Q 2872 2403 3119 2622 
Q 3366 2841 3366 3238 
Q 3366 3525 3220 3729 
Q 3075 3934 2838 4000 
Q 2684 4041 2272 4041 
L 1100 4041 
L 1100 2403 
z
" transform="scale(0.015625)"/>
     </defs>
     <use xlink:href="#ArialMT-4d"/>
     <use xlink:href="#ArialMT-6f" x="83.300781"/>
     <use xlink:href="#ArialMT-64" x="138.916016"/>
     <use xlink:href="#ArialMT-65" x="194.53125"/>
     <use xlink:href="#ArialMT-6c" x="250.146484"/>
     <use xlink:href="#ArialMT-20" x="272.363281"/>
     <use xlink:href="#ArialMT-3d" x="300.146484"/>
     <use xlink:href="#ArialMT-20" x="358.544922"/>
     <use xlink:href="#ArialMT-4d" x="386.328125"/>
     <use xlink:href="#ArialMT-4c" x="469.628906"/>
     <use xlink:href="#ArialMT-50" x="525.244141"/>
    </g>
   </g>
  </g>
  <g id="legend_1">
   <g id="text_23">
    <!-- Interpreter -->
    <g style="fill: #262626" transform="translate(642.177553 74.274297) scale(0.12 -0.12)">
     <defs>
      <path id="ArialMT-49" d="M 597 0 
L 597 4581 
L 1203 4581 
L 1203 0 
L 597 0 
z
" transform="scale(0.015625)"/>
      <path id="ArialMT-70" d="M 422 -1272 
L 422 3319 
L 934 3319 
L 934 2888 
Q 1116 3141 1344 3267 
Q 1572 3394 1897 3394 
Q 2322 3394 2647 3175 
Q 2972 2956 3137 2557 
Q 3303 2159 3303 1684 
Q 3303 1175 3120 767 
Q 2938 359 2589 142 
Q 2241 -75 1856 -75 
Q 1575 -75 1351 44 
Q 1128 163 984 344 
L 984 -1272 
L 422 -1272 
z
M 931 1641 
Q 931 1000 1190 694 
Q 1450 388 1819 388 
Q 2194 388 2461 705 
Q 2728 1022 2728 1688 
Q 2728 2322 2467 2637 
Q 2206 2953 1844 2953 
Q 1484 2953 1207 2617 
Q 931 2281 931 1641 
z
" transform="scale(0.015625)"/>
     </defs>
     <use xlink:href="#ArialMT-49"/>
     <use xlink:href="#ArialMT-6e" x="27.783203"/>
     <use xlink:href="#ArialMT-74" x="83.398438"/>
     <use xlink:href="#ArialMT-65" x="111.181641"/>
     <use xlink:href="#ArialMT-72" x="166.796875"/>
     <use xlink:href="#ArialMT-70" x="200.097656"/>
     <use xlink:href="#ArialMT-72" x="255.712891"/>
     <use xlink:href="#ArialMT-65" x="289.013672"/>
     <use xlink:href="#ArialMT-74" x="344.628906"/>
     <use xlink:href="#ArialMT-65" x="372.412109"/>
     <use xlink:href="#ArialMT-72" x="428.027344"/>
    </g>
   </g>
   <g id="line2d_40">
    <path d="M 637.028881 86.182891 
L 648.028881 86.182891 
L 659.028881 86.182891 
" style="fill: none; stroke: #4c72b0; stroke-width: 1.5; stroke-linecap: round"/>
   </g>
   <g id="text_24">
    <!-- SHAP -->
    <g style="fill: #262626" transform="translate(667.828881 90.032891) scale(0.11 -0.11)">
     <defs>
      <path id="ArialMT-48" d="M 513 0 
L 513 4581 
L 1119 4581 
L 1119 2700 
L 3500 2700 
L 3500 4581 
L 4106 4581 
L 4106 0 
L 3500 0 
L 3500 2159 
L 1119 2159 
L 1119 0 
L 513 0 
z
" transform="scale(0.015625)"/>
      <path id="ArialMT-41" d="M -9 0 
L 1750 4581 
L 2403 4581 
L 4278 0 
L 3588 0 
L 3053 1388 
L 1138 1388 
L 634 0 
L -9 0 
z
M 1313 1881 
L 2866 1881 
L 2388 3150 
Q 2169 3728 2063 4100 
Q 1975 3659 1816 3225 
L 1313 1881 
z
" transform="scale(0.015625)"/>
     </defs>
     <use xlink:href="#ArialMT-53"/>
     <use xlink:href="#ArialMT-48" x="66.699219"/>
     <use xlink:href="#ArialMT-41" x="138.916016"/>
     <use xlink:href="#ArialMT-50" x="205.615234"/>
    </g>
   </g>
   <g id="line2d_41">
    <path d="M 637.028881 101.742734 
L 648.028881 101.742734 
L 659.028881 101.742734 
" style="fill: none; stroke: #dd8452; stroke-width: 1.5; stroke-linecap: round"/>
   </g>
   <g id="text_25">
    <!-- LIME -->
    <g style="fill: #262626" transform="translate(667.828881 105.592734) scale(0.11 -0.11)">
     <defs>
      <path id="ArialMT-45" d="M 506 0 
L 506 4581 
L 3819 4581 
L 3819 4041 
L 1113 4041 
L 1113 2638 
L 3647 2638 
L 3647 2100 
L 1113 2100 
L 1113 541 
L 3925 541 
L 3925 0 
L 506 0 
z
" transform="scale(0.015625)"/>
     </defs>
     <use xlink:href="#ArialMT-4c"/>
     <use xlink:href="#ArialMT-49" x="55.615234"/>
     <use xlink:href="#ArialMT-4d" x="83.398438"/>
     <use xlink:href="#ArialMT-45" x="166.699219"/>
    </g>
   </g>
   <g id="line2d_42">
    <path d="M 637.028881 117.302578 
L 648.028881 117.302578 
L 659.028881 117.302578 
" style="fill: none; stroke: #55a868; stroke-width: 1.5; stroke-linecap: round"/>
   </g>
   <g id="text_26">
    <!-- Anchor -->
    <g style="fill: #262626" transform="translate(667.828881 121.152578) scale(0.11 -0.11)">
     <use xlink:href="#ArialMT-41"/>
     <use xlink:href="#ArialMT-6e" x="66.699219"/>
     <use xlink:href="#ArialMT-63" x="122.314453"/>
     <use xlink:href="#ArialMT-68" x="172.314453"/>
     <use xlink:href="#ArialMT-6f" x="227.929688"/>
     <use xlink:href="#ArialMT-72" x="283.544922"/>
    </g>
   </g>
   <g id="line2d_43">
    <path d="M 637.028881 132.862422 
L 648.028881 132.862422 
L 659.028881 132.862422 
" style="fill: none; stroke: #c44e52; stroke-width: 1.5; stroke-linecap: round"/>
   </g>
   <g id="text_27">
    <!-- LORE -->
    <g style="fill: #262626" transform="translate(667.828881 136.712422) scale(0.11 -0.11)">
     <defs>
      <path id="ArialMT-4f" d="M 309 2231 
Q 309 3372 921 4017 
Q 1534 4663 2503 4663 
Q 3138 4663 3647 4359 
Q 4156 4056 4423 3514 
Q 4691 2972 4691 2284 
Q 4691 1588 4409 1038 
Q 4128 488 3612 205 
Q 3097 -78 2500 -78 
Q 1853 -78 1343 234 
Q 834 547 571 1087 
Q 309 1628 309 2231 
z
M 934 2222 
Q 934 1394 1379 917 
Q 1825 441 2497 441 
Q 3181 441 3623 922 
Q 4066 1403 4066 2288 
Q 4066 2847 3877 3264 
Q 3688 3681 3323 3911 
Q 2959 4141 2506 4141 
Q 1863 4141 1398 3698 
Q 934 3256 934 2222 
z
" transform="scale(0.015625)"/>
     </defs>
     <use xlink:href="#ArialMT-4c"/>
     <use xlink:href="#ArialMT-4f" x="55.615234"/>
     <use xlink:href="#ArialMT-52" x="133.398438"/>
     <use xlink:href="#ArialMT-45" x="205.615234"/>
    </g>
   </g>
  </g>
 </g>
 <defs>
  <clipPath id="pb8529f1c80">
   <rect x="46.964375" y="21.789375" width="185.421392" height="141.06"/>
  </clipPath>
  <clipPath id="p4c0b8ed2b0">
   <rect x="245.338879" y="21.789375" width="185.421392" height="141.06"/>
  </clipPath>
  <clipPath id="pe8b5430c40">
   <rect x="443.713383" y="21.789375" width="185.421392" height="141.06"/>
  </clipPath>
 </defs>
</svg>
