<?xml version="1.0" encoding="utf-8" standalone="no"?>
<!DOCTYPE svg PUBLIC "-//W3C//DTD SVG 1.1//EN"
  "http://www.w3.org/Graphics/SVG/1.1/DTD/svg11.dtd">
<svg xmlns:xlink="http://www.w3.org/1999/xlink" width="712.579975pt" height="204.583594pt" viewBox="0 0 712.579975 204.583594" xmlns="http://www.w3.org/2000/svg" version="1.1">
 <metadata>
  <rdf:RDF xmlns:dc="http://purl.org/dc/elements/1.1/" xmlns:cc="http://creativecommons.org/ns#" xmlns:rdf="http://www.w3.org/1999/02/22-rdf-syntax-ns#">
   <cc:Work>
    <dc:type rdf:resource="http://purl.org/dc/dcmitype/StillImage"/>
    <dc:date>2024-10-14T15:29:05.336565</dc:date>
    <dc:format>image/svg+xml</dc:format>
    <dc:creator>
     <cc:Agent>
      <dc:title>Matplotlib v3.8.0, https://matplotlib.org/</dc:title>
     </cc:Agent>
    </dc:creator>
   </cc:Work>
  </rdf:RDF>
 </metadata>
 <defs>
  <style type="text/css">*{stroke-linejoin: round; stroke-linecap: butt}</style>
 </defs>
 <g id="figure_1">
  <g id="patch_1">
   <path d="M 0 204.583594 
L 712.579975 204.583594 
L 712.579975 0 
L 0 0 
z
" style="fill: #ffffff"/>
  </g>
  <g id="axes_1">
   <g id="patch_2">
    <path d="M 46.964375 162.849375 
L 232.385767 162.849375 
L 232.385767 21.789375 
L 46.964375 21.789375 
z
" style="fill: #eaeaf2"/>
   </g>
   <g id="matplotlib.axis_1">
    <g id="xtick_1">
     <g id="line2d_1">
      <path d="M 51.806133 162.849375 
L 51.806133 21.789375 
" clip-path="url(#pef0ac3128b)" style="fill: none; stroke: #ffffff; stroke-linecap: round"/>
     </g>
     <g id="text_1">
      <!-- 0 -->
      <g style="fill: #262626" transform="translate(48.747617 180.222969) scale(0.11 -0.11)">
       <defs>
        <path id="ArialMT-30" d="M 266 2259 
Q 266 3072 433 3567 
Q 600 4063 929 4331 
Q 1259 4600 1759 4600 
Q 2128 4600 2406 4451 
Q 2684 4303 2865 4023 
Q 3047 3744 3150 3342 
Q 3253 2941 3253 2259 
Q 3253 1453 3087 958 
Q 2922 463 2592 192 
Q 2263 -78 1759 -78 
Q 1097 -78 719 397 
Q 266 969 266 2259 
z
M 844 2259 
Q 844 1131 1108 757 
Q 1372 384 1759 384 
Q 2147 384 2411 759 
Q 2675 1134 2675 2259 
Q 2675 3391 2411 3762 
Q 2147 4134 1753 4134 
Q 1366 4134 1134 3806 
Q 844 3388 844 2259 
z
" transform="scale(0.015625)"/>
       </defs>
       <use xlink:href="#ArialMT-30"/>
      </g>
     </g>
    </g>
    <g id="xtick_2">
     <g id="line2d_2">
      <path d="M 123.535878 162.849375 
L 123.535878 21.789375 
" clip-path="url(#pef0ac3128b)" style="fill: none; stroke: #ffffff; stroke-linecap: round"/>
     </g>
     <g id="text_2">
      <!-- 20 -->
      <g style="fill: #262626" transform="translate(117.418847 180.222969) scale(0.11 -0.11)">
       <defs>
        <path id="ArialMT-32" d="M 3222 541 
L 3222 0 
L 194 0 
Q 188 203 259 391 
Q 375 700 629 1000 
Q 884 1300 1366 1694 
Q 2113 2306 2375 2664 
Q 2638 3022 2638 3341 
Q 2638 3675 2398 3904 
Q 2159 4134 1775 4134 
Q 1369 4134 1125 3890 
Q 881 3647 878 3216 
L 300 3275 
Q 359 3922 746 4261 
Q 1134 4600 1788 4600 
Q 2447 4600 2831 4234 
Q 3216 3869 3216 3328 
Q 3216 3053 3103 2787 
Q 2991 2522 2730 2228 
Q 2469 1934 1863 1422 
Q 1356 997 1212 845 
Q 1069 694 975 541 
L 3222 541 
z
" transform="scale(0.015625)"/>
       </defs>
       <use xlink:href="#ArialMT-32"/>
       <use xlink:href="#ArialMT-30" x="55.615234"/>
      </g>
     </g>
    </g>
    <g id="xtick_3">
     <g id="line2d_3">
      <path d="M 195.265624 162.849375 
L 195.265624 21.789375 
" clip-path="url(#pef0ac3128b)" style="fill: none; stroke: #ffffff; stroke-linecap: round"/>
     </g>
     <g id="text_3">
      <!-- 40 -->
      <g style="fill: #262626" transform="translate(189.148593 180.222969) scale(0.11 -0.11)">
       <defs>
        <path id="ArialMT-34" d="M 2069 0 
L 2069 1097 
L 81 1097 
L 81 1613 
L 2172 4581 
L 2631 4581 
L 2631 1613 
L 3250 1613 
L 3250 1097 
L 2631 1097 
L 2631 0 
L 2069 0 
z
M 2069 1613 
L 2069 3678 
L 634 1613 
L 2069 1613 
z
" transform="scale(0.015625)"/>
       </defs>
       <use xlink:href="#ArialMT-34"/>
       <use xlink:href="#ArialMT-30" x="55.615234"/>
      </g>
     </g>
    </g>
    <g id="text_4">
     <!-- Number of removed features -->
     <g style="fill: #262626" transform="translate(63.312884 194.998594) scale(0.12 -0.12)">
      <defs>
       <path id="ArialMT-4e" d="M 488 0 
L 488 4581 
L 1109 4581 
L 3516 984 
L 3516 4581 
L 4097 4581 
L 4097 0 
L 3475 0 
L 1069 3600 
L 1069 0 
L 488 0 
z
" transform="scale(0.015625)"/>
       <path id="ArialMT-75" d="M 2597 0 
L 2597 488 
Q 2209 -75 1544 -75 
Q 1250 -75 995 37 
Q 741 150 617 320 
Q 494 491 444 738 
Q 409 903 409 1263 
L 409 3319 
L 972 3319 
L 972 1478 
Q 972 1038 1006 884 
Q 1059 663 1231 536 
Q 1403 409 1656 409 
Q 1909 409 2131 539 
Q 2353 669 2445 892 
Q 2538 1116 2538 1541 
L 2538 3319 
L 3100 3319 
L 3100 0 
L 2597 0 
z
" transform="scale(0.015625)"/>
       <path id="ArialMT-6d" d="M 422 0 
L 422 3319 
L 925 3319 
L 925 2853 
Q 1081 3097 1340 3245 
Q 1600 3394 1931 3394 
Q 2300 3394 2536 3241 
Q 2772 3088 2869 2813 
Q 3263 3394 3894 3394 
Q 4388 3394 4653 3120 
Q 4919 2847 4919 2278 
L 4919 0 
L 4359 0 
L 4359 2091 
Q 4359 2428 4304 2576 
Q 4250 2725 4106 2815 
Q 3963 2906 3769 2906 
Q 3419 2906 3187 2673 
Q 2956 2441 2956 1928 
L 2956 0 
L 2394 0 
L 2394 2156 
Q 2394 2531 2256 2718 
Q 2119 2906 1806 2906 
Q 1569 2906 1367 2781 
Q 1166 2656 1075 2415 
Q 984 2175 984 1722 
L 984 0 
L 422 0 
z
" transform="scale(0.015625)"/>
       <path id="ArialMT-62" d="M 941 0 
L 419 0 
L 419 4581 
L 981 4581 
L 981 2947 
Q 1338 3394 1891 3394 
Q 2197 3394 2470 3270 
Q 2744 3147 2920 2923 
Q 3097 2700 3197 2384 
Q 3297 2069 3297 1709 
Q 3297 856 2875 390 
Q 2453 -75 1863 -75 
Q 1275 -75 941 416 
L 941 0 
z
M 934 1684 
Q 934 1088 1097 822 
Q 1363 388 1816 388 
Q 2184 388 2453 708 
Q 2722 1028 2722 1663 
Q 2722 2313 2464 2622 
Q 2206 2931 1841 2931 
Q 1472 2931 1203 2611 
Q 934 2291 934 1684 
z
" transform="scale(0.015625)"/>
       <path id="ArialMT-65" d="M 2694 1069 
L 3275 997 
Q 3138 488 2766 206 
Q 2394 -75 1816 -75 
Q 1088 -75 661 373 
Q 234 822 234 1631 
Q 234 2469 665 2931 
Q 1097 3394 1784 3394 
Q 2450 3394 2872 2941 
Q 3294 2488 3294 1666 
Q 3294 1616 3291 1516 
L 816 1516 
Q 847 969 1125 678 
Q 1403 388 1819 388 
Q 2128 388 2347 550 
Q 2566 713 2694 1069 
z
M 847 1978 
L 2700 1978 
Q 2663 2397 2488 2606 
Q 2219 2931 1791 2931 
Q 1403 2931 1139 2672 
Q 875 2413 847 1978 
z
" transform="scale(0.015625)"/>
       <path id="ArialMT-72" d="M 416 0 
L 416 3319 
L 922 3319 
L 922 2816 
Q 1116 3169 1280 3281 
Q 1444 3394 1641 3394 
Q 1925 3394 2219 3213 
L 2025 2691 
Q 1819 2813 1613 2813 
Q 1428 2813 1281 2702 
Q 1134 2591 1072 2394 
Q 978 2094 978 1738 
L 978 0 
L 416 0 
z
" transform="scale(0.015625)"/>
       <path id="ArialMT-20" transform="scale(0.015625)"/>
       <path id="ArialMT-6f" d="M 213 1659 
Q 213 2581 725 3025 
Q 1153 3394 1769 3394 
Q 2453 3394 2887 2945 
Q 3322 2497 3322 1706 
Q 3322 1066 3130 698 
Q 2938 331 2570 128 
Q 2203 -75 1769 -75 
Q 1072 -75 642 372 
Q 213 819 213 1659 
z
M 791 1659 
Q 791 1022 1069 705 
Q 1347 388 1769 388 
Q 2188 388 2466 706 
Q 2744 1025 2744 1678 
Q 2744 2294 2464 2611 
Q 2184 2928 1769 2928 
Q 1347 2928 1069 2612 
Q 791 2297 791 1659 
z
" transform="scale(0.015625)"/>
       <path id="ArialMT-66" d="M 556 0 
L 556 2881 
L 59 2881 
L 59 3319 
L 556 3319 
L 556 3672 
Q 556 4006 616 4169 
Q 697 4388 901 4523 
Q 1106 4659 1475 4659 
Q 1713 4659 2000 4603 
L 1916 4113 
Q 1741 4144 1584 4144 
Q 1328 4144 1222 4034 
Q 1116 3925 1116 3625 
L 1116 3319 
L 1763 3319 
L 1763 2881 
L 1116 2881 
L 1116 0 
L 556 0 
z
" transform="scale(0.015625)"/>
       <path id="ArialMT-76" d="M 1344 0 
L 81 3319 
L 675 3319 
L 1388 1331 
Q 1503 1009 1600 663 
Q 1675 925 1809 1294 
L 2547 3319 
L 3125 3319 
L 1869 0 
L 1344 0 
z
" transform="scale(0.015625)"/>
       <path id="ArialMT-64" d="M 2575 0 
L 2575 419 
Q 2259 -75 1647 -75 
Q 1250 -75 917 144 
Q 584 363 401 755 
Q 219 1147 219 1656 
Q 219 2153 384 2558 
Q 550 2963 881 3178 
Q 1213 3394 1622 3394 
Q 1922 3394 2156 3267 
Q 2391 3141 2538 2938 
L 2538 4581 
L 3097 4581 
L 3097 0 
L 2575 0 
z
M 797 1656 
Q 797 1019 1065 703 
Q 1334 388 1700 388 
Q 2069 388 2326 689 
Q 2584 991 2584 1609 
Q 2584 2291 2321 2609 
Q 2059 2928 1675 2928 
Q 1300 2928 1048 2622 
Q 797 2316 797 1656 
z
" transform="scale(0.015625)"/>
       <path id="ArialMT-61" d="M 2588 409 
Q 2275 144 1986 34 
Q 1697 -75 1366 -75 
Q 819 -75 525 192 
Q 231 459 231 875 
Q 231 1119 342 1320 
Q 453 1522 633 1644 
Q 813 1766 1038 1828 
Q 1203 1872 1538 1913 
Q 2219 1994 2541 2106 
Q 2544 2222 2544 2253 
Q 2544 2597 2384 2738 
Q 2169 2928 1744 2928 
Q 1347 2928 1158 2789 
Q 969 2650 878 2297 
L 328 2372 
Q 403 2725 575 2942 
Q 747 3159 1072 3276 
Q 1397 3394 1825 3394 
Q 2250 3394 2515 3294 
Q 2781 3194 2906 3042 
Q 3031 2891 3081 2659 
Q 3109 2516 3109 2141 
L 3109 1391 
Q 3109 606 3145 398 
Q 3181 191 3288 0 
L 2700 0 
Q 2613 175 2588 409 
z
M 2541 1666 
Q 2234 1541 1622 1453 
Q 1275 1403 1131 1340 
Q 988 1278 909 1158 
Q 831 1038 831 891 
Q 831 666 1001 516 
Q 1172 366 1500 366 
Q 1825 366 2078 508 
Q 2331 650 2450 897 
Q 2541 1088 2541 1459 
L 2541 1666 
z
" transform="scale(0.015625)"/>
       <path id="ArialMT-74" d="M 1650 503 
L 1731 6 
Q 1494 -44 1306 -44 
Q 1000 -44 831 53 
Q 663 150 594 308 
Q 525 466 525 972 
L 525 2881 
L 113 2881 
L 113 3319 
L 525 3319 
L 525 4141 
L 1084 4478 
L 1084 3319 
L 1650 3319 
L 1650 2881 
L 1084 2881 
L 1084 941 
Q 1084 700 1114 631 
Q 1144 563 1211 522 
Q 1278 481 1403 481 
Q 1497 481 1650 503 
z
" transform="scale(0.015625)"/>
       <path id="ArialMT-73" d="M 197 991 
L 753 1078 
Q 800 744 1014 566 
Q 1228 388 1613 388 
Q 2000 388 2187 545 
Q 2375 703 2375 916 
Q 2375 1106 2209 1216 
Q 2094 1291 1634 1406 
Q 1016 1563 777 1677 
Q 538 1791 414 1992 
Q 291 2194 291 2438 
Q 291 2659 392 2848 
Q 494 3038 669 3163 
Q 800 3259 1026 3326 
Q 1253 3394 1513 3394 
Q 1903 3394 2198 3281 
Q 2494 3169 2634 2976 
Q 2775 2784 2828 2463 
L 2278 2388 
Q 2241 2644 2061 2787 
Q 1881 2931 1553 2931 
Q 1166 2931 1000 2803 
Q 834 2675 834 2503 
Q 834 2394 903 2306 
Q 972 2216 1119 2156 
Q 1203 2125 1616 2013 
Q 2213 1853 2448 1751 
Q 2684 1650 2818 1456 
Q 2953 1263 2953 975 
Q 2953 694 2789 445 
Q 2625 197 2315 61 
Q 2006 -75 1616 -75 
Q 969 -75 630 194 
Q 291 463 197 991 
z
" transform="scale(0.015625)"/>
      </defs>
      <use xlink:href="#ArialMT-4e"/>
      <use xlink:href="#ArialMT-75" x="72.216797"/>
      <use xlink:href="#ArialMT-6d" x="127.832031"/>
      <use xlink:href="#ArialMT-62" x="211.132812"/>
      <use xlink:href="#ArialMT-65" x="266.748047"/>
      <use xlink:href="#ArialMT-72" x="322.363281"/>
      <use xlink:href="#ArialMT-20" x="355.664062"/>
      <use xlink:href="#ArialMT-6f" x="383.447266"/>
      <use xlink:href="#ArialMT-66" x="439.0625"/>
      <use xlink:href="#ArialMT-20" x="466.845703"/>
      <use xlink:href="#ArialMT-72" x="494.628906"/>
      <use xlink:href="#ArialMT-65" x="527.929688"/>
      <use xlink:href="#ArialMT-6d" x="583.544922"/>
      <use xlink:href="#ArialMT-6f" x="666.845703"/>
      <use xlink:href="#ArialMT-76" x="722.460938"/>
      <use xlink:href="#ArialMT-65" x="772.460938"/>
      <use xlink:href="#ArialMT-64" x="828.076172"/>
      <use xlink:href="#ArialMT-20" x="883.691406"/>
      <use xlink:href="#ArialMT-66" x="911.474609"/>
      <use xlink:href="#ArialMT-65" x="939.257812"/>
      <use xlink:href="#ArialMT-61" x="994.873047"/>
      <use xlink:href="#ArialMT-74" x="1050.488281"/>
      <use xlink:href="#ArialMT-75" x="1078.271484"/>
      <use xlink:href="#ArialMT-72" x="1133.886719"/>
      <use xlink:href="#ArialMT-65" x="1167.1875"/>
      <use xlink:href="#ArialMT-73" x="1222.802734"/>
     </g>
    </g>
   </g>
   <g id="matplotlib.axis_2">
    <g id="ytick_1">
     <g id="line2d_4">
      <path d="M 46.964375 162.849375 
L 232.385767 162.849375 
" clip-path="url(#pef0ac3128b)" style="fill: none; stroke: #ffffff; stroke-linecap: round"/>
     </g>
     <g id="text_5">
      <!-- 0.0 -->
      <g style="fill: #262626" transform="translate(22.174375 166.786172) scale(0.11 -0.11)">
       <defs>
        <path id="ArialMT-2e" d="M 581 0 
L 581 641 
L 1222 641 
L 1222 0 
L 581 0 
z
" transform="scale(0.015625)"/>
       </defs>
       <use xlink:href="#ArialMT-30"/>
       <use xlink:href="#ArialMT-2e" x="55.615234"/>
       <use xlink:href="#ArialMT-30" x="83.398438"/>
      </g>
     </g>
    </g>
    <g id="ytick_2">
     <g id="line2d_5">
      <path d="M 46.964375 134.637375 
L 232.385767 134.637375 
" clip-path="url(#pef0ac3128b)" style="fill: none; stroke: #ffffff; stroke-linecap: round"/>
     </g>
     <g id="text_6">
      <!-- 0.2 -->
      <g style="fill: #262626" transform="translate(22.174375 138.574172) scale(0.11 -0.11)">
       <use xlink:href="#ArialMT-30"/>
       <use xlink:href="#ArialMT-2e" x="55.615234"/>
       <use xlink:href="#ArialMT-32" x="83.398438"/>
      </g>
     </g>
    </g>
    <g id="ytick_3">
     <g id="line2d_6">
      <path d="M 46.964375 106.425375 
L 232.385767 106.425375 
" clip-path="url(#pef0ac3128b)" style="fill: none; stroke: #ffffff; stroke-linecap: round"/>
     </g>
     <g id="text_7">
      <!-- 0.4 -->
      <g style="fill: #262626" transform="translate(22.174375 110.362172) scale(0.11 -0.11)">
       <use xlink:href="#ArialMT-30"/>
       <use xlink:href="#ArialMT-2e" x="55.615234"/>
       <use xlink:href="#ArialMT-34" x="83.398438"/>
      </g>
     </g>
    </g>
    <g id="ytick_4">
     <g id="line2d_7">
      <path d="M 46.964375 78.213375 
L 232.385767 78.213375 
" clip-path="url(#pef0ac3128b)" style="fill: none; stroke: #ffffff; stroke-linecap: round"/>
     </g>
     <g id="text_8">
      <!-- 0.6 -->
      <g style="fill: #262626" transform="translate(22.174375 82.150172) scale(0.11 -0.11)">
       <defs>
        <path id="ArialMT-36" d="M 3184 3459 
L 2625 3416 
Q 2550 3747 2413 3897 
Q 2184 4138 1850 4138 
Q 1581 4138 1378 3988 
Q 1113 3794 959 3422 
Q 806 3050 800 2363 
Q 1003 2672 1297 2822 
Q 1591 2972 1913 2972 
Q 2475 2972 2870 2558 
Q 3266 2144 3266 1488 
Q 3266 1056 3080 686 
Q 2894 316 2569 119 
Q 2244 -78 1831 -78 
Q 1128 -78 684 439 
Q 241 956 241 2144 
Q 241 3472 731 4075 
Q 1159 4600 1884 4600 
Q 2425 4600 2770 4297 
Q 3116 3994 3184 3459 
z
M 888 1484 
Q 888 1194 1011 928 
Q 1134 663 1356 523 
Q 1578 384 1822 384 
Q 2178 384 2434 671 
Q 2691 959 2691 1453 
Q 2691 1928 2437 2201 
Q 2184 2475 1800 2475 
Q 1419 2475 1153 2201 
Q 888 1928 888 1484 
z
" transform="scale(0.015625)"/>
       </defs>
       <use xlink:href="#ArialMT-30"/>
       <use xlink:href="#ArialMT-2e" x="55.615234"/>
       <use xlink:href="#ArialMT-36" x="83.398438"/>
      </g>
     </g>
    </g>
    <g id="ytick_5">
     <g id="line2d_8">
      <path d="M 46.964375 50.001375 
L 232.385767 50.001375 
" clip-path="url(#pef0ac3128b)" style="fill: none; stroke: #ffffff; stroke-linecap: round"/>
     </g>
     <g id="text_9">
      <!-- 0.8 -->
      <g style="fill: #262626" transform="translate(22.174375 53.938172) scale(0.11 -0.11)">
       <defs>
        <path id="ArialMT-38" d="M 1131 2484 
Q 781 2613 612 2850 
Q 444 3088 444 3419 
Q 444 3919 803 4259 
Q 1163 4600 1759 4600 
Q 2359 4600 2725 4251 
Q 3091 3903 3091 3403 
Q 3091 3084 2923 2848 
Q 2756 2613 2416 2484 
Q 2838 2347 3058 2040 
Q 3278 1734 3278 1309 
Q 3278 722 2862 322 
Q 2447 -78 1769 -78 
Q 1091 -78 675 323 
Q 259 725 259 1325 
Q 259 1772 486 2073 
Q 713 2375 1131 2484 
z
M 1019 3438 
Q 1019 3113 1228 2906 
Q 1438 2700 1772 2700 
Q 2097 2700 2305 2904 
Q 2513 3109 2513 3406 
Q 2513 3716 2298 3927 
Q 2084 4138 1766 4138 
Q 1444 4138 1231 3931 
Q 1019 3725 1019 3438 
z
M 838 1322 
Q 838 1081 952 856 
Q 1066 631 1291 507 
Q 1516 384 1775 384 
Q 2178 384 2440 643 
Q 2703 903 2703 1303 
Q 2703 1709 2433 1975 
Q 2163 2241 1756 2241 
Q 1359 2241 1098 1978 
Q 838 1716 838 1322 
z
" transform="scale(0.015625)"/>
       </defs>
       <use xlink:href="#ArialMT-30"/>
       <use xlink:href="#ArialMT-2e" x="55.615234"/>
       <use xlink:href="#ArialMT-38" x="83.398438"/>
      </g>
     </g>
    </g>
    <g id="ytick_6">
     <g id="line2d_9">
      <path d="M 46.964375 21.789375 
L 232.385767 21.789375 
" clip-path="url(#pef0ac3128b)" style="fill: none; stroke: #ffffff; stroke-linecap: round"/>
     </g>
     <g id="text_10">
      <!-- 1.0 -->
      <g style="fill: #262626" transform="translate(22.174375 25.726172) scale(0.11 -0.11)">
       <defs>
        <path id="ArialMT-31" d="M 2384 0 
L 1822 0 
L 1822 3584 
Q 1619 3391 1289 3197 
Q 959 3003 697 2906 
L 697 3450 
Q 1169 3672 1522 3987 
Q 1875 4303 2022 4600 
L 2384 4600 
L 2384 0 
z
" transform="scale(0.015625)"/>
       </defs>
       <use xlink:href="#ArialMT-31"/>
       <use xlink:href="#ArialMT-2e" x="55.615234"/>
       <use xlink:href="#ArialMT-30" x="83.398438"/>
      </g>
     </g>
    </g>
    <g id="text_11">
     <!-- Robustness score -->
     <g style="fill: #262626" transform="translate(15.789375 140.34) rotate(-90) scale(0.12 -0.12)">
      <defs>
       <path id="ArialMT-52" d="M 503 0 
L 503 4581 
L 2534 4581 
Q 3147 4581 3465 4457 
Q 3784 4334 3975 4021 
Q 4166 3709 4166 3331 
Q 4166 2844 3850 2509 
Q 3534 2175 2875 2084 
Q 3116 1969 3241 1856 
Q 3506 1613 3744 1247 
L 4541 0 
L 3778 0 
L 3172 953 
Q 2906 1366 2734 1584 
Q 2563 1803 2427 1890 
Q 2291 1978 2150 2013 
Q 2047 2034 1813 2034 
L 1109 2034 
L 1109 0 
L 503 0 
z
M 1109 2559 
L 2413 2559 
Q 2828 2559 3062 2645 
Q 3297 2731 3419 2920 
Q 3541 3109 3541 3331 
Q 3541 3656 3305 3865 
Q 3069 4075 2559 4075 
L 1109 4075 
L 1109 2559 
z
" transform="scale(0.015625)"/>
       <path id="ArialMT-6e" d="M 422 0 
L 422 3319 
L 928 3319 
L 928 2847 
Q 1294 3394 1984 3394 
Q 2284 3394 2536 3286 
Q 2788 3178 2913 3003 
Q 3038 2828 3088 2588 
Q 3119 2431 3119 2041 
L 3119 0 
L 2556 0 
L 2556 2019 
Q 2556 2363 2490 2533 
Q 2425 2703 2258 2804 
Q 2091 2906 1866 2906 
Q 1506 2906 1245 2678 
Q 984 2450 984 1813 
L 984 0 
L 422 0 
z
" transform="scale(0.015625)"/>
       <path id="ArialMT-63" d="M 2588 1216 
L 3141 1144 
Q 3050 572 2676 248 
Q 2303 -75 1759 -75 
Q 1078 -75 664 370 
Q 250 816 250 1647 
Q 250 2184 428 2587 
Q 606 2991 970 3192 
Q 1334 3394 1763 3394 
Q 2303 3394 2647 3120 
Q 2991 2847 3088 2344 
L 2541 2259 
Q 2463 2594 2264 2762 
Q 2066 2931 1784 2931 
Q 1359 2931 1093 2626 
Q 828 2322 828 1663 
Q 828 994 1084 691 
Q 1341 388 1753 388 
Q 2084 388 2306 591 
Q 2528 794 2588 1216 
z
" transform="scale(0.015625)"/>
      </defs>
      <use xlink:href="#ArialMT-52"/>
      <use xlink:href="#ArialMT-6f" x="72.216797"/>
      <use xlink:href="#ArialMT-62" x="127.832031"/>
      <use xlink:href="#ArialMT-75" x="183.447266"/>
      <use xlink:href="#ArialMT-73" x="239.0625"/>
      <use xlink:href="#ArialMT-74" x="289.0625"/>
      <use xlink:href="#ArialMT-6e" x="316.845703"/>
      <use xlink:href="#ArialMT-65" x="372.460938"/>
      <use xlink:href="#ArialMT-73" x="428.076172"/>
      <use xlink:href="#ArialMT-73" x="478.076172"/>
      <use xlink:href="#ArialMT-20" x="528.076172"/>
      <use xlink:href="#ArialMT-73" x="555.859375"/>
      <use xlink:href="#ArialMT-63" x="605.859375"/>
      <use xlink:href="#ArialMT-6f" x="655.859375"/>
      <use xlink:href="#ArialMT-72" x="711.474609"/>
      <use xlink:href="#ArialMT-65" x="744.775391"/>
     </g>
    </g>
   </g>
   <g id="PolyCollection_1"/>
   <g id="PolyCollection_2"/>
   <g id="PolyCollection_3"/>
   <g id="PolyCollection_4"/>
   <g id="line2d_10">
    <path d="M 55.39262 23.947593 
L 58.979107 21.789375 
L 62.565595 21.789375 
L 66.152082 21.789375 
L 69.738569 22.861431 
L 73.325057 21.789375 
L 76.911544 21.789375 
L 80.498031 21.789375 
L 84.084518 21.789375 
L 87.671006 21.789375 
L 91.257493 21.789375 
L 94.84398 21.789375 
L 98.430467 22.861431 
L 102.016955 22.861431 
L 105.603442 21.789375 
L 109.189929 21.789375 
L 112.776417 21.789375 
L 116.362904 21.789375 
L 119.949391 21.789375 
L 123.535878 21.789375 
L 127.122366 21.789375 
L 130.708853 21.789375 
L 134.29534 21.789375 
L 137.881828 21.789375 
L 141.468315 21.789375 
L 145.054802 21.789375 
L 148.641289 21.789375 
L 152.227777 21.789375 
L 155.814264 21.789375 
L 159.400751 21.789375 
L 162.987238 21.789375 
L 166.573726 21.789375 
L 170.160213 21.789375 
L 173.7467 21.789375 
L 177.333188 21.789375 
L 180.919675 21.789375 
L 184.506162 21.789375 
L 188.092649 21.789375 
L 191.679137 21.789375 
L 195.265624 21.789375 
L 198.852111 21.789375 
L 202.438599 21.789375 
L 206.025086 21.789375 
L 209.611573 21.789375 
L 213.19806 21.789375 
L 216.784548 21.789375 
L 220.371035 21.789375 
L 223.957522 21.789375 
" clip-path="url(#pef0ac3128b)" style="fill: none; stroke: #4c72b0; stroke-width: 1.5; stroke-linecap: round"/>
   </g>
   <g id="line2d_11">
    <path d="M 55.39262 21.789375 
L 58.979107 32.552253 
L 62.565595 41.171019 
L 66.152082 45.473349 
L 69.738569 47.631567 
L 73.325057 44.401293 
L 76.911544 42.243075 
L 80.498031 39.012801 
L 84.084518 35.782527 
L 87.671006 36.868689 
L 91.257493 34.710471 
L 94.84398 28.249923 
L 98.430467 25.019649 
L 102.016955 27.177867 
L 105.603442 25.019649 
L 109.189929 25.019649 
L 112.776417 25.019649 
L 116.362904 25.019649 
L 119.949391 25.019649 
L 123.535878 25.019649 
L 127.122366 23.947593 
L 130.708853 22.861431 
L 134.29534 22.861431 
L 137.881828 22.861431 
L 141.468315 21.789375 
L 145.054802 21.789375 
L 148.641289 21.789375 
L 152.227777 21.789375 
L 155.814264 21.789375 
L 159.400751 21.789375 
L 162.987238 21.789375 
L 166.573726 21.789375 
L 170.160213 21.789375 
L 173.7467 21.789375 
L 177.333188 21.789375 
L 180.919675 21.789375 
L 184.506162 21.789375 
L 188.092649 21.789375 
L 191.679137 21.789375 
L 195.265624 21.789375 
L 198.852111 21.789375 
L 202.438599 21.789375 
L 206.025086 21.789375 
L 209.611573 21.789375 
L 213.19806 21.789375 
L 216.784548 21.789375 
L 220.371035 21.789375 
L 223.957522 21.789375 
" clip-path="url(#pef0ac3128b)" style="fill: none; stroke: #dd8452; stroke-width: 1.5; stroke-linecap: round"/>
   </g>
   <g id="line2d_12">
    <path d="M 55.39262 29.321979 
L 58.979107 36.868689 
L 62.565595 39.012801 
L 66.152082 35.782527 
L 69.738569 36.868689 
L 73.325057 36.868689 
L 76.911544 34.710471 
L 80.498031 35.782527 
L 84.084518 33.638415 
L 87.671006 31.480197 
L 91.257493 31.480197 
L 94.84398 32.552253 
L 98.430467 32.552253 
L 102.016955 32.552253 
L 105.603442 32.552253 
L 109.189929 32.552253 
L 112.776417 33.638415 
L 116.362904 34.710471 
L 119.949391 34.710471 
L 123.535878 34.710471 
L 127.122366 34.710471 
L 130.708853 35.782527 
L 134.29534 35.782527 
L 137.881828 35.782527 
L 141.468315 35.782527 
L 145.054802 35.782527 
L 148.641289 35.782527 
L 152.227777 35.782527 
L 155.814264 35.782527 
L 159.400751 35.782527 
L 162.987238 35.782527 
L 166.573726 35.782527 
L 170.160213 35.782527 
L 173.7467 35.782527 
L 177.333188 35.782527 
L 180.919675 35.782527 
L 184.506162 35.782527 
L 188.092649 35.782527 
L 191.679137 35.782527 
L 195.265624 35.782527 
L 198.852111 35.782527 
L 202.438599 35.782527 
L 206.025086 35.782527 
L 209.611573 35.782527 
L 213.19806 35.782527 
L 216.784548 35.782527 
L 220.371035 35.782527 
L 223.957522 35.782527 
" clip-path="url(#pef0ac3128b)" style="fill: none; stroke: #55a868; stroke-width: 1.5; stroke-linecap: round"/>
   </g>
   <g id="line2d_13">
    <path d="M 55.39262 28.249923 
L 58.979107 32.552253 
L 62.565595 34.710471 
L 66.152082 34.710471 
L 69.738569 33.638415 
L 73.325057 33.638415 
L 76.911544 33.638415 
L 80.498031 32.552253 
L 84.084518 32.552253 
L 87.671006 32.552253 
L 91.257493 31.480197 
L 94.84398 32.552253 
L 98.430467 32.552253 
L 102.016955 32.552253 
L 105.603442 32.552253 
L 109.189929 32.552253 
L 112.776417 32.552253 
L 116.362904 31.480197 
L 119.949391 32.552253 
L 123.535878 32.552253 
L 127.122366 32.552253 
L 130.708853 32.552253 
L 134.29534 32.552253 
L 137.881828 32.552253 
L 141.468315 32.552253 
L 145.054802 32.552253 
L 148.641289 32.552253 
L 152.227777 32.552253 
L 155.814264 32.552253 
L 159.400751 32.552253 
L 162.987238 32.552253 
L 166.573726 32.552253 
L 170.160213 32.552253 
L 173.7467 32.552253 
L 177.333188 32.552253 
L 180.919675 32.552253 
L 184.506162 32.552253 
L 188.092649 32.552253 
L 191.679137 32.552253 
L 195.265624 32.552253 
L 198.852111 32.552253 
L 202.438599 32.552253 
L 206.025086 32.552253 
L 209.611573 32.552253 
L 213.19806 32.552253 
L 216.784548 32.552253 
L 220.371035 32.552253 
L 223.957522 32.552253 
" clip-path="url(#pef0ac3128b)" style="fill: none; stroke: #c44e52; stroke-width: 1.5; stroke-linecap: round"/>
   </g>
   <g id="patch_3">
    <path d="M 46.964375 162.849375 
L 46.964375 21.789375 
" style="fill: none; stroke: #ffffff; stroke-width: 1.25; stroke-linejoin: miter; stroke-linecap: square"/>
   </g>
   <g id="patch_4">
    <path d="M 46.964375 162.849375 
L 232.385767 162.849375 
" style="fill: none; stroke: #ffffff; stroke-width: 1.25; stroke-linejoin: miter; stroke-linecap: square"/>
   </g>
   <g id="text_12">
    <!-- Model = RF -->
    <g style="fill: #262626" transform="translate(108.498509 15.789375) scale(0.12 -0.12)">
     <defs>
      <path id="ArialMT-4d" d="M 475 0 
L 475 4581 
L 1388 4581 
L 2472 1338 
Q 2622 884 2691 659 
Q 2769 909 2934 1394 
L 4031 4581 
L 4847 4581 
L 4847 0 
L 4263 0 
L 4263 3834 
L 2931 0 
L 2384 0 
L 1059 3900 
L 1059 0 
L 475 0 
z
" transform="scale(0.015625)"/>
      <path id="ArialMT-6c" d="M 409 0 
L 409 4581 
L 972 4581 
L 972 0 
L 409 0 
z
" transform="scale(0.015625)"/>
      <path id="ArialMT-3d" d="M 3381 2694 
L 356 2694 
L 356 3219 
L 3381 3219 
L 3381 2694 
z
M 3381 1303 
L 356 1303 
L 356 1828 
L 3381 1828 
L 3381 1303 
z
" transform="scale(0.015625)"/>
      <path id="ArialMT-46" d="M 525 0 
L 525 4581 
L 3616 4581 
L 3616 4041 
L 1131 4041 
L 1131 2622 
L 3281 2622 
L 3281 2081 
L 1131 2081 
L 1131 0 
L 525 0 
z
" transform="scale(0.015625)"/>
     </defs>
     <use xlink:href="#ArialMT-4d"/>
     <use xlink:href="#ArialMT-6f" x="83.300781"/>
     <use xlink:href="#ArialMT-64" x="138.916016"/>
     <use xlink:href="#ArialMT-65" x="194.53125"/>
     <use xlink:href="#ArialMT-6c" x="250.146484"/>
     <use xlink:href="#ArialMT-20" x="272.363281"/>
     <use xlink:href="#ArialMT-3d" x="300.146484"/>
     <use xlink:href="#ArialMT-20" x="358.544922"/>
     <use xlink:href="#ArialMT-52" x="386.328125"/>
     <use xlink:href="#ArialMT-46" x="458.544922"/>
    </g>
   </g>
  </g>
  <g id="axes_2">
   <g id="patch_5">
    <path d="M 245.338879 162.849375 
L 430.760271 162.849375 
L 430.760271 21.789375 
L 245.338879 21.789375 
z
" style="fill: #eaeaf2"/>
   </g>
   <g id="matplotlib.axis_3">
    <g id="xtick_4">
     <g id="line2d_14">
      <path d="M 250.180637 162.849375 
L 250.180637 21.789375 
" clip-path="url(#p827eb60342)" style="fill: none; stroke: #ffffff; stroke-linecap: round"/>
     </g>
     <g id="text_13">
      <!-- 0 -->
      <g style="fill: #262626" transform="translate(247.122121 180.222969) scale(0.11 -0.11)">
       <use xlink:href="#ArialMT-30"/>
      </g>
     </g>
    </g>
    <g id="xtick_5">
     <g id="line2d_15">
      <path d="M 321.910382 162.849375 
L 321.910382 21.789375 
" clip-path="url(#p827eb60342)" style="fill: none; stroke: #ffffff; stroke-linecap: round"/>
     </g>
     <g id="text_14">
      <!-- 20 -->
      <g style="fill: #262626" transform="translate(315.793351 180.222969) scale(0.11 -0.11)">
       <use xlink:href="#ArialMT-32"/>
       <use xlink:href="#ArialMT-30" x="55.615234"/>
      </g>
     </g>
    </g>
    <g id="xtick_6">
     <g id="line2d_16">
      <path d="M 393.640128 162.849375 
L 393.640128 21.789375 
" clip-path="url(#p827eb60342)" style="fill: none; stroke: #ffffff; stroke-linecap: round"/>
     </g>
     <g id="text_15">
      <!-- 40 -->
      <g style="fill: #262626" transform="translate(387.523097 180.222969) scale(0.11 -0.11)">
       <use xlink:href="#ArialMT-34"/>
       <use xlink:href="#ArialMT-30" x="55.615234"/>
      </g>
     </g>
    </g>
    <g id="text_16">
     <!-- Number of removed features -->
     <g style="fill: #262626" transform="translate(261.687387 194.998594) scale(0.12 -0.12)">
      <use xlink:href="#ArialMT-4e"/>
      <use xlink:href="#ArialMT-75" x="72.216797"/>
      <use xlink:href="#ArialMT-6d" x="127.832031"/>
      <use xlink:href="#ArialMT-62" x="211.132812"/>
      <use xlink:href="#ArialMT-65" x="266.748047"/>
      <use xlink:href="#ArialMT-72" x="322.363281"/>
      <use xlink:href="#ArialMT-20" x="355.664062"/>
      <use xlink:href="#ArialMT-6f" x="383.447266"/>
      <use xlink:href="#ArialMT-66" x="439.0625"/>
      <use xlink:href="#ArialMT-20" x="466.845703"/>
      <use xlink:href="#ArialMT-72" x="494.628906"/>
      <use xlink:href="#ArialMT-65" x="527.929688"/>
      <use xlink:href="#ArialMT-6d" x="583.544922"/>
      <use xlink:href="#ArialMT-6f" x="666.845703"/>
      <use xlink:href="#ArialMT-76" x="722.460938"/>
      <use xlink:href="#ArialMT-65" x="772.460938"/>
      <use xlink:href="#ArialMT-64" x="828.076172"/>
      <use xlink:href="#ArialMT-20" x="883.691406"/>
      <use xlink:href="#ArialMT-66" x="911.474609"/>
      <use xlink:href="#ArialMT-65" x="939.257812"/>
      <use xlink:href="#ArialMT-61" x="994.873047"/>
      <use xlink:href="#ArialMT-74" x="1050.488281"/>
      <use xlink:href="#ArialMT-75" x="1078.271484"/>
      <use xlink:href="#ArialMT-72" x="1133.886719"/>
      <use xlink:href="#ArialMT-65" x="1167.1875"/>
      <use xlink:href="#ArialMT-73" x="1222.802734"/>
     </g>
    </g>
   </g>
   <g id="matplotlib.axis_4">
    <g id="ytick_7">
     <g id="line2d_17">
      <path d="M 245.338879 162.849375 
L 430.760271 162.849375 
" clip-path="url(#p827eb60342)" style="fill: none; stroke: #ffffff; stroke-linecap: round"/>
     </g>
    </g>
    <g id="ytick_8">
     <g id="line2d_18">
      <path d="M 245.338879 134.637375 
L 430.760271 134.637375 
" clip-path="url(#p827eb60342)" style="fill: none; stroke: #ffffff; stroke-linecap: round"/>
     </g>
    </g>
    <g id="ytick_9">
     <g id="line2d_19">
      <path d="M 245.338879 106.425375 
L 430.760271 106.425375 
" clip-path="url(#p827eb60342)" style="fill: none; stroke: #ffffff; stroke-linecap: round"/>
     </g>
    </g>
    <g id="ytick_10">
     <g id="line2d_20">
      <path d="M 245.338879 78.213375 
L 430.760271 78.213375 
" clip-path="url(#p827eb60342)" style="fill: none; stroke: #ffffff; stroke-linecap: round"/>
     </g>
    </g>
    <g id="ytick_11">
     <g id="line2d_21">
      <path d="M 245.338879 50.001375 
L 430.760271 50.001375 
" clip-path="url(#p827eb60342)" style="fill: none; stroke: #ffffff; stroke-linecap: round"/>
     </g>
    </g>
    <g id="ytick_12">
     <g id="line2d_22">
      <path d="M 245.338879 21.789375 
L 430.760271 21.789375 
" clip-path="url(#p827eb60342)" style="fill: none; stroke: #ffffff; stroke-linecap: round"/>
     </g>
    </g>
   </g>
   <g id="PolyCollection_5"/>
   <g id="PolyCollection_6"/>
   <g id="PolyCollection_7"/>
   <g id="PolyCollection_8"/>
   <g id="line2d_23">
    <path d="M 253.767124 23.947593 
L 257.353611 25.019649 
L 260.940098 37.940745 
L 264.526586 41.171019 
L 268.113073 40.098963 
L 271.69956 43.329237 
L 275.286048 46.559511 
L 278.872535 49.789785 
L 282.459022 51.933897 
L 286.045509 49.789785 
L 289.631997 46.559511 
L 293.218484 42.243075 
L 296.804971 43.329237 
L 300.391459 44.401293 
L 303.977946 41.171019 
L 307.564433 42.243075 
L 311.15092 36.868689 
L 314.737408 35.782527 
L 318.323895 34.710471 
L 321.910382 32.552253 
L 325.49687 31.480197 
L 329.083357 30.408141 
L 332.669844 31.480197 
L 336.256331 29.321979 
L 339.842819 29.321979 
L 343.429306 27.177867 
L 347.015793 29.321979 
L 350.60228 30.408141 
L 354.188768 28.249923 
L 357.775255 23.947593 
L 361.361742 23.947593 
L 364.94823 23.947593 
L 368.534717 23.947593 
L 372.121204 23.947593 
L 375.707691 23.947593 
L 379.294179 23.947593 
L 382.880666 22.861431 
L 386.467153 22.861431 
L 390.053641 21.789375 
L 393.640128 21.789375 
L 397.226615 21.789375 
L 400.813102 21.789375 
L 404.39959 21.789375 
L 407.986077 21.789375 
L 411.572564 21.789375 
L 415.159052 21.789375 
L 418.745539 21.789375 
L 422.332026 21.789375 
" clip-path="url(#p827eb60342)" style="fill: none; stroke: #4c72b0; stroke-width: 1.5; stroke-linecap: round"/>
   </g>
   <g id="line2d_24">
    <path d="M 253.767124 28.249923 
L 257.353611 28.249923 
L 260.940098 37.940745 
L 264.526586 47.631567 
L 268.113073 46.559511 
L 271.69956 47.631567 
L 275.286048 42.243075 
L 278.872535 39.012801 
L 282.459022 42.243075 
L 286.045509 41.171019 
L 289.631997 33.638415 
L 293.218484 30.408141 
L 296.804971 30.408141 
L 300.391459 30.408141 
L 303.977946 29.321979 
L 307.564433 26.091705 
L 311.15092 25.019649 
L 314.737408 23.947593 
L 318.323895 21.789375 
L 321.910382 22.861431 
L 325.49687 22.861431 
L 329.083357 22.861431 
L 332.669844 21.789375 
L 336.256331 21.789375 
L 339.842819 21.789375 
L 343.429306 21.789375 
L 347.015793 21.789375 
L 350.60228 21.789375 
L 354.188768 21.789375 
L 357.775255 21.789375 
L 361.361742 22.861431 
L 364.94823 22.861431 
L 368.534717 21.789375 
L 372.121204 21.789375 
L 375.707691 21.789375 
L 379.294179 21.789375 
L 382.880666 21.789375 
L 386.467153 22.861431 
L 390.053641 22.861431 
L 393.640128 21.789375 
L 397.226615 21.789375 
L 400.813102 21.789375 
L 404.39959 21.789375 
L 407.986077 21.789375 
L 411.572564 21.789375 
L 415.159052 21.789375 
L 418.745539 21.789375 
L 422.332026 21.789375 
" clip-path="url(#p827eb60342)" style="fill: none; stroke: #dd8452; stroke-width: 1.5; stroke-linecap: round"/>
   </g>
   <g id="line2d_25">
    <path d="M 253.767124 29.321979 
L 257.353611 29.321979 
L 260.940098 32.552253 
L 264.526586 33.638415 
L 268.113073 34.710471 
L 271.69956 33.638415 
L 275.286048 34.710471 
L 278.872535 35.782527 
L 282.459022 35.782527 
L 286.045509 35.782527 
L 289.631997 36.868689 
L 293.218484 35.782527 
L 296.804971 35.782527 
L 300.391459 35.782527 
L 303.977946 35.782527 
L 307.564433 35.782527 
L 311.15092 35.782527 
L 314.737408 35.782527 
L 318.323895 35.782527 
L 321.910382 35.782527 
L 325.49687 35.782527 
L 329.083357 35.782527 
L 332.669844 35.782527 
L 336.256331 35.782527 
L 339.842819 35.782527 
L 343.429306 35.782527 
L 347.015793 35.782527 
L 350.60228 35.782527 
L 354.188768 35.782527 
L 357.775255 35.782527 
L 361.361742 35.782527 
L 364.94823 35.782527 
L 368.534717 35.782527 
L 372.121204 35.782527 
L 375.707691 35.782527 
L 379.294179 35.782527 
L 382.880666 35.782527 
L 386.467153 35.782527 
L 390.053641 35.782527 
L 393.640128 35.782527 
L 397.226615 35.782527 
L 400.813102 35.782527 
L 404.39959 35.782527 
L 407.986077 35.782527 
L 411.572564 35.782527 
L 415.159052 35.782527 
L 418.745539 35.782527 
L 422.332026 35.782527 
" clip-path="url(#p827eb60342)" style="fill: none; stroke: #55a868; stroke-width: 1.5; stroke-linecap: round"/>
   </g>
   <g id="line2d_26">
    <path d="M 253.767124 29.321979 
L 257.353611 30.408141 
L 260.940098 28.249923 
L 264.526586 28.249923 
L 268.113073 28.249923 
L 271.69956 28.249923 
L 275.286048 28.249923 
L 278.872535 29.321979 
L 282.459022 30.408141 
L 286.045509 30.408141 
L 289.631997 29.321979 
L 293.218484 29.321979 
L 296.804971 29.321979 
L 300.391459 29.321979 
L 303.977946 31.480197 
L 307.564433 31.480197 
L 311.15092 31.480197 
L 314.737408 31.480197 
L 318.323895 31.480197 
L 321.910382 31.480197 
L 325.49687 31.480197 
L 329.083357 31.480197 
L 332.669844 31.480197 
L 336.256331 31.480197 
L 339.842819 31.480197 
L 343.429306 31.480197 
L 347.015793 31.480197 
L 350.60228 31.480197 
L 354.188768 31.480197 
L 357.775255 31.480197 
L 361.361742 31.480197 
L 364.94823 31.480197 
L 368.534717 31.480197 
L 372.121204 31.480197 
L 375.707691 31.480197 
L 379.294179 31.480197 
L 382.880666 31.480197 
L 386.467153 31.480197 
L 390.053641 31.480197 
L 393.640128 31.480197 
L 397.226615 31.480197 
L 400.813102 31.480197 
L 404.39959 31.480197 
L 407.986077 31.480197 
L 411.572564 31.480197 
L 415.159052 31.480197 
L 418.745539 31.480197 
L 422.332026 31.480197 
" clip-path="url(#p827eb60342)" style="fill: none; stroke: #c44e52; stroke-width: 1.5; stroke-linecap: round"/>
   </g>
   <g id="patch_6">
    <path d="M 245.338879 162.849375 
L 245.338879 21.789375 
" style="fill: none; stroke: #ffffff; stroke-width: 1.25; stroke-linejoin: miter; stroke-linecap: square"/>
   </g>
   <g id="patch_7">
    <path d="M 245.338879 162.849375 
L 430.760271 162.849375 
" style="fill: none; stroke: #ffffff; stroke-width: 1.25; stroke-linejoin: miter; stroke-linecap: square"/>
   </g>
   <g id="text_17">
    <!-- Model = SVC -->
    <g style="fill: #262626" transform="translate(302.533325 15.789375) scale(0.12 -0.12)">
     <defs>
      <path id="ArialMT-53" d="M 288 1472 
L 859 1522 
Q 900 1178 1048 958 
Q 1197 738 1509 602 
Q 1822 466 2213 466 
Q 2559 466 2825 569 
Q 3091 672 3220 851 
Q 3350 1031 3350 1244 
Q 3350 1459 3225 1620 
Q 3100 1781 2813 1891 
Q 2628 1963 1997 2114 
Q 1366 2266 1113 2400 
Q 784 2572 623 2826 
Q 463 3081 463 3397 
Q 463 3744 659 4045 
Q 856 4347 1234 4503 
Q 1613 4659 2075 4659 
Q 2584 4659 2973 4495 
Q 3363 4331 3572 4012 
Q 3781 3694 3797 3291 
L 3216 3247 
Q 3169 3681 2898 3903 
Q 2628 4125 2100 4125 
Q 1550 4125 1298 3923 
Q 1047 3722 1047 3438 
Q 1047 3191 1225 3031 
Q 1400 2872 2139 2705 
Q 2878 2538 3153 2413 
Q 3553 2228 3743 1945 
Q 3934 1663 3934 1294 
Q 3934 928 3725 604 
Q 3516 281 3123 101 
Q 2731 -78 2241 -78 
Q 1619 -78 1198 103 
Q 778 284 539 648 
Q 300 1013 288 1472 
z
" transform="scale(0.015625)"/>
      <path id="ArialMT-56" d="M 1803 0 
L 28 4581 
L 684 4581 
L 1875 1253 
Q 2019 853 2116 503 
Q 2222 878 2363 1253 
L 3600 4581 
L 4219 4581 
L 2425 0 
L 1803 0 
z
" transform="scale(0.015625)"/>
      <path id="ArialMT-43" d="M 3763 1606 
L 4369 1453 
Q 4178 706 3683 314 
Q 3188 -78 2472 -78 
Q 1731 -78 1267 223 
Q 803 525 561 1097 
Q 319 1669 319 2325 
Q 319 3041 592 3573 
Q 866 4106 1370 4382 
Q 1875 4659 2481 4659 
Q 3169 4659 3637 4309 
Q 4106 3959 4291 3325 
L 3694 3184 
Q 3534 3684 3231 3912 
Q 2928 4141 2469 4141 
Q 1941 4141 1586 3887 
Q 1231 3634 1087 3207 
Q 944 2781 944 2328 
Q 944 1744 1114 1308 
Q 1284 872 1643 656 
Q 2003 441 2422 441 
Q 2931 441 3284 734 
Q 3638 1028 3763 1606 
z
" transform="scale(0.015625)"/>
     </defs>
     <use xlink:href="#ArialMT-4d"/>
     <use xlink:href="#ArialMT-6f" x="83.300781"/>
     <use xlink:href="#ArialMT-64" x="138.916016"/>
     <use xlink:href="#ArialMT-65" x="194.53125"/>
     <use xlink:href="#ArialMT-6c" x="250.146484"/>
     <use xlink:href="#ArialMT-20" x="272.363281"/>
     <use xlink:href="#ArialMT-3d" x="300.146484"/>
     <use xlink:href="#ArialMT-20" x="358.544922"/>
     <use xlink:href="#ArialMT-53" x="386.328125"/>
     <use xlink:href="#ArialMT-56" x="453.027344"/>
     <use xlink:href="#ArialMT-43" x="519.726562"/>
    </g>
   </g>
  </g>
  <g id="axes_3">
   <g id="patch_8">
    <path d="M 443.713383 162.849375 
L 629.134775 162.849375 
L 629.134775 21.789375 
L 443.713383 21.789375 
z
" style="fill: #eaeaf2"/>
   </g>
   <g id="matplotlib.axis_5">
    <g id="xtick_7">
     <g id="line2d_27">
      <path d="M 448.55514 162.849375 
L 448.55514 21.789375 
" clip-path="url(#pf539f5cf39)" style="fill: none; stroke: #ffffff; stroke-linecap: round"/>
     </g>
     <g id="text_18">
      <!-- 0 -->
      <g style="fill: #262626" transform="translate(445.496625 180.222969) scale(0.11 -0.11)">
       <use xlink:href="#ArialMT-30"/>
      </g>
     </g>
    </g>
    <g id="xtick_8">
     <g id="line2d_28">
      <path d="M 520.284886 162.849375 
L 520.284886 21.789375 
" clip-path="url(#pf539f5cf39)" style="fill: none; stroke: #ffffff; stroke-linecap: round"/>
     </g>
     <g id="text_19">
      <!-- 20 -->
      <g style="fill: #262626" transform="translate(514.167855 180.222969) scale(0.11 -0.11)">
       <use xlink:href="#ArialMT-32"/>
       <use xlink:href="#ArialMT-30" x="55.615234"/>
      </g>
     </g>
    </g>
    <g id="xtick_9">
     <g id="line2d_29">
      <path d="M 592.014632 162.849375 
L 592.014632 21.789375 
" clip-path="url(#pf539f5cf39)" style="fill: none; stroke: #ffffff; stroke-linecap: round"/>
     </g>
     <g id="text_20">
      <!-- 40 -->
      <g style="fill: #262626" transform="translate(585.8976 180.222969) scale(0.11 -0.11)">
       <use xlink:href="#ArialMT-34"/>
       <use xlink:href="#ArialMT-30" x="55.615234"/>
      </g>
     </g>
    </g>
    <g id="text_21">
     <!-- Number of removed features -->
     <g style="fill: #262626" transform="translate(460.061891 194.998594) scale(0.12 -0.12)">
      <use xlink:href="#ArialMT-4e"/>
      <use xlink:href="#ArialMT-75" x="72.216797"/>
      <use xlink:href="#ArialMT-6d" x="127.832031"/>
      <use xlink:href="#ArialMT-62" x="211.132812"/>
      <use xlink:href="#ArialMT-65" x="266.748047"/>
      <use xlink:href="#ArialMT-72" x="322.363281"/>
      <use xlink:href="#ArialMT-20" x="355.664062"/>
      <use xlink:href="#ArialMT-6f" x="383.447266"/>
      <use xlink:href="#ArialMT-66" x="439.0625"/>
      <use xlink:href="#ArialMT-20" x="466.845703"/>
      <use xlink:href="#ArialMT-72" x="494.628906"/>
      <use xlink:href="#ArialMT-65" x="527.929688"/>
      <use xlink:href="#ArialMT-6d" x="583.544922"/>
      <use xlink:href="#ArialMT-6f" x="666.845703"/>
      <use xlink:href="#ArialMT-76" x="722.460938"/>
      <use xlink:href="#ArialMT-65" x="772.460938"/>
      <use xlink:href="#ArialMT-64" x="828.076172"/>
      <use xlink:href="#ArialMT-20" x="883.691406"/>
      <use xlink:href="#ArialMT-66" x="911.474609"/>
      <use xlink:href="#ArialMT-65" x="939.257812"/>
      <use xlink:href="#ArialMT-61" x="994.873047"/>
      <use xlink:href="#ArialMT-74" x="1050.488281"/>
      <use xlink:href="#ArialMT-75" x="1078.271484"/>
      <use xlink:href="#ArialMT-72" x="1133.886719"/>
      <use xlink:href="#ArialMT-65" x="1167.1875"/>
      <use xlink:href="#ArialMT-73" x="1222.802734"/>
     </g>
    </g>
   </g>
   <g id="matplotlib.axis_6">
    <g id="ytick_13">
     <g id="line2d_30">
      <path d="M 443.713383 162.849375 
L 629.134775 162.849375 
" clip-path="url(#pf539f5cf39)" style="fill: none; stroke: #ffffff; stroke-linecap: round"/>
     </g>
    </g>
    <g id="ytick_14">
     <g id="line2d_31">
      <path d="M 443.713383 134.637375 
L 629.134775 134.637375 
" clip-path="url(#pf539f5cf39)" style="fill: none; stroke: #ffffff; stroke-linecap: round"/>
     </g>
    </g>
    <g id="ytick_15">
     <g id="line2d_32">
      <path d="M 443.713383 106.425375 
L 629.134775 106.425375 
" clip-path="url(#pf539f5cf39)" style="fill: none; stroke: #ffffff; stroke-linecap: round"/>
     </g>
    </g>
    <g id="ytick_16">
     <g id="line2d_33">
      <path d="M 443.713383 78.213375 
L 629.134775 78.213375 
" clip-path="url(#pf539f5cf39)" style="fill: none; stroke: #ffffff; stroke-linecap: round"/>
     </g>
    </g>
    <g id="ytick_17">
     <g id="line2d_34">
      <path d="M 443.713383 50.001375 
L 629.134775 50.001375 
" clip-path="url(#pf539f5cf39)" style="fill: none; stroke: #ffffff; stroke-linecap: round"/>
     </g>
    </g>
    <g id="ytick_18">
     <g id="line2d_35">
      <path d="M 443.713383 21.789375 
L 629.134775 21.789375 
" clip-path="url(#pf539f5cf39)" style="fill: none; stroke: #ffffff; stroke-linecap: round"/>
     </g>
    </g>
   </g>
   <g id="PolyCollection_9"/>
   <g id="PolyCollection_10"/>
   <g id="PolyCollection_11"/>
   <g id="PolyCollection_12"/>
   <g id="line2d_36">
    <path d="M 452.141628 34.710471 
L 455.728115 31.480197 
L 459.314602 39.012801 
L 462.90109 51.933897 
L 466.487577 64.854993 
L 470.074064 81.006363 
L 473.660551 84.236637 
L 477.247039 88.553073 
L 480.833526 95.013621 
L 484.420013 97.171839 
L 488.006501 89.625129 
L 491.592988 91.783347 
L 495.179475 93.941565 
L 498.765962 85.322799 
L 502.35245 98.243895 
L 505.938937 87.466911 
L 509.525424 85.322799 
L 513.111912 84.236637 
L 516.698399 85.322799 
L 520.284886 78.862251 
L 523.871373 81.006363 
L 527.457861 77.776089 
L 531.044348 72.401703 
L 534.630835 71.315541 
L 538.217322 72.401703 
L 541.80381 70.243485 
L 545.390297 69.171429 
L 548.976784 72.401703 
L 552.563272 67.013211 
L 556.149759 67.013211 
L 559.736246 65.941155 
L 563.322733 67.013211 
L 566.909221 62.710881 
L 570.495708 59.480607 
L 574.082195 59.480607 
L 577.668683 61.624719 
L 581.25517 59.480607 
L 584.841657 60.552663 
L 588.428144 60.552663 
L 592.014632 61.624719 
L 595.601119 62.710881 
L 599.187606 60.552663 
L 602.774093 57.322389 
L 606.360581 55.164171 
L 609.947068 51.933897 
L 613.533555 48.703623 
L 617.120043 45.473349 
L 620.70653 21.789375 
" clip-path="url(#pf539f5cf39)" style="fill: none; stroke: #4c72b0; stroke-width: 1.5; stroke-linecap: round"/>
   </g>
   <g id="line2d_37">
    <path d="M 452.141628 21.789375 
L 455.728115 33.638415 
L 459.314602 37.940745 
L 462.90109 36.868689 
L 466.487577 37.940745 
L 470.074064 36.868689 
L 473.660551 37.940745 
L 477.247039 42.243075 
L 480.833526 44.401293 
L 484.420013 49.789785 
L 488.006501 57.322389 
L 491.592988 57.322389 
L 495.179475 69.171429 
L 498.765962 75.631977 
L 502.35245 79.934307 
L 505.938937 74.545815 
L 509.525424 73.473759 
L 513.111912 75.631977 
L 516.698399 72.401703 
L 520.284886 81.006363 
L 523.871373 83.164581 
L 527.457861 78.862251 
L 531.044348 77.776089 
L 534.630835 74.545815 
L 538.217322 72.401703 
L 541.80381 63.782937 
L 545.390297 58.394445 
L 548.976784 55.164171 
L 552.563272 50.861841 
L 556.149759 51.933897 
L 559.736246 48.703623 
L 563.322733 46.559511 
L 566.909221 41.171019 
L 570.495708 39.012801 
L 574.082195 40.098963 
L 577.668683 39.012801 
L 581.25517 41.171019 
L 584.841657 43.329237 
L 588.428144 43.329237 
L 592.014632 44.401293 
L 595.601119 43.329237 
L 599.187606 47.631567 
L 602.774093 47.631567 
L 606.360581 54.092115 
L 609.947068 51.933897 
L 613.533555 47.631567 
L 617.120043 35.782527 
L 620.70653 21.789375 
" clip-path="url(#pf539f5cf39)" style="fill: none; stroke: #dd8452; stroke-width: 1.5; stroke-linecap: round"/>
   </g>
   <g id="line2d_38">
    <path d="M 452.141628 36.868689 
L 455.728115 37.940745 
L 459.314602 39.012801 
L 462.90109 41.171019 
L 466.487577 43.329237 
L 470.074064 45.473349 
L 473.660551 45.473349 
L 477.247039 47.631567 
L 480.833526 47.631567 
L 484.420013 47.631567 
L 488.006501 47.631567 
L 491.592988 47.631567 
L 495.179475 47.631567 
L 498.765962 47.631567 
L 502.35245 47.631567 
L 505.938937 47.631567 
L 509.525424 47.631567 
L 513.111912 47.631567 
L 516.698399 47.631567 
L 520.284886 47.631567 
L 523.871373 47.631567 
L 527.457861 47.631567 
L 531.044348 47.631567 
L 534.630835 46.559511 
L 538.217322 46.559511 
L 541.80381 46.559511 
L 545.390297 46.559511 
L 548.976784 46.559511 
L 552.563272 46.559511 
L 556.149759 46.559511 
L 559.736246 46.559511 
L 563.322733 46.559511 
L 566.909221 46.559511 
L 570.495708 46.559511 
L 574.082195 46.559511 
L 577.668683 46.559511 
L 581.25517 46.559511 
L 584.841657 46.559511 
L 588.428144 46.559511 
L 592.014632 46.559511 
L 595.601119 46.559511 
L 599.187606 46.559511 
L 602.774093 46.559511 
L 606.360581 46.559511 
L 609.947068 46.559511 
L 613.533555 46.559511 
L 617.120043 46.559511 
L 620.70653 46.559511 
" clip-path="url(#pf539f5cf39)" style="fill: none; stroke: #55a868; stroke-width: 1.5; stroke-linecap: round"/>
   </g>
   <g id="line2d_39">
    <path d="M 452.141628 35.782527 
L 455.728115 37.940745 
L 459.314602 37.940745 
L 462.90109 35.782527 
L 466.487577 34.710471 
L 470.074064 35.782527 
L 473.660551 33.638415 
L 477.247039 35.782527 
L 480.833526 36.868689 
L 484.420013 36.868689 
L 488.006501 36.868689 
L 491.592988 35.782527 
L 495.179475 36.868689 
L 498.765962 37.940745 
L 502.35245 37.940745 
L 505.938937 37.940745 
L 509.525424 36.868689 
L 513.111912 37.940745 
L 516.698399 36.868689 
L 520.284886 36.868689 
L 523.871373 37.940745 
L 527.457861 37.940745 
L 531.044348 37.940745 
L 534.630835 37.940745 
L 538.217322 37.940745 
L 541.80381 37.940745 
L 545.390297 37.940745 
L 548.976784 37.940745 
L 552.563272 37.940745 
L 556.149759 37.940745 
L 559.736246 37.940745 
L 563.322733 37.940745 
L 566.909221 37.940745 
L 570.495708 37.940745 
L 574.082195 37.940745 
L 577.668683 37.940745 
L 581.25517 37.940745 
L 584.841657 37.940745 
L 588.428144 37.940745 
L 592.014632 37.940745 
L 595.601119 37.940745 
L 599.187606 37.940745 
L 602.774093 37.940745 
L 606.360581 37.940745 
L 609.947068 37.940745 
L 613.533555 37.940745 
L 617.120043 37.940745 
L 620.70653 37.940745 
" clip-path="url(#pf539f5cf39)" style="fill: none; stroke: #c44e52; stroke-width: 1.5; stroke-linecap: round"/>
   </g>
   <g id="patch_9">
    <path d="M 443.713383 162.849375 
L 443.713383 21.789375 
" style="fill: none; stroke: #ffffff; stroke-width: 1.25; stroke-linejoin: miter; stroke-linecap: square"/>
   </g>
   <g id="patch_10">
    <path d="M 443.713383 162.849375 
L 629.134775 162.849375 
" style="fill: none; stroke: #ffffff; stroke-width: 1.25; stroke-linejoin: miter; stroke-linecap: square"/>
   </g>
   <g id="text_22">
    <!-- Model = MLP -->
    <g style="fill: #262626" transform="translate(500.908766 15.789375) scale(0.12 -0.12)">
     <defs>
      <path id="ArialMT-4c" d="M 469 0 
L 469 4581 
L 1075 4581 
L 1075 541 
L 3331 541 
L 3331 0 
L 469 0 
z
" transform="scale(0.015625)"/>
      <path id="ArialMT-50" d="M 494 0 
L 494 4581 
L 2222 4581 
Q 2678 4581 2919 4538 
Q 3256 4481 3484 4323 
Q 3713 4166 3852 3881 
Q 3991 3597 3991 3256 
Q 3991 2672 3619 2267 
Q 3247 1863 2275 1863 
L 1100 1863 
L 1100 0 
L 494 0 
z
M 1100 2403 
L 2284 2403 
Q 2872 2403 3119 2622 
Q 3366 2841 3366 3238 
Q 3366 3525 3220 3729 
Q 3075 3934 2838 4000 
Q 2684 4041 2272 4041 
L 1100 4041 
L 1100 2403 
z
" transform="scale(0.015625)"/>
     </defs>
     <use xlink:href="#ArialMT-4d"/>
     <use xlink:href="#ArialMT-6f" x="83.300781"/>
     <use xlink:href="#ArialMT-64" x="138.916016"/>
     <use xlink:href="#ArialMT-65" x="194.53125"/>
     <use xlink:href="#ArialMT-6c" x="250.146484"/>
     <use xlink:href="#ArialMT-20" x="272.363281"/>
     <use xlink:href="#ArialMT-3d" x="300.146484"/>
     <use xlink:href="#ArialMT-20" x="358.544922"/>
     <use xlink:href="#ArialMT-4d" x="386.328125"/>
     <use xlink:href="#ArialMT-4c" x="469.628906"/>
     <use xlink:href="#ArialMT-50" x="525.244141"/>
    </g>
   </g>
  </g>
  <g id="legend_1">
   <g id="text_23">
    <!-- Interpreter -->
    <g style="fill: #262626" transform="translate(642.177553 74.274297) scale(0.12 -0.12)">
     <defs>
      <path id="ArialMT-49" d="M 597 0 
L 597 4581 
L 1203 4581 
L 1203 0 
L 597 0 
z
" transform="scale(0.015625)"/>
      <path id="ArialMT-70" d="M 422 -1272 
L 422 3319 
L 934 3319 
L 934 2888 
Q 1116 3141 1344 3267 
Q 1572 3394 1897 3394 
Q 2322 3394 2647 3175 
Q 2972 2956 3137 2557 
Q 3303 2159 3303 1684 
Q 3303 1175 3120 767 
Q 2938 359 2589 142 
Q 2241 -75 1856 -75 
Q 1575 -75 1351 44 
Q 1128 163 984 344 
L 984 -1272 
L 422 -1272 
z
M 931 1641 
Q 931 1000 1190 694 
Q 1450 388 1819 388 
Q 2194 388 2461 705 
Q 2728 1022 2728 1688 
Q 2728 2322 2467 2637 
Q 2206 2953 1844 2953 
Q 1484 2953 1207 2617 
Q 931 2281 931 1641 
z
" transform="scale(0.015625)"/>
     </defs>
     <use xlink:href="#ArialMT-49"/>
     <use xlink:href="#ArialMT-6e" x="27.783203"/>
     <use xlink:href="#ArialMT-74" x="83.398438"/>
     <use xlink:href="#ArialMT-65" x="111.181641"/>
     <use xlink:href="#ArialMT-72" x="166.796875"/>
     <use xlink:href="#ArialMT-70" x="200.097656"/>
     <use xlink:href="#ArialMT-72" x="255.712891"/>
     <use xlink:href="#ArialMT-65" x="289.013672"/>
     <use xlink:href="#ArialMT-74" x="344.628906"/>
     <use xlink:href="#ArialMT-65" x="372.412109"/>
     <use xlink:href="#ArialMT-72" x="428.027344"/>
    </g>
   </g>
   <g id="line2d_40">
    <path d="M 637.028881 86.182891 
L 648.028881 86.182891 
L 659.028881 86.182891 
" style="fill: none; stroke: #4c72b0; stroke-width: 1.5; stroke-linecap: round"/>
   </g>
   <g id="text_24">
    <!-- SHAP -->
    <g style="fill: #262626" transform="translate(667.828881 90.032891) scale(0.11 -0.11)">
     <defs>
      <path id="ArialMT-48" d="M 513 0 
L 513 4581 
L 1119 4581 
L 1119 2700 
L 3500 2700 
L 3500 4581 
L 4106 4581 
L 4106 0 
L 3500 0 
L 3500 2159 
L 1119 2159 
L 1119 0 
L 513 0 
z
" transform="scale(0.015625)"/>
      <path id="ArialMT-41" d="M -9 0 
L 1750 4581 
L 2403 4581 
L 4278 0 
L 3588 0 
L 3053 1388 
L 1138 1388 
L 634 0 
L -9 0 
z
M 1313 1881 
L 2866 1881 
L 2388 3150 
Q 2169 3728 2063 4100 
Q 1975 3659 1816 3225 
L 1313 1881 
z
" transform="scale(0.015625)"/>
     </defs>
     <use xlink:href="#ArialMT-53"/>
     <use xlink:href="#ArialMT-48" x="66.699219"/>
     <use xlink:href="#ArialMT-41" x="138.916016"/>
     <use xlink:href="#ArialMT-50" x="205.615234"/>
    </g>
   </g>
   <g id="line2d_41">
    <path d="M 637.028881 101.742734 
L 648.028881 101.742734 
L 659.028881 101.742734 
" style="fill: none; stroke: #dd8452; stroke-width: 1.5; stroke-linecap: round"/>
   </g>
   <g id="text_25">
    <!-- LIME -->
    <g style="fill: #262626" transform="translate(667.828881 105.592734) scale(0.11 -0.11)">
     <defs>
      <path id="ArialMT-45" d="M 506 0 
L 506 4581 
L 3819 4581 
L 3819 4041 
L 1113 4041 
L 1113 2638 
L 3647 2638 
L 3647 2100 
L 1113 2100 
L 1113 541 
L 3925 541 
L 3925 0 
L 506 0 
z
" transform="scale(0.015625)"/>
     </defs>
     <use xlink:href="#ArialMT-4c"/>
     <use xlink:href="#ArialMT-49" x="55.615234"/>
     <use xlink:href="#ArialMT-4d" x="83.398438"/>
     <use xlink:href="#ArialMT-45" x="166.699219"/>
    </g>
   </g>
   <g id="line2d_42">
    <path d="M 637.028881 117.302578 
L 648.028881 117.302578 
L 659.028881 117.302578 
" style="fill: none; stroke: #55a868; stroke-width: 1.5; stroke-linecap: round"/>
   </g>
   <g id="text_26">
    <!-- Anchor -->
    <g style="fill: #262626" transform="translate(667.828881 121.152578) scale(0.11 -0.11)">
     <defs>
      <path id="ArialMT-68" d="M 422 0 
L 422 4581 
L 984 4581 
L 984 2938 
Q 1378 3394 1978 3394 
Q 2347 3394 2619 3248 
Q 2891 3103 3008 2847 
Q 3125 2591 3125 2103 
L 3125 0 
L 2563 0 
L 2563 2103 
Q 2563 2525 2380 2717 
Q 2197 2909 1863 2909 
Q 1613 2909 1392 2779 
Q 1172 2650 1078 2428 
Q 984 2206 984 1816 
L 984 0 
L 422 0 
z
" transform="scale(0.015625)"/>
     </defs>
     <use xlink:href="#ArialMT-41"/>
     <use xlink:href="#ArialMT-6e" x="66.699219"/>
     <use xlink:href="#ArialMT-63" x="122.314453"/>
     <use xlink:href="#ArialMT-68" x="172.314453"/>
     <use xlink:href="#ArialMT-6f" x="227.929688"/>
     <use xlink:href="#ArialMT-72" x="283.544922"/>
    </g>
   </g>
   <g id="line2d_43">
    <path d="M 637.028881 132.862422 
L 648.028881 132.862422 
L 659.028881 132.862422 
" style="fill: none; stroke: #c44e52; stroke-width: 1.5; stroke-linecap: round"/>
   </g>
   <g id="text_27">
    <!-- LORE -->
    <g style="fill: #262626" transform="translate(667.828881 136.712422) scale(0.11 -0.11)">
     <defs>
      <path id="ArialMT-4f" d="M 309 2231 
Q 309 3372 921 4017 
Q 1534 4663 2503 4663 
Q 3138 4663 3647 4359 
Q 4156 4056 4423 3514 
Q 4691 2972 4691 2284 
Q 4691 1588 4409 1038 
Q 4128 488 3612 205 
Q 3097 -78 2500 -78 
Q 1853 -78 1343 234 
Q 834 547 571 1087 
Q 309 1628 309 2231 
z
M 934 2222 
Q 934 1394 1379 917 
Q 1825 441 2497 441 
Q 3181 441 3623 922 
Q 4066 1403 4066 2288 
Q 4066 2847 3877 3264 
Q 3688 3681 3323 3911 
Q 2959 4141 2506 4141 
Q 1863 4141 1398 3698 
Q 934 3256 934 2222 
z
" transform="scale(0.015625)"/>
     </defs>
     <use xlink:href="#ArialMT-4c"/>
     <use xlink:href="#ArialMT-4f" x="55.615234"/>
     <use xlink:href="#ArialMT-52" x="133.398438"/>
     <use xlink:href="#ArialMT-45" x="205.615234"/>
    </g>
   </g>
  </g>
 </g>
 <defs>
  <clipPath id="pef0ac3128b">
   <rect x="46.964375" y="21.789375" width="185.421392" height="141.06"/>
  </clipPath>
  <clipPath id="p827eb60342">
   <rect x="245.338879" y="21.789375" width="185.421392" height="141.06"/>
  </clipPath>
  <clipPath id="pf539f5cf39">
   <rect x="443.713383" y="21.789375" width="185.421392" height="141.06"/>
  </clipPath>
 </defs>
</svg>
